<svg xmlns="http://www.w3.org/2000/svg" width="32" height="32" viewBox="0 0 32 32" fill="none">
  <path d="M20.4563 6.77679C19.702 6.32607 18.9477 6.02558 18.2438 5.82526C17.9923 5.77518 17.7912 5.87534 17.6403 6.07566L16.2827 8.62977H15.8301L14.4724 6.07566C14.3719 5.87534 14.1205 5.77518 13.869 5.82526C13.1148 6.02558 12.4108 6.37615 11.6565 6.77679C11.1537 7.02719 10.852 7.57808 10.8017 8.12897L10.5 12.9367C10.5 13.0869 10.5503 13.1871 10.6509 13.2873C10.7514 13.3874 10.9023 13.4375 11.0028 13.4375H21.0597C21.2105 13.4375 21.3111 13.3874 21.4116 13.2873C21.5122 13.1871 21.5625 13.0369 21.5625 12.9367L21.2608 8.12897C21.2105 7.57808 20.9088 7.07727 20.4563 6.77679ZM19.5009 12.486L19.35 10.4327C19.35 10.1322 19.0986 9.93186 18.7969 9.98194C18.4952 9.98194 18.294 10.2323 18.3443 10.5328L18.4952 12.536H13.5673L13.7182 10.5328C13.7182 10.2323 13.517 10.032 13.2656 9.98194C12.9639 9.98194 12.7628 10.1823 12.7125 10.4327L12.5616 12.486H11.556L11.8577 8.17905C11.8577 7.97872 12.0085 7.72832 12.1594 7.62816C12.7125 7.32768 13.2153 7.07728 13.7685 6.87695L15.0759 9.3309C15.1764 9.48114 15.3273 9.5813 15.5284 9.5813H16.5844C16.7855 9.5813 16.9364 9.48114 17.0369 9.3309L18.3443 6.87695C18.8974 7.07728 19.4003 7.32768 19.9534 7.62816C20.1545 7.72832 20.2551 7.92864 20.2551 8.17905L20.5568 12.486H19.5009Z" fill="#040C1A"/>
  <path d="M16.0625 5.875C17.5625 5.875 18.5625 3.91667 18.5625 2.61111C18.5625 1.15491 17.4625 0 16.0625 0C14.6625 0 13.5625 1.15491 13.5625 2.61111C13.5625 3.91667 14.5625 5.875 16.0625 5.875ZM16.0625 1.00427C16.9125 1.00427 17.5625 1.70726 17.5625 2.61111C17.5625 3.56517 16.8125 4.87073 16.0625 4.87073C15.3125 4.87073 14.5625 3.56517 14.5625 2.61111C14.5625 1.70726 15.2125 1.00427 16.0625 1.00427Z" fill="#040C1A"/>
  <path d="M19.995 24.5533C19.3417 24.1519 18.6382 23.8508 17.9849 23.7003C17.7337 23.6501 17.5327 23.7505 17.3819 23.9512L16.1759 26.2092H15.8241L14.6181 23.9512C14.5176 23.7505 14.2663 23.6501 14.0151 23.7003C13.3618 23.901 12.7085 24.2021 12.005 24.5533C11.5528 24.8042 11.2513 25.306 11.2513 25.8078L11 30.1232C11 30.2737 11.0503 30.3741 11.1508 30.4745C11.2513 30.5748 11.402 30.625 11.5025 30.625H20.4975C20.6482 30.625 20.7487 30.5748 20.8492 30.4745C20.9497 30.3741 21 30.2236 21 30.1232L20.6985 25.8078C20.6985 25.2558 20.4472 24.8042 19.995 24.5533ZM19.191 29.6716L19.0402 27.8652C19.0402 27.5641 18.7889 27.3634 18.4874 27.4135C18.1859 27.4135 17.9849 27.6644 18.0352 27.9655L18.1357 29.7218H13.8141L13.9146 27.9655C13.9146 27.6644 13.7136 27.4637 13.4623 27.4135C13.2111 27.4135 12.9598 27.6143 12.9095 27.8652L12.7588 29.6716H11.9548L12.206 25.858C12.206 25.6573 12.3065 25.5067 12.4573 25.4064C12.9095 25.1555 13.3618 24.9046 13.8643 24.754L15.0201 26.9117C15.1206 27.0623 15.2714 27.1626 15.4724 27.1626H16.4271C16.6281 27.1626 16.7789 27.0623 16.8794 26.9117L18.0352 24.754C18.4874 24.9046 18.9397 25.1555 19.4422 25.4064C19.593 25.5067 19.6935 25.6573 19.6935 25.858L19.9447 29.6716H19.191Z" fill="#040C1A"/>
  <path d="M16.0625 23.9375C17.4701 23.9375 18.375 22.1291 18.375 20.9737C18.375 19.6676 17.3193 18.5625 16.0625 18.5625C14.8057 18.5625 13.75 19.6174 13.75 20.9737C13.75 22.1291 14.6549 23.9375 16.0625 23.9375ZM16.0625 19.5672C16.7663 19.5672 17.3696 20.17 17.3696 20.9737C17.3696 21.8277 16.716 22.9328 16.0625 22.9328C15.409 22.9328 14.7554 21.7775 14.7554 20.9737C14.7554 20.17 15.3587 19.5672 16.0625 19.5672Z" fill="#040C1A"/>
  <path d="M8.99498 24.5533C8.34171 24.1519 7.63819 23.8508 6.98492 23.7003C6.73367 23.6501 6.53266 23.7505 6.38191 23.9512L5.17588 26.2092H4.82412L3.61809 23.9512C3.51759 23.7505 3.26633 23.6501 3.01508 23.7003C2.36181 23.901 1.70854 24.2021 1.00503 24.5533C0.552764 24.8042 0.251256 25.306 0.251256 25.8078L0 30.1232C0 30.2737 0.0502512 30.3741 0.150754 30.4745C0.251256 30.5748 0.40201 30.625 0.502513 30.625H9.49749C9.64824 30.625 9.74874 30.5748 9.84925 30.4745C9.94975 30.3741 10 30.2236 10 30.1232L9.69849 25.8078C9.69849 25.2558 9.44724 24.8042 8.99498 24.5533ZM8.19095 29.6716L8.0402 27.8652C8.0402 27.5641 7.78894 27.3634 7.48744 27.4135C7.18593 27.4135 6.98492 27.6644 7.03518 27.9655L7.13568 29.7218H2.86432L2.96482 27.9153C2.96482 27.6143 2.76382 27.4135 2.51256 27.3634C2.21106 27.3634 2.01005 27.5641 1.9598 27.815L1.80905 29.6214H1.05528L1.30653 25.8078C1.30653 25.6071 1.40704 25.4566 1.55779 25.3562C2.01005 25.1053 2.46231 24.8544 2.96482 24.7039L4.07035 26.9117C4.17085 27.0623 4.32161 27.1626 4.52261 27.1626H5.47739C5.67839 27.1626 5.82915 27.0623 5.92965 26.9117L7.08543 24.754C7.53769 24.9046 7.98995 25.1555 8.49246 25.4064C8.64322 25.5067 8.74372 25.6573 8.74372 25.858L8.99498 29.6716H8.19095Z" fill="#040C1A"/>
  <path d="M2.6875 20.9112C2.6875 22.1168 3.59239 23.875 5 23.875C6.40761 23.875 7.3125 22.0666 7.3125 20.9112C7.3125 19.6051 6.25679 18.5 5 18.5C3.69293 18.5502 2.6875 19.6051 2.6875 20.9112ZM6.30707 20.9112C6.30707 21.7652 5.65353 22.8703 5 22.8703C4.34647 22.8703 3.69293 21.715 3.69293 20.9112C3.69293 20.1577 4.2962 19.5047 5 19.5047C5.7038 19.5047 6.30707 20.1577 6.30707 20.9112Z" fill="#040C1A"/>
  <path d="M31.799 25.8078C31.7487 25.306 31.4975 24.8042 31.0452 24.5533C30.392 24.1519 29.6884 23.8508 29.0352 23.7003C28.7839 23.6501 28.5829 23.7505 28.4322 23.9512L27.2261 26.2092H26.8744L25.6683 23.9512C25.5678 23.7505 25.3166 23.6501 25.0653 23.7003C24.4121 23.901 23.7588 24.1519 23.0553 24.5533C22.603 24.8042 22.3015 25.306 22.3015 25.8078L22 30.1232C22 30.2737 22.0503 30.3741 22.1508 30.4745C22.2513 30.5748 22.402 30.625 22.5025 30.625H31.4975C31.6482 30.625 31.7487 30.5748 31.8492 30.4745C31.9497 30.3741 32 30.2236 32 30.1232L31.799 25.8078ZM30.2412 29.6716L30.0905 27.8652C30.0905 27.5641 29.8392 27.3634 29.5377 27.4135C29.2362 27.4135 29.0352 27.6644 29.0854 27.9655L29.1859 29.7218H24.8643L25.0653 27.9153C25.0653 27.6143 24.8643 27.4135 24.6131 27.3634C24.3116 27.3634 24.1106 27.5641 24.0603 27.815L23.9095 29.6214H23.1055L23.3568 25.8078C23.3568 25.6071 23.4573 25.4566 23.608 25.3562C24.0603 25.1053 24.5126 24.8544 25.0151 24.7039L26.1709 26.8616C26.2714 27.0121 26.4221 27.1125 26.6231 27.1125H27.5779C27.7789 27.1125 27.9296 27.0121 28.0302 26.8616L29.1859 24.7039C29.6382 24.8544 30.0905 25.1053 30.593 25.3562C30.7437 25.4566 30.8442 25.6071 30.8442 25.8078L31.0955 29.6214H30.2412V29.6716Z" fill="#040C1A"/>
  <path d="M24.75 20.9112C24.75 22.1168 25.6549 23.875 27.0625 23.875C28.4701 23.875 29.375 22.0666 29.375 20.9112C29.375 19.6051 28.3193 18.5 27.0625 18.5C25.8057 18.5502 24.75 19.6051 24.75 20.9112ZM28.3696 20.9112C28.3696 21.7652 27.716 22.8703 27.0625 22.8703C26.409 22.8703 25.7554 21.715 25.7554 20.9112C25.7554 20.1577 26.3587 19.5047 27.0625 19.5047C27.8166 19.5549 28.3696 20.1577 28.3696 20.9112Z" fill="#040C1A"/>
  <path d="M21.0847 3.00967C25.6128 5.17995 28.0278 10.1262 27.1222 14.9715L26.4681 14.1134C26.3172 13.9116 25.965 13.8611 25.7638 14.0125C25.5625 14.1639 25.5122 14.5172 25.6631 14.7191L26.9713 16.4856C27.0216 16.5866 27.2228 16.6875 27.3738 16.6875C27.4744 16.6875 27.575 16.637 27.6757 16.5866L29.4366 15.2743C29.6379 15.1229 29.6882 14.7696 29.5372 14.5677C29.3863 14.3658 29.0341 14.3153 28.8329 14.4667L28.1285 14.9715C29.0341 9.72241 26.3675 4.47335 21.5375 2.10118C21.2859 2.00024 20.984 2.10118 20.8834 2.35354C20.7325 2.55543 20.8331 2.85826 21.0847 3.00967Z" fill="#00A0AE"/>
  <path d="M4.42178 16.5857C4.52163 16.6366 4.62149 16.6875 4.72134 16.6875C4.87112 16.6875 5.07082 16.5857 5.12075 16.4839L6.41883 14.7023C6.56861 14.4987 6.51868 14.1423 6.31897 13.9896C6.11927 13.8369 5.76979 13.8878 5.62001 14.0914L4.97097 14.9568C4.12222 10.0701 6.51868 5.1325 10.9621 2.89277C11.2117 2.79096 11.3116 2.48554 11.2117 2.23103C11.1119 1.97651 10.8123 1.87471 10.5627 1.97651C5.71986 4.41986 3.07378 9.71378 3.92252 14.9568L3.22355 14.4478C3.02385 14.2951 2.67437 14.346 2.52459 14.5496C2.37481 14.7532 2.42474 15.1095 2.62444 15.2622L4.42178 16.5857Z" fill="#00A0AE"/>
</svg>