<svg xmlns="http://www.w3.org/2000/svg" width="73" height="72" viewBox="0 0 73 72" fill="none">
  <g clip-path="url(#clip0_0_11866)">
    <path d="M58.4563 62.9705V65.6719C58.4563 68.5842 56.0952 70.9453 53.1829 70.9453H20.4172C17.5049 70.9453 15.1438 68.5842 15.1438 65.6719V55.9224" stroke="#606564" stroke-width="1.75781" stroke-miterlimit="10" stroke-linecap="round" stroke-linejoin="round"/>
    <path d="M58.4563 58.0486V45.1533V38.6128V32.0709V6.32812C58.4563 3.41578 56.0952 1.05469 53.1829 1.05469H28.1277" stroke="#606564" stroke-width="1.75781" stroke-miterlimit="10" stroke-linecap="round" stroke-linejoin="round"/>
    <path d="M15.1438 51.0005V45.1533V38.6128V32.0709V6.32812C15.1438 3.41578 17.5049 1.05469 20.4172 1.05469H23.2058" stroke="#606564" stroke-width="1.75781" stroke-miterlimit="10" stroke-linecap="round" stroke-linejoin="round"/>
    <path d="M31.4915 5.27344H38.5227" stroke="url(#paint0_linear_0_11866)" stroke-width="1.75781" stroke-miterlimit="10" stroke-linecap="round" stroke-linejoin="round"/>
    <path d="M30.2589 53.462V54.1189C30.2589 55.2378 29.8144 56.3108 29.0232 57.102L27.0146 59.1105" stroke="#606564" stroke-width="1.75781" stroke-miterlimit="10" stroke-linecap="round" stroke-linejoin="round"/>
    <path d="M36.8 54.7393V61.3576" stroke="#606564" stroke-width="1.75781" stroke-miterlimit="10" stroke-linecap="round" stroke-linejoin="round"/>
    <path d="M36.8 67.3663C38.3533 67.3663 39.6125 66.1071 39.6125 64.5538C39.6125 63.0005 38.3533 61.7413 36.8 61.7413C35.2467 61.7413 33.9875 63.0005 33.9875 64.5538C33.9875 66.1071 35.2467 67.3663 36.8 67.3663Z" stroke="#606564" stroke-width="1.75781" stroke-miterlimit="10" stroke-linecap="round" stroke-linejoin="round"/>
    <path d="M25.2586 63.0603C26.4701 63.0603 27.4523 62.0782 27.4523 60.8666C27.4523 59.655 26.4701 58.6729 25.2586 58.6729C24.047 58.6729 23.0648 59.655 23.0648 60.8666C23.0648 62.0782 24.047 63.0603 25.2586 63.0603Z" stroke="#606564" stroke-width="1.75781" stroke-miterlimit="10" stroke-linecap="round" stroke-linejoin="round"/>
    <path d="M43.3412 53.462V54.1189C43.3412 55.2378 43.7857 56.3108 44.5769 57.102L46.5854 59.1105" stroke="#606564" stroke-width="1.75781" stroke-miterlimit="10" stroke-linecap="round" stroke-linejoin="round"/>
    <path d="M48.3415 63.0603C49.5531 63.0603 50.5353 62.0782 50.5353 60.8666C50.5353 59.655 49.5531 58.6729 48.3415 58.6729C47.1299 58.6729 46.1478 59.655 46.1478 60.8666C46.1478 62.0782 47.1299 63.0603 48.3415 63.0603Z" stroke="#606564" stroke-width="1.75781" stroke-miterlimit="10" stroke-linecap="round" stroke-linejoin="round"/>
    <path d="M43.3412 23.087V22.4805C43.3412 21.3617 43.7857 20.2885 44.5769 19.4974L46.6609 17.4133" stroke="#606564" stroke-width="1.75781" stroke-miterlimit="10" stroke-linecap="round" stroke-linejoin="round"/>
    <path d="M30.2589 23.1431V22.4806C30.2589 21.3618 29.8144 20.2887 29.0232 19.4975L26.9391 17.4135" stroke="#606564" stroke-width="1.75781" stroke-miterlimit="10" stroke-linecap="round" stroke-linejoin="round"/>
    <path d="M36.8 21.6458V15.0055" stroke="#606564" stroke-width="1.75781" stroke-miterlimit="10" stroke-linecap="round" stroke-linejoin="round"/>
    <path d="M25.2586 17.9264C26.4701 17.9264 27.4523 16.9443 27.4523 15.7327C27.4523 14.5211 26.4701 13.5389 25.2586 13.5389C24.047 13.5389 23.0648 14.5211 23.0648 15.7327C23.0648 16.9443 24.047 17.9264 25.2586 17.9264Z" stroke="#606564" stroke-width="1.75781" stroke-miterlimit="10" stroke-linecap="round" stroke-linejoin="round"/>
    <path d="M36.8 14.8582C38.3533 14.8582 39.6125 13.599 39.6125 12.0457C39.6125 10.4924 38.3533 9.23315 36.8 9.23315C35.2467 9.23315 33.9875 10.4924 33.9875 12.0457C33.9875 13.599 35.2467 14.8582 36.8 14.8582Z" stroke="#606564" stroke-width="1.75781" stroke-miterlimit="10" stroke-linecap="round" stroke-linejoin="round"/>
    <path d="M48.3415 17.9264C49.5531 17.9264 50.5353 16.9443 50.5353 15.7327C50.5353 14.5211 49.5531 13.5389 48.3415 13.5389C47.1299 13.5389 46.1478 14.5211 46.1478 15.7327C46.1478 16.9443 47.1299 17.9264 48.3415 17.9264Z" stroke="#606564" stroke-width="1.75781" stroke-miterlimit="10" stroke-linecap="round" stroke-linejoin="round"/>
    <path d="M21.6835 45.1534H14.3826C13.2638 45.1534 12.1907 45.598 11.3996 46.3891L9.42786 48.3608" stroke="#606564" stroke-width="1.75781" stroke-miterlimit="10" stroke-linecap="round" stroke-linejoin="round"/>
    <path d="M21.5673 32.0709H14.3826C13.2638 32.0709 12.1907 31.6264 11.3996 30.8352L9.42786 28.8635" stroke="#606564" stroke-width="1.75781" stroke-miterlimit="10" stroke-linecap="round" stroke-linejoin="round"/>
    <path d="M19.9883 38.6123H7.62036" stroke="#606564" stroke-width="1.75781" stroke-miterlimit="10" stroke-linecap="round" stroke-linejoin="round"/>
    <path d="M7.63497 52.3475C8.84655 52.3475 9.82872 51.3653 9.82872 50.1537C9.82872 48.9421 8.84655 47.96 7.63497 47.96C6.4234 47.96 5.44122 48.9421 5.44122 50.1537C5.44122 51.3653 6.4234 52.3475 7.63497 52.3475Z" stroke="#606564" stroke-width="1.75781" stroke-miterlimit="10" stroke-linecap="round" stroke-linejoin="round"/>
    <path d="M4.66724 41.4248C6.22054 41.4248 7.47974 40.1656 7.47974 38.6123C7.47974 37.059 6.22054 35.7998 4.66724 35.7998C3.11394 35.7998 1.85474 37.059 1.85474 38.6123C1.85474 40.1656 3.11394 41.4248 4.66724 41.4248Z" stroke="#606564" stroke-width="1.75781" stroke-miterlimit="10" stroke-linecap="round" stroke-linejoin="round"/>
    <path d="M7.63497 29.2645C8.84655 29.2645 9.82872 28.2823 9.82872 27.0707C9.82872 25.8591 8.84655 24.877 7.63497 24.877C6.4234 24.877 5.44122 25.8591 5.44122 27.0707C5.44122 28.2823 6.4234 29.2645 7.63497 29.2645Z" stroke="#606564" stroke-width="1.75781" stroke-miterlimit="10" stroke-linecap="round" stroke-linejoin="round"/>
    <path d="M52.1746 32.071H59.2174C60.3364 32.071 61.4093 31.6264 62.2005 30.8353L64.2577 28.7781" stroke="#606564" stroke-width="1.75781" stroke-miterlimit="10" stroke-linecap="round" stroke-linejoin="round"/>
    <path d="M51.9192 45.1534H59.2175C60.3364 45.1534 61.4094 45.598 62.2006 46.3891L64.2578 48.4463" stroke="#606564" stroke-width="1.75781" stroke-miterlimit="10" stroke-linecap="round" stroke-linejoin="round"/>
    <path d="M53.4519 38.6123H65.5818" stroke="#606564" stroke-width="1.75781" stroke-miterlimit="10" stroke-linecap="round" stroke-linejoin="round"/>
    <path d="M68.9329 41.4248C70.4862 41.4248 71.7454 40.1656 71.7454 38.6123C71.7454 37.059 70.4862 35.7998 68.9329 35.7998C67.3796 35.7998 66.1204 37.059 66.1204 38.6123C66.1204 40.1656 67.3796 41.4248 68.9329 41.4248Z" stroke="#606564" stroke-width="1.75781" stroke-miterlimit="10" stroke-linecap="round" stroke-linejoin="round"/>
    <path d="M65.9651 29.2645C67.1767 29.2645 68.1589 28.2823 68.1589 27.0707C68.1589 25.8591 67.1767 24.877 65.9651 24.877C64.7535 24.877 63.7714 25.8591 63.7714 27.0707C63.7714 28.2823 64.7535 29.2645 65.9651 29.2645Z" stroke="#606564" stroke-width="1.75781" stroke-miterlimit="10" stroke-linecap="round" stroke-linejoin="round"/>
    <path d="M65.9651 52.3475C67.1767 52.3475 68.1589 51.3653 68.1589 50.1537C68.1589 48.9421 67.1767 47.96 65.9651 47.96C64.7535 47.96 63.7714 48.9421 63.7714 50.1537C63.7714 51.3653 64.7535 52.3475 65.9651 52.3475Z" stroke="#606564" stroke-width="1.75781" stroke-miterlimit="10" stroke-linecap="round" stroke-linejoin="round"/>
    <path d="M49.9934 28.6608C51.9509 31.3496 53.104 34.6599 53.104 38.2374C53.104 47.2416 45.8042 54.5415 36.8 54.5415C27.7958 54.5415 20.4959 47.2416 20.4959 38.2374C20.4959 29.2332 27.7958 21.9333 36.8 21.9333C40.4492 21.9333 43.8186 23.1329 46.5354 25.1593" stroke="#606564" stroke-width="1.75781" stroke-miterlimit="10" stroke-linecap="round" stroke-linejoin="round"/>
    <path d="M45.3562 33.5903C44.4989 33.0112 43.4656 32.673 42.3533 32.673C39.3871 32.673 36.9825 35.0775 36.9825 38.0437C36.9825 41.0099 39.3871 43.4145 42.3533 43.4145C45.3195 43.4145 46.9896 41.0099 46.9896 38.0437H43.7763" stroke="url(#paint1_linear_0_11866)" stroke-width="1.75781" stroke-miterlimit="10" stroke-linecap="round" stroke-linejoin="round"/>
    <path d="M32.5242 32.6869H28.5548L27.7684 37.4331C27.7684 37.4331 27.8175 37.4078 27.9056 37.3682C28.456 37.1204 28.9477 36.952 29.9678 36.952C31.8093 36.952 33.2911 38.4948 33.1946 40.3552C33.1074 42.034 31.7152 43.38 30.0345 43.4139C28.373 43.4474 26.9899 42.2266 26.7678 40.634" stroke="url(#paint2_linear_0_11866)" stroke-width="1.75781" stroke-miterlimit="10" stroke-linecap="round" stroke-linejoin="round"/>
  </g>
  <defs>
    <linearGradient id="paint0_linear_0_11866" x1="31.4915" y1="5.35038" x2="32.3382" y2="3.46941" gradientUnits="userSpaceOnUse">
      <stop stop-color="#18A4FF"/>
      <stop offset="1" stop-color="#05C37F"/>
    </linearGradient>
    <linearGradient id="paint1_linear_0_11866" x1="36.9825" y1="33.4994" x2="43.5643" y2="31.5622" gradientUnits="userSpaceOnUse">
      <stop stop-color="#18A4FF"/>
      <stop offset="1" stop-color="#05C37F"/>
    </linearGradient>
    <linearGradient id="paint2_linear_0_11866" x1="26.7678" y1="33.5123" x2="31.205" y2="32.6719" gradientUnits="userSpaceOnUse">
      <stop stop-color="#18A4FF"/>
      <stop offset="1" stop-color="#05C37F"/>
    </linearGradient>
    <clipPath id="clip0_0_11866">
      <rect width="72" height="72" fill="white" transform="translate(0.800049)"/>
    </clipPath>
  </defs>
</svg>