<svg xmlns="http://www.w3.org/2000/svg" width="24" height="24" viewBox="0 0 24 24" fill="none">
  <path d="M19.7961 12.3537L20.1497 12.0001L19.7961 11.6466L14.2561 6.10656C14.1614 6.01183 14.1614 5.84841 14.2561 5.75367C14.3508 5.65893 14.5143 5.65893 14.609 5.75367L20.679 11.8237C20.7737 11.9184 20.7737 12.0818 20.679 12.1766L14.609 18.2466C14.5577 18.2979 14.4971 18.3201 14.4326 18.3201C14.3572 18.3201 14.2983 18.2914 14.2681 18.259L14.2622 18.2527L14.2561 18.2466C14.1614 18.1518 14.1614 17.9884 14.2561 17.8937L19.7961 12.3537Z" stroke="white"/>
  <path d="M20.334 12.25H3.50403C3.37017 12.25 3.25403 12.1339 3.25403 12C3.25403 11.8661 3.37017 11.75 3.50403 11.75H20.334C20.4679 11.75 20.584 11.8661 20.584 12C20.584 12.1339 20.4679 12.25 20.334 12.25Z" stroke="white"/>
</svg>