<svg xmlns="http://www.w3.org/2000/svg" width="36" height="30" viewBox="0 0 36 30" fill="none">
  <path d="M14.1481 29.0236L0 14.802L14.1481 0.58029C14.2758 0.412496 14.4382 0.274114 14.6241 0.174513C14.81 0.0749114 15.0151 0.0164167 15.2256 0.00298755C15.4361 -0.0104416 15.647 0.0215094 15.844 0.0966764C16.0411 0.171843 16.2197 0.288472 16.3678 0.438666C16.5158 0.588861 16.6299 0.769115 16.7022 0.967225C16.7746 1.16534 16.8035 1.37668 16.7871 1.58694C16.7706 1.79721 16.7092 2.00149 16.607 2.18595C16.5047 2.37041 16.364 2.53076 16.1944 2.65612L5.60917 13.3297L33.7728 13.3297C34.1632 13.3297 34.5377 13.4848 34.8138 13.7609C35.0899 14.037 35.245 14.4115 35.245 14.802C35.245 15.1924 35.0899 15.5669 34.8138 15.843C34.5377 16.1191 34.1632 16.2742 33.7728 16.2742L5.60917 16.2742L16.1944 26.9478C16.4697 27.225 16.6236 27.6002 16.6222 27.9909C16.6208 28.3816 16.4643 28.7557 16.1871 29.031C15.9099 29.3063 15.5346 29.4601 15.144 29.4587C14.7533 29.4574 14.3792 29.3008 14.1039 29.0236H14.1481Z" fill="url(#paint0_linear_0_11378)"/>
  <defs>
    <linearGradient id="paint0_linear_0_11378" x1="2.71183" y1="-2.90434e-07" x2="-2.48551" y2="19.6816" gradientUnits="userSpaceOnUse">
      <stop stop-color="#18A4FF"/>
      <stop offset="1" stop-color="#05C37F"/>
    </linearGradient>
  </defs>
</svg>