<svg xmlns="http://www.w3.org/2000/svg" width="24" height="25" viewBox="0 0 24 25" fill="none">
  <path d="M19.7961 12.8535L20.1497 12.5L19.7961 12.1464L14.2561 6.60644C14.1614 6.5117 14.1614 6.34829 14.2561 6.25355C14.3508 6.15881 14.5143 6.15881 14.609 6.25355L20.679 12.3235C20.7737 12.4183 20.7737 12.5817 20.679 12.6764L14.609 18.7464C14.5577 18.7977 14.4971 18.82 14.4326 18.82C14.3572 18.82 14.2983 18.7912 14.2681 18.7588L14.2622 18.7525L14.2561 18.7464C14.1614 18.6517 14.1614 18.4883 14.2561 18.3935L19.7961 12.8535Z" stroke="white"/>
  <path d="M20.334 12.75H3.50403C3.37017 12.75 3.25403 12.6339 3.25403 12.5C3.25403 12.3661 3.37017 12.25 3.50403 12.25H20.334C20.4679 12.25 20.584 12.3661 20.584 12.5C20.584 12.6339 20.4679 12.75 20.334 12.75Z" stroke="white"/>
</svg>