<svg xmlns="http://www.w3.org/2000/svg" width="24" height="25" viewBox="0 0 24 25" fill="none">
  <path d="M22.7626 11.7373V11.2373H22.2626L14.4279 11.2373C14.2939 11.2373 14.1783 11.1218 14.1783 10.9878C14.1783 10.8538 14.2939 10.7383 14.4279 10.7383L23.0121 10.7383C23.1461 10.7383 23.2617 10.8538 23.2617 10.9878L23.2617 19.5721C23.2617 19.6446 23.2345 19.7032 23.1889 19.7488C23.1356 19.8021 23.0737 19.8234 23.0294 19.8219L23.0207 19.8216L23.0121 19.8216C22.8781 19.8216 22.7626 19.706 22.7626 19.5721L22.7626 11.7373Z" stroke="url(#paint0_linear_0_11656)"/>
  <path d="M23.0698 11.284L11.1692 23.1846C11.0745 23.2792 10.9103 23.2792 10.8156 23.1846C10.721 23.0899 10.721 22.9257 10.8156 22.831L22.7163 10.9304C22.8109 10.8358 22.9752 10.8358 23.0698 10.9304C23.1645 11.0251 23.1645 11.1893 23.0698 11.284Z" stroke="url(#paint1_linear_0_11656)"/>
  <defs>
    <linearGradient id="paint0_linear_0_11656" x1="14.1127" y1="11.7298" x2="17.1718" y2="7.37053" gradientUnits="userSpaceOnUse">
      <stop stop-color="#18A4FF"/>
      <stop offset="1" stop-color="#05C37F"/>
    </linearGradient>
    <linearGradient id="paint1_linear_0_11656" x1="10.0134" y1="23.0894" x2="8.34727" y2="20.2585" gradientUnits="userSpaceOnUse">
      <stop stop-color="#18A4FF"/>
      <stop offset="1" stop-color="#05C37F"/>
    </linearGradient>
  </defs>
</svg>