<svg xmlns="http://www.w3.org/2000/svg" width="60" height="60" viewBox="0 0 60 60" fill="none">
  <path d="M42.8785 9.93281L29.4294 2.16797L15.9801 9.93281V22.0311M23.3365 29.7098L29.4294 33.2275L33.2074 31.0462" stroke="#606564" stroke-width="1.75781" stroke-miterlimit="10" stroke-linecap="round" stroke-linejoin="round"/>
  <path d="M9.19562 50.9771V48.3683C9.19562 48.2179 9.25537 48.0736 9.36174 47.9672C9.46811 47.8609 9.61238 47.8011 9.7628 47.8011H10.8128C11.0534 47.8011 11.2655 47.6484 11.3469 47.422C11.4168 47.2274 11.4958 47.0362 11.5837 46.8491C11.6859 46.6315 11.6439 46.3739 11.4739 46.2038L10.7319 45.4619C10.6256 45.3556 10.5659 45.2113 10.5659 45.0609C10.5659 44.9105 10.6256 44.7663 10.7319 44.6599L12.5767 42.8151C12.6831 42.7088 12.8273 42.6491 12.9777 42.6491C13.1281 42.6491 13.2724 42.7088 13.3787 42.8151L14.1207 43.557C14.2907 43.7271 14.5483 43.769 14.7659 43.6669C14.953 43.579 15.1442 43.5 15.3388 43.4301C15.5652 43.3488 15.7179 43.1366 15.7179 42.896V41.846C15.7179 41.6956 15.7777 41.5513 15.884 41.4449C15.9904 41.3386 16.1347 41.2788 16.2851 41.2788H18.8939C19.0444 41.2788 19.1886 41.3386 19.295 41.4449C19.4014 41.5513 19.4611 41.6956 19.4611 41.846V42.896C19.4611 43.1366 19.6138 43.3487 19.8402 43.4301C20.0348 43.5 20.226 43.579 20.4132 43.6669C20.6308 43.769 20.8884 43.7271 21.0584 43.557L21.8003 42.8151C21.9067 42.7088 22.0509 42.6491 22.2013 42.6491C22.3517 42.6491 22.496 42.7088 22.6023 42.8151L24.4471 44.6599C24.5534 44.7663 24.6132 44.9105 24.6132 45.0609C24.6132 45.2113 24.5534 45.3556 24.4471 45.4619L23.7052 46.2038C23.5351 46.3739 23.4932 46.6315 23.5954 46.8491C23.6833 47.0362 23.7623 47.2274 23.8321 47.422C23.9134 47.6484 24.1257 47.8011 24.3662 47.8011H25.4162C25.5667 47.8011 25.7109 47.8609 25.8173 47.9672C25.9237 48.0736 25.9834 48.2179 25.9834 48.3683V50.9771C25.9834 51.1276 25.9237 51.2718 25.8173 51.3782C25.7109 51.4846 25.5667 51.5443 25.4162 51.5443H24.3662C24.1257 51.5443 23.9135 51.697 23.8321 51.9234C23.7622 52.118 23.6832 52.3092 23.5954 52.4963C23.4932 52.714 23.5351 52.9715 23.7052 53.1416L24.4471 53.8835C24.5534 53.9899 24.6132 54.1341 24.6132 54.2845C24.6132 54.4349 24.5534 54.5792 24.4471 54.6855L22.6023 56.5303C22.496 56.6366 22.3517 56.6964 22.2013 56.6964C22.0509 56.6964 21.9067 56.6366 21.8003 56.5303L21.0584 55.7884C20.8884 55.6183 20.6308 55.5764 20.4132 55.6786C20.226 55.7665 20.0348 55.8455 19.8402 55.9153C19.6138 55.9966 19.4611 56.2088 19.4611 56.4494V57.4994C19.4611 57.6499 19.4014 57.7941 19.295 57.9005C19.1886 58.0069 19.0444 58.0666 18.8939 58.0666H16.2851C16.1347 58.0666 15.9904 58.0069 15.884 57.9005C15.7777 57.7941 15.7179 57.6499 15.7179 57.4994V56.4494C15.7179 56.2088 15.5652 55.9967 15.3388 55.9153C15.1442 55.8454 14.9531 55.7664 14.7659 55.6786C14.5483 55.5764 14.2907 55.6183 14.1207 55.7884L13.3787 56.5303C13.2724 56.6366 13.1281 56.6964 12.9777 56.6964C12.8273 56.6964 12.6831 56.6366 12.5767 56.5303L10.7317 54.6856C10.6254 54.5793 10.5656 54.435 10.5656 54.2846C10.5656 54.1342 10.6254 53.99 10.7317 53.8836L11.4736 53.1417C11.6437 52.9717 11.6856 52.7141 11.5834 52.4965C11.4955 52.3093 11.4166 52.1181 11.3467 51.9235C11.2654 51.6971 11.0532 51.5444 10.8126 51.5444H9.76257C9.61217 51.5443 9.46797 51.4845 9.36165 51.3781C9.25534 51.2718 9.19562 51.1275 9.19562 50.9771Z" stroke="url(#paint0_linear_0_11496)" stroke-width="1.75781" stroke-miterlimit="10" stroke-linecap="round" stroke-linejoin="round"/>
  <path d="M36.7595 28.9955L42.8786 25.4627V9.93286L29.4294 17.6978M29.4294 17.6978L15.9802 9.93286V22.0312M29.4294 17.6978V33.2275" stroke="#606564" stroke-width="1.75781" stroke-miterlimit="10" stroke-linecap="round" stroke-linejoin="round"/>
  <path d="M16.6881 46.9299H18.4904C18.6408 46.9299 18.7851 46.9897 18.8915 47.096L20.1659 48.3704C20.2185 48.4231 20.2603 48.4856 20.2888 48.5544C20.3173 48.6232 20.3319 48.6969 20.3319 48.7714V50.5738C20.3319 50.7242 20.2722 50.8684 20.1659 50.9748L18.8915 52.2492C18.8388 52.3018 18.7763 52.3436 18.7075 52.3721C18.6387 52.4006 18.5649 52.4153 18.4904 52.4152H16.6881C16.5377 52.4152 16.3935 52.3555 16.2871 52.2492L15.0127 50.9748C14.96 50.9221 14.9183 50.8596 14.8898 50.7908C14.8613 50.722 14.8466 50.6482 14.8466 50.5738V48.7714C14.8466 48.6209 14.9064 48.4768 15.0127 48.3704L16.2871 47.096C16.3935 46.9897 16.5377 46.93 16.6881 46.9299Z" stroke="url(#paint1_linear_0_11496)" stroke-width="1.75781" stroke-miterlimit="10" stroke-linecap="round" stroke-linejoin="round"/>
  <path d="M28.7038 49.6726H43.3259" stroke="#606564" stroke-width="1.75781" stroke-miterlimit="10" stroke-linecap="round" stroke-linejoin="round" stroke-dasharray="1.17 2.93"/>
  <path d="M6.72492 49.6726H2.69285C1.69102 49.6726 0.878906 48.8605 0.878906 47.8587V18.0683C0.878906 17.0665 1.69102 16.2544 2.69285 16.2544H12.6449" stroke="#606564" stroke-width="1.75781" stroke-miterlimit="10" stroke-linecap="round" stroke-linejoin="round"/>
  <path d="M9.71515 19.1841L12.6448 16.2544L9.71515 13.3247M52.1299 30.4101V39.79M52.1299 39.79L49.2002 36.8603M52.1299 39.79L55.0596 36.8603M46.0414 16.2544H50.3159C51.3178 16.2544 52.1299 17.0665 52.1299 18.0683V25.1366" stroke="#606564" stroke-width="1.75781" stroke-miterlimit="10" stroke-linecap="round" stroke-linejoin="round"/>
  <path d="M45.4449 51.7233C46.3214 54.5837 48.9824 56.6637 52.1298 56.6637C55.9909 56.6637 59.121 53.5337 59.121 49.6726C59.121 45.8115 55.9909 42.6814 52.1298 42.6814C48.9824 42.6814 46.3214 44.7615 45.4449 47.6218" stroke="url(#paint2_linear_0_11496)" stroke-width="1.75781" stroke-miterlimit="10" stroke-linecap="round" stroke-linejoin="round"/>
  <path d="M5.03906 33.0468V37.2771C5.03906 37.5082 5.13086 37.7298 5.29426 37.8932C5.45766 38.0566 5.67927 38.1484 5.91035 38.1484H22.4652C22.6963 38.1484 22.9179 38.0566 23.0813 37.8932C23.2447 37.7298 23.3365 37.5082 23.3365 37.2771V25.9075H5.03906V28.9452" stroke="#606564" stroke-width="1.75781" stroke-miterlimit="10" stroke-linecap="round" stroke-linejoin="round"/>
  <path d="M48.717 49.3306L51.4126 52.0262L55.591 47.8479" stroke="url(#paint3_linear_0_11496)" stroke-width="1.75781" stroke-miterlimit="10" stroke-linecap="round" stroke-linejoin="round"/>
  <path d="M23.3366 25.9076H5.03906V22.9025C5.03906 22.6715 5.13086 22.4498 5.29426 22.2864C5.45766 22.123 5.67927 22.0312 5.91035 22.0312H22.4652C22.6963 22.0313 22.9179 22.123 23.0813 22.2864C23.2447 22.4498 23.3365 22.6715 23.3365 22.9025V25.9076H23.3366Z" stroke="#606564" stroke-width="1.75781" stroke-miterlimit="10" stroke-linecap="round" stroke-linejoin="round"/>
  <path d="M7.73602 34.9075H20.769M9.43782 30.4997V34.9075M12.6476 31.3993V34.9075M15.8574 28.7007V34.9075M19.0671 32.2988V34.9075" stroke="url(#paint4_linear_0_11496)" stroke-width="1.75781" stroke-miterlimit="10" stroke-linecap="round" stroke-linejoin="round"/>
  <path d="M52.1299 30.4102C53.5861 30.4102 54.7666 29.2297 54.7666 27.7734C54.7666 26.3172 53.5861 25.1367 52.1299 25.1367C50.6737 25.1367 49.4932 26.3172 49.4932 27.7734C49.4932 29.2297 50.6737 30.4102 52.1299 30.4102Z" stroke="#606564" stroke-width="1.75781" stroke-miterlimit="10" stroke-linecap="round" stroke-linejoin="round"/>
  <defs>
    <linearGradient id="paint0_linear_0_11496" x1="9.19562" y1="42.5705" x2="20.1049" y2="39.1238" gradientUnits="userSpaceOnUse">
      <stop stop-color="#18A4FF"/>
      <stop offset="1" stop-color="#05C37F"/>
    </linearGradient>
    <linearGradient id="paint1_linear_0_11496" x1="14.8466" y1="47.352" x2="18.4111" y2="46.2258" gradientUnits="userSpaceOnUse">
      <stop stop-color="#18A4FF"/>
      <stop offset="1" stop-color="#05C37F"/>
    </linearGradient>
    <linearGradient id="paint2_linear_0_11496" x1="45.4449" y1="43.7572" x2="54.3671" y2="41.0001" gradientUnits="userSpaceOnUse">
      <stop stop-color="#18A4FF"/>
      <stop offset="1" stop-color="#05C37F"/>
    </linearGradient>
    <linearGradient id="paint3_linear_0_11496" x1="48.717" y1="48.1694" x2="52.5848" y2="46.159" gradientUnits="userSpaceOnUse">
      <stop stop-color="#18A4FF"/>
      <stop offset="1" stop-color="#05C37F"/>
    </linearGradient>
    <linearGradient id="paint4_linear_0_11496" x1="7.73602" y1="29.1783" x2="14.204" y2="24.8873" gradientUnits="userSpaceOnUse">
      <stop stop-color="#18A4FF"/>
      <stop offset="1" stop-color="#05C37F"/>
    </linearGradient>
  </defs>
</svg>