<svg xmlns="http://www.w3.org/2000/svg" width="24" height="24" viewBox="0 0 24 24" fill="none">
  <path d="M19.7961 12.3535L20.1496 12L19.7961 11.6464L14.2561 6.10644C14.1613 6.0117 14.1613 5.84829 14.2561 5.75355C14.3508 5.65881 14.5142 5.65881 14.6089 5.75355L20.6789 11.8235C20.7737 11.9183 20.7737 12.0817 20.6789 12.1764L14.6089 18.2464C14.5577 18.2977 14.497 18.32 14.4325 18.32C14.3571 18.32 14.2983 18.2912 14.268 18.2588L14.2621 18.2525L14.2561 18.2464C14.1613 18.1517 14.1613 17.9883 14.2561 17.8935L19.7961 12.3535Z" stroke="url(#paint0_linear_14_9965)"/>
  <path d="M20.334 12.25H3.50397C3.37011 12.25 3.25397 12.1339 3.25397 12C3.25397 11.8661 3.37011 11.75 3.50397 11.75H20.334C20.4678 11.75 20.584 11.8661 20.584 12C20.584 12.1339 20.4678 12.25 20.334 12.25Z" stroke="url(#paint1_linear_14_9965)"/>
  <defs>
    <linearGradient id="paint0_linear_14_9965" x1="13.685" y1="6.2318" x2="18.9305" y2="5.31247" gradientUnits="userSpaceOnUse">
      <stop stop-color="#18A4FF"/>
      <stop offset="1" stop-color="#05C37F"/>
    </linearGradient>
    <linearGradient id="paint1_linear_14_9965" x1="2.75397" y1="11.3654" x2="3.5776" y2="8.18556" gradientUnits="userSpaceOnUse">
      <stop stop-color="#18A4FF"/>
      <stop offset="1" stop-color="#05C37F"/>
    </linearGradient>
  </defs>
</svg>