<svg width="58" height="36" viewBox="0 0 58 36" fill="none" xmlns="http://www.w3.org/2000/svg">
<g id="Group">
<path id="Vector" d="M27.1333 4.39992L16.04 6.95994C15.4 7.11994 14.92 7.65326 14.8667 8.31993C14.8133 8.98659 15.1867 9.59995 15.8267 9.83995L27.0267 14.3199C27.64 14.5599 28.28 14.6933 28.9467 14.6933C29.6133 14.6933 30.2533 14.5599 30.8667 14.3199L42.44 9.67995C43.0533 9.43995 43.4533 8.8266 43.4 8.15993C43.3467 7.49327 42.8933 6.95992 42.2533 6.77326L32.7867 4.39992C30.92 3.99992 28.9733 3.97326 27.1333 4.39992ZM41.8533 8.31993L30.28 12.9599C29.4267 13.3066 28.44 13.3066 27.5867 12.9599L16.3867 8.42662L27.48 5.8666C28.2533 5.67993 29.0533 5.59996 29.8267 5.59996C30.68 5.59996 31.5333 5.70661 32.36 5.91994L41.8533 8.31993Z" fill="white"/>
<path id="Vector_2" d="M55.6133 15.3602C55.6133 15.3335 55.6133 15.3068 55.6133 15.3068V7.44019V7.41349V7.3868C55.6133 7.36013 55.5867 7.30682 55.5867 7.28015C55.5867 7.25348 55.5867 7.20017 55.56 7.1735C55.5333 7.12017 55.5067 7.09349 55.48 7.04016C55.4533 7.01349 55.4533 6.98683 55.4267 6.96016C55.4 6.90683 55.3467 6.88018 55.32 6.85352C55.2933 6.82685 55.2933 6.82684 55.2667 6.80017C55.1867 6.74684 55.1333 6.72015 55.0533 6.69348L33.5067 1.30684C32.3333 1.01351 31.16 0.853516 29.96 0.853516C28.76 0.853516 27.56 0.960166 26.3867 1.2535L2.78667 6.69348C2.70667 6.72015 2.62667 6.74684 2.54667 6.80017C2.52 6.82684 2.49334 6.82685 2.49334 6.85352C2.44 6.88018 2.41334 6.90683 2.38667 6.96016C2.36 6.98683 2.36 7.01349 2.33334 7.04016C2.30667 7.09349 2.28 7.12017 2.25334 7.1735C2.25334 7.20017 2.22667 7.25348 2.22667 7.28015C2.22667 7.30682 2.2 7.36013 2.2 7.3868V7.41349V7.44019V15.4668C1.10667 16.3468 0.440002 17.6802 0.440002 19.1202V25.1735C0.440002 26.9335 1.88 28.3735 3.64 28.3735C4.6 28.3735 5.48 27.9468 6.06667 27.2535C6.06667 29.0135 7.50667 30.4535 9.26667 30.4535C9.98667 30.4535 10.6267 30.2135 11.16 29.8135C11.2667 31.4668 12.6533 32.8001 14.36 32.8001C15.2933 32.8001 16.12 32.4002 16.7067 31.7602V31.9469C16.7067 33.7069 18.1467 35.1468 19.9067 35.1468C21.6667 35.1468 23.1067 33.7069 23.1067 31.9469V30.8268L27.7733 32.6935C28.1467 32.8535 28.5467 32.9068 28.92 32.9068C29.2933 32.9068 29.6933 32.8269 30.0667 32.6935L34.84 30.7735V31.9469C34.84 33.7069 36.28 35.1468 38.04 35.1468C39.8 35.1468 41.24 33.7069 41.24 31.9469V31.7602C41.8267 32.4002 42.6533 32.8001 43.5867 32.8001C45.2667 32.8001 46.6533 31.4935 46.7867 29.8135C47.32 30.2135 47.96 30.4535 48.68 30.4535C50.44 30.4535 51.88 29.0135 51.88 27.2535C52.4667 27.9468 53.3467 28.3735 54.3067 28.3735C56.0667 28.3735 57.5067 26.9335 57.5067 25.1735V19.1202C57.5067 17.6002 56.7867 16.2402 55.6133 15.3602ZM52.44 7.57349L31.48 15.9469C29.8267 16.6135 28.0133 16.6135 26.36 15.9469L5.48 7.60018L26.7333 2.69348C27.0533 2.61348 27.3467 2.56017 27.6667 2.50684C29.48 2.2135 31.3733 2.29349 33.16 2.74683L52.44 7.57349ZM5.90667 19.1202C5.58667 19.2269 5.37334 19.5202 5.37334 19.8402V25.1735C5.37334 26.1068 4.6 26.8801 3.66667 26.8801C2.73334 26.8801 1.96 26.1068 1.96 25.1735V19.1202C1.96 17.8669 2.70667 16.7201 3.85334 16.2135C3.93334 16.1868 3.98667 16.1601 4.06667 16.1335L6.57334 15.3868C6.73334 15.3335 6.89334 15.3068 7.05334 15.3068C7.69334 15.3068 8.30667 15.6801 8.6 16.2935C8.52 16.3468 8.44 16.4002 8.36 16.4535C8.33334 16.4802 8.28 16.5069 8.25334 16.5335C8.09334 16.6402 7.96 16.7468 7.82667 16.8535C7.74667 16.9068 7.69334 16.9602 7.64 17.0402C7.56 17.0935 7.50667 17.1735 7.42667 17.2535C7.16 17.5202 6.94667 17.8402 6.76 18.1602C6.73334 18.1868 6.73334 18.2402 6.70667 18.2668C6.57334 18.5068 6.46667 18.7735 6.36 19.0402L5.90667 19.1202ZM11 21.1468V27.2535C11 28.1868 10.2267 28.9601 9.29333 28.9601C8.36 28.9601 7.58667 28.1868 7.58667 27.2535V20.4268C7.58667 20.1868 7.61334 19.9735 7.66667 19.7602C7.66667 19.7602 7.66667 19.7601 7.66667 19.7335C7.8 19.1468 8.09334 18.5868 8.52 18.1868C8.54667 18.1602 8.57334 18.1335 8.6 18.1069C8.65334 18.0535 8.73334 18.0002 8.78667 17.9469C8.84 17.8935 8.89334 17.8668 8.94667 17.8135C9 17.7868 9.05334 17.7335 9.10667 17.7069C9.21334 17.6269 9.34667 17.5735 9.48 17.5202C9.53334 17.4935 9.61334 17.4669 9.69334 17.4402H9.72L12.2 16.6935C12.36 16.6402 12.52 16.6135 12.68 16.6135C12.9467 16.6135 13.24 16.6935 13.48 16.8268C13.88 17.0402 14.1733 17.4135 14.3067 17.8402C14.36 18.0002 14.3867 18.1868 14.3867 18.3468H14.36C14.2267 18.4002 14.0933 18.4268 13.96 18.5068C13.08 18.9068 12.3867 19.5468 11.88 20.3468L11.5333 20.4535C11.2133 20.5069 11 20.8001 11 21.1468ZM16.6267 22.7735C16.3067 22.8802 16.0933 23.1735 16.0933 23.4935V29.6002C16.0933 30.5335 15.32 31.3068 14.3867 31.3068C13.4533 31.3068 12.68 30.5335 12.68 29.6002V22.7735C12.68 22.2402 12.8133 21.7601 13.0533 21.3068C13.2133 20.9868 13.4267 20.7202 13.6933 20.4535C13.6933 20.4535 13.6933 20.4535 13.72 20.4268C13.8267 20.3202 13.96 20.2135 14.0933 20.1335C14.12 20.1335 14.12 20.1069 14.1467 20.1069C14.28 20.0002 14.44 19.9202 14.6 19.8669C14.68 19.8402 14.7333 19.8135 14.8133 19.7869L15.2933 19.6535L17.32 19.0402C17.48 18.9869 17.64 18.9601 17.8 18.9601C18.52 18.9601 19.2133 19.4402 19.4267 20.1602C19.48 20.3735 19.5067 20.6135 19.48 20.8535C19.32 20.9335 19.16 21.0135 19 21.1202C18.7867 21.2535 18.6 21.3869 18.44 21.5202L18.4133 21.5468C18.0933 21.8401 17.8 22.1602 17.56 22.5068L16.6267 22.7735ZM21.64 25.8402V31.9469C21.64 32.8802 20.8667 33.6535 19.9333 33.6535C19 33.6535 18.2267 32.8802 18.2267 31.9469V25.1202C18.2267 24.5335 18.3867 24.0002 18.6533 23.5202C18.8133 23.2269 19.0267 22.9602 19.2667 22.7468C19.3733 22.6402 19.5067 22.5601 19.6133 22.4801C19.64 22.4801 19.64 22.4535 19.6667 22.4535C19.8 22.3735 19.9333 22.2935 20.0933 22.2135C20.1467 22.1868 20.2 22.1602 20.28 22.1602H20.3067L22.8133 21.4135C22.9733 21.3602 23.1333 21.3335 23.2933 21.3335C24.0133 21.3335 24.7067 21.8135 24.92 22.5335C25.0533 22.9602 25 23.4402 24.7867 23.8402C24.5733 24.2402 24.2 24.5335 23.7733 24.6668L22.12 25.1468C21.8533 25.2268 21.64 25.5202 21.64 25.8402ZM23.1333 29.2002V26.4001L24.2267 26.0802C25.0533 25.8402 25.72 25.2802 26.12 24.5335C26.52 23.7869 26.6267 22.9069 26.36 22.1069C25.8533 20.4269 24.0667 19.4402 22.3867 19.9469L20.9467 20.3735C20.92 20.1602 20.8933 19.9468 20.84 19.7335C20.3333 18.0535 18.5467 17.0935 16.8667 17.5735L15.8533 17.8669C15.8267 17.7069 15.8 17.5202 15.7467 17.3602C15.5067 16.5335 14.9467 15.8668 14.2 15.4668C13.4533 15.0668 12.5733 14.9601 11.7733 15.2268L10.0133 15.7602C9.4 14.2668 7.72 13.4402 6.14667 13.9202L3.74667 14.6401V8.53353L25.8267 17.3602C26.6 17.6535 27.4 17.8668 28.2 17.9202V31.2002L23.1333 29.2002ZM29.6933 31.2268V17.9469C30.4933 17.8669 31.2933 17.6801 32.0667 17.3868L54.1467 8.56014V14.6401L51.8533 13.9469C50.28 13.4669 48.6 14.2935 47.9867 15.7869L46.2267 15.2535C45.4 15.0135 44.5467 15.0935 43.8 15.4935C43.0533 15.8935 42.4933 16.5868 42.2533 17.3868C42.2 17.5468 42.1733 17.7068 42.1467 17.8935L41.1333 17.6002C39.4533 17.0935 37.6667 18.0535 37.16 19.7602C37.1067 19.9735 37.0533 20.1868 37.0533 20.4001L35.6133 19.9735C33.9333 19.4668 32.1467 20.4268 31.64 22.1335C31.1333 23.8135 32.0933 25.6002 33.8 26.1069L34.8933 26.4268V29.1735L29.6933 31.2268ZM39.7733 31.9469C39.7733 32.8802 39 33.6535 38.0667 33.6535C37.1333 33.6535 36.36 32.8802 36.36 31.9469V25.8402C36.36 25.5202 36.1467 25.2269 35.8267 25.1202L34.1733 24.6401C33.7467 24.5068 33.3733 24.2135 33.16 23.8135C32.9467 23.4135 32.8933 22.9602 33.0267 22.5068C33.24 21.7602 33.9333 21.3068 34.6533 21.3068C34.8133 21.3068 34.9733 21.3335 35.1333 21.3868L37.64 22.1335C37.6667 22.1335 37.72 22.1602 37.7467 22.1602C37.7733 22.1602 37.8267 22.1868 37.8533 22.1868C37.8533 22.1868 37.8533 22.1868 37.88 22.1868C38.0133 22.2402 38.1467 22.3201 38.28 22.4001C38.3067 22.4001 38.3067 22.4268 38.3333 22.4268C38.44 22.5068 38.5733 22.5869 38.68 22.6935C38.92 22.9069 39.1333 23.1735 39.2933 23.4668C39.56 23.9468 39.72 24.4801 39.72 25.0668V31.9469H39.7733ZM45.32 29.6002C45.32 30.5335 44.5467 31.3068 43.6133 31.3068C42.68 31.3068 41.9067 30.5335 41.9067 29.6002V23.4935C41.9067 23.1735 41.6933 22.8802 41.3733 22.7735L40.4667 22.5068C40.2267 22.1602 39.9333 21.8135 39.6133 21.5468C39.56 21.4935 39.5067 21.4669 39.4533 21.4402C39.32 21.3335 39.16 21.2269 39 21.1202C38.84 21.0402 38.7067 20.9335 38.5467 20.8801C38.52 20.6401 38.5467 20.4268 38.6 20.1868C38.8667 19.2802 39.8267 18.7735 40.7067 19.0402L42.7333 19.6535L43.2133 19.7869C43.2933 19.8135 43.3467 19.8402 43.4267 19.8669C43.4267 19.8669 43.4267 19.8669 43.4533 19.8669C43.6133 19.9469 43.7467 20.0269 43.88 20.1069C43.9067 20.1069 43.9067 20.1335 43.9333 20.1335C44.0667 20.2135 44.1733 20.3202 44.3067 20.4268C44.3067 20.4268 44.3067 20.4269 44.3333 20.4535C44.5733 20.6935 44.7867 20.9869 44.9733 21.2802C45.2133 21.7335 45.3467 22.2402 45.3467 22.7468V29.6002H45.32ZM50.3867 27.2535C50.3867 28.1868 49.6133 28.9601 48.68 28.9601C47.7467 28.9601 46.9733 28.1868 46.9733 27.2535V21.1468C46.9733 20.8268 46.76 20.5335 46.44 20.4268L46.0933 20.3202C45.6133 19.5202 44.8933 18.8801 44.0133 18.4801C43.88 18.4268 43.7467 18.3735 43.6133 18.3202H43.5867C43.5867 18.1335 43.6133 17.9735 43.6667 17.8135C43.8 17.3868 44.0933 17.0135 44.4933 16.8001C44.8933 16.5868 45.3467 16.5335 45.8 16.6668L48.3067 17.4135C48.3867 17.4402 48.44 17.4668 48.52 17.4935C48.6533 17.5468 48.76 17.6268 48.8933 17.6802C48.9467 17.7068 49 17.7335 49.0267 17.7869C49.08 17.8402 49.16 17.8668 49.2133 17.9202C49.2667 17.9735 49.3467 18.0268 49.4 18.0802C49.4267 18.1068 49.4533 18.1335 49.48 18.1602C49.88 18.5868 50.2 19.1202 50.3333 19.7069C50.3333 19.7069 50.3333 19.7068 50.3333 19.7335C50.3867 19.9468 50.4133 20.1601 50.4133 20.4001V27.2535H50.3867ZM56.0133 25.1735C56.0133 26.1068 55.24 26.8801 54.3067 26.8801C53.3733 26.8801 52.6 26.1068 52.6 25.1735V19.8402C52.6 19.5202 52.3867 19.2269 52.0667 19.1202L51.64 18.9868C51.56 18.7201 51.4267 18.4535 51.2933 18.2135C51.2667 18.1868 51.2667 18.1335 51.24 18.1069C51.0533 17.7869 50.8133 17.4669 50.5733 17.2002C50.4933 17.1202 50.44 17.0668 50.36 16.9868C50.3067 16.9335 50.2267 16.8802 50.1733 16.8268C50.04 16.7202 49.88 16.6135 49.7467 16.5068C49.72 16.4802 49.6667 16.4535 49.64 16.4268C49.56 16.3735 49.48 16.3202 49.4 16.2668C49.7467 15.5202 50.6 15.1202 51.4267 15.3602L53.9333 16.1069C54.0133 16.1335 54.0667 16.1602 54.1467 16.1868C55.2933 16.6935 56.04 17.8402 56.04 19.0935V25.1735H56.0133Z" fill="white"/>
</g>
</svg>
