<svg xmlns="http://www.w3.org/2000/svg" width="60" height="60" viewBox="0 0 60 60" fill="none">
  <path d="M35.9189 7.68057V17.4519C35.9189 18.4979 36.7669 19.346 37.813 19.346H47.5844M22.0301 7.5083H14.1375C13.091 7.5083 12.2438 8.35674 12.2438 9.40205V50.5981C12.2438 51.6435 13.091 52.4919 14.1375 52.4919H37.0629" stroke="#606564" stroke-width="1.75781" stroke-miterlimit="10" stroke-linecap="round" stroke-linejoin="round"/>
  <path d="M26.1317 7.5083H35.134C35.6367 7.5083 36.1184 7.70752 36.4734 8.0626L47.202 18.7911C47.557 19.1462 47.7563 19.6278 47.7563 20.1306V50.5981C47.7563 51.6435 46.909 52.4919 45.8625 52.4919H41.1645" stroke="#606564" stroke-width="1.75781" stroke-miterlimit="10" stroke-linecap="round" stroke-linejoin="round"/>
  <path d="M31.1836 22.023V22.9289C31.1836 23.5699 30.8379 24.1617 30.2789 24.4769L24.9515 27.4734C24.6856 27.6226 24.3858 27.701 24.0808 27.701C23.7759 27.701 23.476 27.6226 23.2101 27.4734L17.8839 24.4769C17.6092 24.3224 17.3805 24.0977 17.2213 23.8256C17.0621 23.5536 16.9782 23.2441 16.9781 22.9289V17.0156C16.9781 16.3734 17.3238 15.7828 17.8839 15.4675L23.2101 12.471C23.476 12.3218 23.7759 12.2434 24.0808 12.2434C24.3858 12.2434 24.6856 12.3218 24.9515 12.471L30.2789 15.4675C30.8379 15.7828 31.1836 16.3734 31.1836 17.0156V17.9214" stroke="url(#paint0_linear_0_11500)" stroke-width="1.75781" stroke-miterlimit="10" stroke-linecap="round" stroke-linejoin="round"/>
  <path d="M20.293 21.4855V18.4587C20.293 18.2906 20.3377 18.1256 20.4225 17.9806C20.5073 17.8355 20.6292 17.7157 20.7757 17.6333L23.6168 16.0352C23.7585 15.9555 23.9184 15.9136 24.0811 15.9136C24.2437 15.9136 24.4036 15.9555 24.5454 16.0352L27.3864 17.6333C27.5329 17.7157 27.6548 17.8355 27.7396 17.9806C27.8244 18.1256 27.8692 18.2906 27.8691 18.4587V21.4855C27.8692 21.6535 27.8244 21.8185 27.7396 21.9636C27.6548 22.1086 27.5329 22.2285 27.3864 22.3108L24.5454 23.9089C24.4036 23.9887 24.2437 24.0306 24.0811 24.0306C23.9184 24.0306 23.7585 23.9887 23.6168 23.9089L20.7757 22.3108C20.6292 22.2285 20.5073 22.1086 20.4225 21.9636C20.3376 21.8185 20.2929 21.6535 20.293 21.4855Z" stroke="url(#paint1_linear_0_11500)" stroke-width="1.75781" stroke-miterlimit="10" stroke-linecap="round" stroke-linejoin="round"/>
  <path d="M16.9783 31.3423H43.0216M16.9783 34.8937H43.0216M16.9783 38.445H43.0216M16.9783 41.9964H30" stroke="#606564" stroke-width="1.75781" stroke-miterlimit="10" stroke-linecap="round" stroke-linejoin="round"/>
  <path d="M31.1041 46.8571C31.6572 45.654 32.5142 44.6158 33.5907 43.8447C33.9537 43.5855 34.3922 43.3491 34.8261 43.4526C35.1607 43.5323 35.4221 43.8063 35.572 44.1158C35.7219 44.4253 35.777 44.7707 35.8304 45.1105C36.0944 44.6689 36.3832 44.2263 36.7976 43.9215C37.2119 43.6167 37.7808 43.473 38.2505 43.683C38.7201 43.893 38.9939 44.5252 38.7201 44.9607L43.0217 43.9675" stroke="url(#paint2_linear_0_11500)" stroke-width="1.75781" stroke-miterlimit="10" stroke-linecap="round" stroke-linejoin="round"/>
  <path d="M56.7535 22.8703C58.0611 22.8703 59.1211 21.8103 59.1211 20.5028C59.1211 19.1952 58.0611 18.1353 56.7535 18.1353C55.446 18.1353 54.386 19.1952 54.386 20.5028C54.386 21.8103 55.446 22.8703 56.7535 22.8703Z" stroke="url(#paint3_linear_0_11500)" stroke-width="1.75781" stroke-miterlimit="10" stroke-linecap="round" stroke-linejoin="round"/>
  <path d="M56.7535 41.8647C58.0611 41.8647 59.1211 40.8047 59.1211 39.4972C59.1211 38.1896 58.0611 37.1296 56.7535 37.1296C55.446 37.1296 54.386 38.1896 54.386 39.4972C54.386 40.8047 55.446 41.8647 56.7535 41.8647Z" stroke="url(#paint4_linear_0_11500)" stroke-width="1.75781" stroke-miterlimit="10" stroke-linecap="round" stroke-linejoin="round"/>
  <path d="M56.7535 32.3945C58.0611 32.3945 59.1211 31.3345 59.1211 30.027C59.1211 28.7194 58.0611 27.6594 56.7535 27.6594C55.446 27.6594 54.386 28.7194 54.386 30.027C54.386 31.3345 55.446 32.3945 56.7535 32.3945Z" stroke="url(#paint5_linear_0_11500)" stroke-width="1.75781" stroke-miterlimit="10" stroke-linecap="round" stroke-linejoin="round"/>
  <path d="M54.386 20.5027H52.3225L50.83 21.9953H47.7567M54.386 39.5509H52.3225L50.83 38.0583H47.7567M54.386 30.0269H47.7567" stroke="#606564" stroke-width="1.75781" stroke-miterlimit="10" stroke-linecap="round" stroke-linejoin="round"/>
  <path d="M3.24645 22.8703C4.554 22.8703 5.61398 21.8103 5.61398 20.5028C5.61398 19.1952 4.554 18.1353 3.24645 18.1353C1.93889 18.1353 0.878906 19.1952 0.878906 20.5028C0.878906 21.8103 1.93889 22.8703 3.24645 22.8703Z" stroke="url(#paint6_linear_0_11500)" stroke-width="1.75781" stroke-miterlimit="10" stroke-linecap="round" stroke-linejoin="round"/>
  <path d="M3.24645 41.8647C4.554 41.8647 5.61398 40.8047 5.61398 39.4972C5.61398 38.1896 4.554 37.1296 3.24645 37.1296C1.93889 37.1296 0.878906 38.1896 0.878906 39.4972C0.878906 40.8047 1.93889 41.8647 3.24645 41.8647Z" stroke="url(#paint7_linear_0_11500)" stroke-width="1.75781" stroke-miterlimit="10" stroke-linecap="round" stroke-linejoin="round"/>
  <path d="M3.24645 32.3945C4.554 32.3945 5.61398 31.3345 5.61398 30.027C5.61398 28.7194 4.554 27.6594 3.24645 27.6594C1.93889 27.6594 0.878906 28.7194 0.878906 30.027C0.878906 31.3345 1.93889 32.3945 3.24645 32.3945Z" stroke="url(#paint8_linear_0_11500)" stroke-width="1.75781" stroke-miterlimit="10" stroke-linecap="round" stroke-linejoin="round"/>
  <path d="M5.61414 20.5027H7.67757L9.17007 21.9953H12.2433M5.61414 39.5509H7.67757L9.17007 38.0583H12.2433M5.61414 30.0269H12.2433" stroke="#606564" stroke-width="1.75781" stroke-miterlimit="10" stroke-linecap="round" stroke-linejoin="round"/>
  <defs>
    <linearGradient id="paint0_linear_0_11500" x1="16.9781" y1="13.4328" x2="26.3413" y2="10.7142" gradientUnits="userSpaceOnUse">
      <stop stop-color="#18A4FF"/>
      <stop offset="1" stop-color="#05C37F"/>
    </linearGradient>
    <linearGradient id="paint1_linear_0_11500" x1="20.293" y1="16.5381" x2="25.2744" y2="15.0691" gradientUnits="userSpaceOnUse">
      <stop stop-color="#18A4FF"/>
      <stop offset="1" stop-color="#05C37F"/>
    </linearGradient>
    <linearGradient id="paint2_linear_0_11500" x1="31.1041" y1="43.6916" x2="34.9661" y2="39.4514" gradientUnits="userSpaceOnUse">
      <stop stop-color="#18A4FF"/>
      <stop offset="1" stop-color="#05C37F"/>
    </linearGradient>
    <linearGradient id="paint3_linear_0_11500" x1="54.386" y1="18.4996" x2="57.463" y2="17.5274" gradientUnits="userSpaceOnUse">
      <stop stop-color="#18A4FF"/>
      <stop offset="1" stop-color="#05C37F"/>
    </linearGradient>
    <linearGradient id="paint4_linear_0_11500" x1="54.386" y1="37.494" x2="57.463" y2="36.5218" gradientUnits="userSpaceOnUse">
      <stop stop-color="#18A4FF"/>
      <stop offset="1" stop-color="#05C37F"/>
    </linearGradient>
    <linearGradient id="paint5_linear_0_11500" x1="54.386" y1="28.0238" x2="57.463" y2="27.0516" gradientUnits="userSpaceOnUse">
      <stop stop-color="#18A4FF"/>
      <stop offset="1" stop-color="#05C37F"/>
    </linearGradient>
    <linearGradient id="paint6_linear_0_11500" x1="0.878906" y1="18.4996" x2="3.95591" y2="17.5274" gradientUnits="userSpaceOnUse">
      <stop stop-color="#18A4FF"/>
      <stop offset="1" stop-color="#05C37F"/>
    </linearGradient>
    <linearGradient id="paint7_linear_0_11500" x1="0.878906" y1="37.494" x2="3.95591" y2="36.5218" gradientUnits="userSpaceOnUse">
      <stop stop-color="#18A4FF"/>
      <stop offset="1" stop-color="#05C37F"/>
    </linearGradient>
    <linearGradient id="paint8_linear_0_11500" x1="0.878906" y1="28.0238" x2="3.95591" y2="27.0516" gradientUnits="userSpaceOnUse">
      <stop stop-color="#18A4FF"/>
      <stop offset="1" stop-color="#05C37F"/>
    </linearGradient>
  </defs>
</svg>