<svg xmlns="http://www.w3.org/2000/svg" width="158" height="130" viewBox="0 0 158 130" fill="none">
  <path d="M0.692134 2.97878C0.692164 2.97878 0.692285 2.97878 0.661996 1.97924C0.631707 0.979697 0.632013 0.979688 0.632412 0.979676L0.637842 0.979517L0.652758 0.979105L0.708507 0.977718C0.757049 0.976587 0.828157 0.975106 0.920688 0.973632C1.10574 0.970686 1.37653 0.967773 1.72389 0.967773C2.41853 0.967773 3.41994 0.979422 4.65478 1.0258C7.123 1.1185 10.5313 1.35023 14.2908 1.90719C21.7546 3.01295 30.8243 5.43032 36.5632 10.7866C39.6153 13.6353 40.5115 17.6518 40.2612 21.872C40.1502 23.7423 39.8135 25.6811 39.3234 27.6237C40.653 25.9867 42.0066 24.5162 43.3818 23.2218C49.3729 17.5822 55.8871 15.1942 62.5773 17.1619C66.1005 18.1981 68.7475 21.3071 70.6445 25.4429C72.5518 29.601 73.7849 34.9693 74.3875 40.8567C75.5928 52.6312 74.2989 66.7159 70.5811 77.8694C64.6371 95.7012 61.1021 102.75 54.925 113.501C69.5276 98.2421 88.9193 84.6611 106.315 74.5522C116.412 68.6844 125.863 63.9716 133.352 60.7683C137.096 59.1671 140.362 57.9375 142.983 57.1294C145.552 56.3372 147.642 55.9026 148.958 56.0123C151.156 56.1954 152.814 56.3803 154.033 56.6581C155.234 56.9316 156.208 57.3355 156.827 58.1112C157.457 58.9008 157.555 59.8706 157.529 60.8354C157.511 61.458 157.433 62.2111 157.345 63.0534L157.345 63.0553C157.3 63.4931 157.252 63.9557 157.208 64.4359L155.216 64.2562C155.268 63.6876 155.32 63.1856 155.367 62.735C155.449 61.956 155.514 61.3307 155.529 60.7803C155.553 59.9295 155.434 59.5722 155.264 59.3584C155.082 59.1308 154.673 58.8551 153.589 58.6081C152.524 58.3655 150.996 58.1891 148.792 58.0053C147.906 57.9316 146.156 58.2437 143.572 59.0406C141.04 59.8214 137.843 61.0229 134.139 62.6071C126.733 65.7745 117.356 70.4492 107.32 76.2814C87.2298 87.9561 64.6018 104.21 49.8617 122.21L48.2226 121.076C48.9562 119.809 49.6547 118.607 50.3224 117.458C58.3654 103.62 61.9389 97.4713 68.6837 77.2369C72.3031 66.3786 73.5773 52.5816 72.3979 41.0603C71.8083 35.2998 70.6109 30.1666 68.8266 26.2767C67.0321 22.3644 64.7264 19.8787 62.0129 19.0806C56.2297 17.3797 50.4243 19.3392 44.7526 24.678C42.2216 27.0605 39.7406 30.0977 37.3346 33.7368C37.1917 34.1028 37.0458 34.4663 36.8975 34.8269C35.1776 39.0105 33.1132 42.8595 31.4828 45.6579C30.6666 47.0587 29.9571 48.1997 29.4507 48.992C29.1975 49.3882 28.9949 49.6974 28.855 49.9084C28.785 50.014 28.7307 50.095 28.6936 50.15L28.651 50.2131L28.6397 50.2297L28.6357 50.2355C28.6354 50.2359 28.6352 50.2362 27.8099 49.6715L28.6357 50.2355L26.8915 49.2759C29.6022 42.9835 32.4994 37.4532 35.5475 32.814C36.9807 29.1079 38.0569 25.2568 38.2647 21.7536C38.4959 17.857 37.6495 14.5362 35.1986 12.2488C29.9316 7.33289 21.3918 4.98103 13.9977 3.8856C10.3282 3.34197 6.99537 3.11512 4.57971 3.02439C3.37262 2.97905 2.3964 2.96777 1.72389 2.96777C1.38769 2.96777 1.12753 2.97059 0.952525 2.97338C0.865028 2.97477 0.798831 2.97616 0.755074 2.97718L0.706417 2.97839L0.694982 2.9787L0.692134 2.97878Z" fill="url(#paint0_linear_0_11570)"/>
  <path d="M80.0158 73.1019L112.3 47.4215L113.545 48.9867L81.2608 74.6671L80.0158 73.1019Z" fill="url(#paint1_linear_0_11570)"/>
  <path d="M148.988 123.519C115.312 119.685 98.1574 120.56 70.8632 127.209L71.3365 129.152C98.3644 122.568 115.278 121.694 148.762 125.506L148.988 123.519Z" fill="url(#paint2_linear_0_11570)"/>
  <defs>
    <linearGradient id="paint0_linear_0_11570" x1="0.632323" y1="10.8306" x2="98.18" y2="-26.8926" gradientUnits="userSpaceOnUse">
      <stop stop-color="#18A4FF"/>
      <stop offset="1" stop-color="#05C37F"/>
    </linearGradient>
    <linearGradient id="paint1_linear_0_11570" x1="0.632323" y1="10.8306" x2="98.18" y2="-26.8926" gradientUnits="userSpaceOnUse">
      <stop stop-color="#18A4FF"/>
      <stop offset="1" stop-color="#05C37F"/>
    </linearGradient>
    <linearGradient id="paint2_linear_0_11570" x1="0.632323" y1="10.8306" x2="98.18" y2="-26.8926" gradientUnits="userSpaceOnUse">
      <stop stop-color="#18A4FF"/>
      <stop offset="1" stop-color="#05C37F"/>
    </linearGradient>
  </defs>
</svg>