<svg xmlns="http://www.w3.org/2000/svg" width="60" height="60" viewBox="0 0 60 60" fill="none">
  <path d="M38.3191 55.7764H13.3276C12.6804 55.7764 12.1558 55.2517 12.1558 54.6045V53.1661C12.1558 51.5481 13.4674 50.2365 15.0854 50.2365H44.9143C46.5323 50.2365 47.8439 51.5481 47.8439 53.1661V54.6045C47.8439 55.2517 47.3193 55.7764 46.6721 55.7764H42.1496" stroke="#606564" stroke-width="1.75781" stroke-miterlimit="10" stroke-linecap="round" stroke-linejoin="round"/>
  <path d="M37.2926 41.681L40.3296 50.2363" stroke="#606564" stroke-width="1.75781" stroke-miterlimit="10" stroke-linecap="round" stroke-linejoin="round"/>
  <path d="M19.6702 50.2363L22.7072 41.681" stroke="#606564" stroke-width="1.75781" stroke-miterlimit="10" stroke-linecap="round" stroke-linejoin="round"/>
  <path d="M42.7062 4.22392H2.63671C1.66594 4.22392 0.878906 5.01095 0.878906 5.98173V39.9233C0.878906 40.8941 1.66594 41.6812 2.63671 41.6812H57.3631C58.3339 41.6812 59.1209 40.8941 59.1209 39.9233V5.98173C59.1209 5.01095 58.3339 4.22392 57.3631 4.22392H46.5367" stroke="#606564" stroke-width="1.75781" stroke-miterlimit="10" stroke-linecap="round" stroke-linejoin="round"/>
  <path d="M15.6923 18.0755C15.6923 18.0755 14.4838 17.0597 13.059 17.489C11.7505 17.8831 11.5675 19.3917 12.514 20.009C12.514 20.009 13.443 20.4233 14.4732 20.8034C16.9532 21.7181 15.8849 24.1174 13.8884 24.1174C12.8887 24.1174 12.0496 23.6796 11.5417 23.1192" stroke="url(#paint0_linear_0_11484)" stroke-width="1.75781" stroke-miterlimit="10" stroke-linecap="round" stroke-linejoin="round"/>
  <path d="M13.7283 24.1174V25.5" stroke="url(#paint1_linear_0_11484)" stroke-width="1.75781" stroke-miterlimit="10" stroke-linecap="round" stroke-linejoin="round"/>
  <path d="M13.7283 16.0008V17.3833" stroke="url(#paint2_linear_0_11484)" stroke-width="1.75781" stroke-miterlimit="10" stroke-linecap="round" stroke-linejoin="round"/>
  <path d="M48.2355 18.0755C48.2355 18.0755 47.0271 17.0597 45.6022 17.489C44.2937 17.8831 44.1107 19.3917 45.0573 20.009C45.0573 20.009 45.9862 20.4233 47.0164 20.8034C49.4964 21.7181 48.4282 24.1174 46.4316 24.1174C45.4319 24.1174 44.5929 23.6796 44.085 23.1192" stroke="url(#paint3_linear_0_11484)" stroke-width="1.75781" stroke-miterlimit="10" stroke-linecap="round" stroke-linejoin="round"/>
  <path d="M46.2716 24.1174V25.5" stroke="url(#paint4_linear_0_11484)" stroke-width="1.75781" stroke-miterlimit="10" stroke-linecap="round" stroke-linejoin="round"/>
  <path d="M46.2716 16.0008V17.3833" stroke="url(#paint5_linear_0_11484)" stroke-width="1.75781" stroke-miterlimit="10" stroke-linecap="round" stroke-linejoin="round"/>
  <path d="M43.1438 28.8623H49.3992" stroke="#606564" stroke-width="1.75781" stroke-miterlimit="10" stroke-linecap="round" stroke-linejoin="round"/>
  <path d="M10.6005 28.8623H16.8559" stroke="#606564" stroke-width="1.75781" stroke-miterlimit="10" stroke-linecap="round" stroke-linejoin="round"/>
  <path d="M32.2991 16.5766C32.2991 16.5766 30.8848 15.3878 29.2171 15.8903C27.6859 16.3515 27.4718 18.1172 28.5795 18.8395C28.5795 18.8395 29.6667 19.3244 30.8724 19.7692C33.7748 20.8398 32.5245 23.6477 30.188 23.6477C29.0179 23.6477 28.036 23.1352 27.4415 22.4793" stroke="url(#paint6_linear_0_11484)" stroke-width="1.75781" stroke-miterlimit="10" stroke-linecap="round" stroke-linejoin="round"/>
  <path d="M30.0005 23.6476V25.2656" stroke="url(#paint7_linear_0_11484)" stroke-width="1.75781" stroke-miterlimit="10" stroke-linecap="round" stroke-linejoin="round"/>
  <path d="M30.0005 14.1484V15.7664" stroke="url(#paint8_linear_0_11484)" stroke-width="1.75781" stroke-miterlimit="10" stroke-linecap="round" stroke-linejoin="round"/>
  <path d="M25.1302 27.9834H34.8708" stroke="#606564" stroke-width="1.75781" stroke-miterlimit="10" stroke-linecap="round" stroke-linejoin="round"/>
  <path d="M25.1302 31.2581H34.8708" stroke="#606564" stroke-width="1.75781" stroke-miterlimit="10" stroke-linecap="round" stroke-linejoin="round"/>
  <path d="M40.3296 12.7435H52.0898C52.737 12.7435 53.2617 13.2682 53.2617 13.9154V31.9895C53.2617 32.6367 52.737 33.1614 52.0898 33.1614H40.3296" stroke="#606564" stroke-width="1.75781" stroke-miterlimit="10" stroke-linecap="round" stroke-linejoin="round"/>
  <path d="M19.6702 33.1614H7.91003C7.26281 33.1614 6.73816 32.6366 6.73816 31.9895V13.9154C6.73816 13.268 7.26281 12.7435 7.91003 12.7435H19.4554" stroke="#606564" stroke-width="1.75781" stroke-miterlimit="10" stroke-linecap="round" stroke-linejoin="round"/>
  <path d="M28.2172 10.8133H38.8675C39.5148 10.8133 40.0394 11.338 40.0394 11.9852V33.9197C40.0394 34.5668 39.5148 35.0916 38.8675 35.0916H21.1322C20.485 35.0916 19.9603 34.5668 19.9603 33.9197V11.9852C19.9603 11.338 20.485 10.8133 21.1322 10.8133H24.3867" stroke="#606564" stroke-width="1.75781" stroke-miterlimit="10" stroke-linecap="round" stroke-linejoin="round"/>
  <defs>
    <linearGradient id="paint0_linear_0_11484" x1="11.5417" y1="23.5993" x2="14.5409" y2="24.2146" gradientUnits="userSpaceOnUse">
      <stop stop-color="#18A4FF"/>
      <stop offset="1" stop-color="#05C37F"/>
    </linearGradient>
    <linearGradient id="paint1_linear_0_11484" x1="13.7283" y1="25.3936" x2="14.4075" y2="25.5488" gradientUnits="userSpaceOnUse">
      <stop stop-color="#18A4FF"/>
      <stop offset="1" stop-color="#05C37F"/>
    </linearGradient>
    <linearGradient id="paint2_linear_0_11484" x1="13.7283" y1="17.2769" x2="14.4075" y2="17.4322" gradientUnits="userSpaceOnUse">
      <stop stop-color="#18A4FF"/>
      <stop offset="1" stop-color="#05C37F"/>
    </linearGradient>
    <linearGradient id="paint3_linear_0_11484" x1="44.085" y1="23.5993" x2="47.0841" y2="24.2146" gradientUnits="userSpaceOnUse">
      <stop stop-color="#18A4FF"/>
      <stop offset="1" stop-color="#05C37F"/>
    </linearGradient>
    <linearGradient id="paint4_linear_0_11484" x1="46.2716" y1="25.3936" x2="46.9508" y2="25.5488" gradientUnits="userSpaceOnUse">
      <stop stop-color="#18A4FF"/>
      <stop offset="1" stop-color="#05C37F"/>
    </linearGradient>
    <linearGradient id="paint5_linear_0_11484" x1="46.2716" y1="17.2769" x2="46.9508" y2="17.4322" gradientUnits="userSpaceOnUse">
      <stop stop-color="#18A4FF"/>
      <stop offset="1" stop-color="#05C37F"/>
    </linearGradient>
    <linearGradient id="paint6_linear_0_11484" x1="27.4415" y1="23.0413" x2="30.9516" y2="23.7615" gradientUnits="userSpaceOnUse">
      <stop stop-color="#18A4FF"/>
      <stop offset="1" stop-color="#05C37F"/>
    </linearGradient>
    <linearGradient id="paint7_linear_0_11484" x1="30.0005" y1="25.1411" x2="30.6889" y2="25.2756" gradientUnits="userSpaceOnUse">
      <stop stop-color="#18A4FF"/>
      <stop offset="1" stop-color="#05C37F"/>
    </linearGradient>
    <linearGradient id="paint8_linear_0_11484" x1="30.0005" y1="15.6419" x2="30.6889" y2="15.7763" gradientUnits="userSpaceOnUse">
      <stop stop-color="#18A4FF"/>
      <stop offset="1" stop-color="#05C37F"/>
    </linearGradient>
  </defs>
</svg>