<svg width="64" height="64" viewBox="0 0 64 64" fill="none" xmlns="http://www.w3.org/2000/svg">
<path d="M19.1467 44.1602V4.16024C19.1467 3.73358 18.8 3.41357 18.4 3.41357H3.99999C3.57332 3.41357 3.25333 3.76024 3.25333 4.16024V44.1602C3.25333 44.5869 3.59999 44.9069 3.99999 44.9069H18.4C18.8267 44.9069 19.1467 44.5602 19.1467 44.1602ZM17.6533 43.4136H4.74665V4.90691H17.6533V43.4136Z" fill="white"/>
<path d="M11.2 14.5067C12.9333 14.5067 14.3466 13.0934 14.3466 11.36C14.3466 9.62671 12.9333 8.21338 11.2 8.21338C9.46665 8.21338 8.05331 9.62671 8.05331 11.36C8.05331 13.0934 9.46665 14.5067 11.2 14.5067ZM11.2 9.70671C12.1066 9.70671 12.8533 10.4534 12.8533 11.36C12.8533 12.2667 12.1066 13.0134 11.2 13.0134C10.2933 13.0134 9.54665 12.2667 9.54665 11.36C9.54665 10.4534 10.2933 9.70671 11.2 9.70671Z" fill="white"/>
<path d="M7.19998 30.5065H15.2C15.6266 30.5065 15.9466 30.1599 15.9466 29.7599C15.9466 29.3599 15.6 29.0132 15.2 29.0132H7.19998C6.77332 29.0132 6.45331 29.3599 6.45331 29.7599C6.45331 30.1599 6.77332 30.5065 7.19998 30.5065Z" fill="white"/>
<path d="M7.19998 35.3068H15.2C15.6266 35.3068 15.9466 34.9601 15.9466 34.5601C15.9466 34.1601 15.6 33.8135 15.2 33.8135H7.19998C6.77332 33.8135 6.45331 34.1601 6.45331 34.5601C6.45331 34.9601 6.77332 35.3068 7.19998 35.3068Z" fill="white"/>
<path d="M60 18.7734H45.6C45.1733 18.7734 44.8533 19.1201 44.8533 19.5201V59.5201C44.8533 59.9468 45.2 60.2668 45.6 60.2668H60C60.4267 60.2668 60.7467 59.9201 60.7467 59.5201V19.5201C60.7467 19.0934 60.4267 18.7734 60 18.7734ZM59.2533 58.7734H46.3467V20.2668H59.2533V58.7734Z" fill="white"/>
<path d="M52.8 29.8666C54.5333 29.8666 55.9467 28.4532 55.9467 26.7199C55.9467 24.9866 54.5333 23.5732 52.8 23.5732C51.0667 23.5732 49.6533 24.9866 49.6533 26.7199C49.6533 28.4532 51.0667 29.8666 52.8 29.8666ZM52.8 25.0666C53.7067 25.0666 54.4533 25.8132 54.4533 26.7199C54.4533 27.6266 53.7067 28.3732 52.8 28.3732C51.8933 28.3732 51.1467 27.6266 51.1467 26.7199C51.1467 25.8132 51.8933 25.0666 52.8 25.0666Z" fill="white"/>
<path d="M48.8 45.8669H56.8C57.2266 45.8669 57.5467 45.5202 57.5467 45.1202C57.5467 44.7202 57.2 44.3735 56.8 44.3735H48.8C48.3733 44.3735 48.0533 44.7202 48.0533 45.1202C48.0533 45.5202 48.3733 45.8669 48.8 45.8669Z" fill="white"/>
<path d="M48.8 50.6667H56.8C57.2266 50.6667 57.5467 50.32 57.5467 49.92C57.5467 49.52 57.2 49.1733 56.8 49.1733H48.8C48.3733 49.1733 48.0533 49.52 48.0533 49.92C48.0533 50.32 48.3733 50.6667 48.8 50.6667Z" fill="white"/>
<path d="M40.6933 57.6533C40.6933 57.6267 40.6933 57.6267 40.6933 57.6533C40.64 57.5467 40.5866 57.4667 40.5333 57.3867L38.2666 55.12C37.9733 54.8267 37.4933 54.8267 37.2 55.12C36.9066 55.4133 36.9066 55.8933 37.2 56.1867L38.1866 57.1733H13.76C12.7733 57.1733 11.9466 56.3733 11.9466 55.36V49.92C11.9466 49.4933 11.6 49.1733 11.2 49.1733C10.8 49.1733 10.4533 49.52 10.4533 49.92V55.36C10.4533 57.1733 11.9466 58.6667 13.76 58.6667H38.1866L37.2 59.6533C36.9066 59.9467 36.9066 60.4267 37.2 60.72C37.3333 60.8533 37.5467 60.9333 37.7333 60.9333C37.92 60.9333 38.1066 60.8533 38.2666 60.72L40.5333 58.4533C40.6133 58.3733 40.6666 58.2933 40.6933 58.2133C40.72 58.1333 40.7466 58.0267 40.7466 57.9467C40.7466 57.8133 40.72 57.7333 40.6933 57.6533Z" fill="white"/>
<path d="M23.3067 6.34673C23.3067 6.37339 23.3067 6.37339 23.3067 6.34673C23.36 6.45339 23.4133 6.53339 23.4667 6.61339L25.7333 8.88006C25.8667 9.01339 26.08 9.09339 26.2667 9.09339C26.4533 9.09339 26.64 9.01339 26.8 8.88006C27.0933 8.58673 27.0933 8.10673 26.8 7.81339L25.8133 6.82673H50.24C51.2267 6.82673 52.0533 7.62673 52.0533 8.64006V14.0801C52.0533 14.5067 52.4 14.8267 52.8 14.8267C53.2 14.8267 53.5467 14.4801 53.5467 14.0801V8.64006C53.5467 6.82673 52.0533 5.33339 50.24 5.33339H25.8133L26.8 4.34673C27.0933 4.05339 27.0933 3.57339 26.8 3.28006C26.5067 2.98673 26.0267 2.98673 25.7333 3.28006L23.4667 5.54673C23.3867 5.62673 23.3333 5.70673 23.3067 5.78673C23.28 5.86673 23.2533 5.97339 23.2533 6.05339C23.2533 6.18673 23.28 6.26673 23.3067 6.34673Z" fill="white"/>
</svg>
