<svg width="250" height="42" viewBox="0 0 250 42" fill="none" xmlns="http://www.w3.org/2000/svg">
<rect width="41.3793" height="41.3793" rx="8.62069" fill="url(#paint0_linear_0_11820)"/>
<path d="M14.7474 10.6976L11.5321 16.1818C11.0982 16.9383 11.0982 17.8631 11.5339 18.6196L14.7474 24.0982C15.1944 24.8454 16.0076 25.3078 16.8884 25.3152H23.0993C23.0993 22.9329 20.9996 21.4735 18.5787 21.4735H17.5101L15.3991 17.3988L17.7167 13.3241H21.7997C24.2187 13.3241 26.1813 11.8666 26.1813 9.48242H16.8865C16.0057 9.48982 15.1944 9.95223 14.7474 10.6976Z" fill="white"/>
<path d="M26.632 30.681L29.8473 25.1969C30.2811 24.4404 30.2811 23.5156 29.8454 22.7609L26.6338 17.2805C26.1868 16.5332 25.3736 16.0708 24.4928 16.0634H18.2819C18.2819 18.4457 20.5187 19.9051 22.9396 19.9051H23.8711L25.9803 23.9798L23.6627 28.0545H19.5797C17.1607 28.0545 15.198 29.512 15.198 31.8962H24.4928C25.3736 31.8888 26.185 31.4264 26.632 30.681Z" fill="white"/>
<path d="M69.1172 39.3653C63.6782 39.3653 59.5264 37.8527 56.6621 34.8274C53.8299 31.8021 52.4138 27.5055 52.4138 21.9377C52.4138 19.1699 52.8483 16.7078 53.7172 14.5515C54.5862 12.363 55.777 10.5285 57.2897 9.04807C58.8023 7.53543 60.6046 6.3929 62.6966 5.62049C64.7885 4.84807 67.0575 4.46187 69.5034 4.46187C70.9195 4.46187 72.2069 4.57451 73.3655 4.7998C74.5241 4.9929 75.5379 5.23428 76.4069 5.52394C77.2759 5.78141 78 6.05497 78.5793 6.34463C79.1586 6.63428 79.577 6.85957 79.8345 7.02049L77.6621 13.1032C76.6322 12.5561 75.4253 12.0895 74.0414 11.7032C72.6897 11.317 71.1448 11.1239 69.4069 11.1239C68.2483 11.1239 67.1057 11.317 65.9793 11.7032C64.8851 12.0895 63.9034 12.717 63.0345 13.586C62.1977 14.4228 61.5218 15.517 61.0069 16.8688C60.492 18.2205 60.2345 19.8619 60.2345 21.7929C60.2345 23.3377 60.3954 24.786 60.7172 26.1377C61.0713 27.4573 61.6184 28.5998 62.3586 29.5653C63.131 30.5308 64.1287 31.3032 65.3517 31.8826C66.5747 32.4297 68.0552 32.7032 69.7931 32.7032C70.8874 32.7032 71.869 32.6389 72.7379 32.5101C73.6069 32.3814 74.3793 32.2366 75.0552 32.0757C75.731 31.8826 76.3264 31.6734 76.8414 31.4481C77.3563 31.2228 77.823 31.0136 78.2414 30.8205L80.3172 36.855C79.2552 37.4986 77.7586 38.078 75.8276 38.5929C73.8966 39.1078 71.6598 39.3653 69.1172 39.3653ZM95.0915 32.9446C96.1536 32.9446 97.0226 32.8642 97.6984 32.7032C98.4065 32.5101 98.9697 32.2688 99.3881 31.9791C99.8065 31.6573 100.096 31.2872 100.257 30.8688C100.418 30.4504 100.498 29.9837 100.498 29.4688C100.498 28.3745 99.9835 27.4734 98.9536 26.7653C97.9237 26.0251 96.1536 25.2366 93.6433 24.3998C92.549 24.0136 91.4548 23.5791 90.3605 23.0963C89.2663 22.5814 88.2846 21.9538 87.4157 21.2136C86.5467 20.4412 85.8387 19.5239 85.2915 18.4619C84.7444 17.3676 84.4708 16.0481 84.4708 14.5032C84.4708 12.9584 84.7605 11.5745 85.3398 10.3515C85.9191 9.09635 86.7398 8.03428 87.8019 7.16531C88.864 6.29635 90.1513 5.63658 91.664 5.18601C93.1766 4.70325 94.8823 4.46187 96.7812 4.46187C99.0341 4.46187 100.981 4.70325 102.623 5.18601C104.264 5.66876 105.616 6.1998 106.678 6.77911L104.505 12.717C103.572 12.2343 102.526 11.8159 101.367 11.4619C100.241 11.0757 98.8731 10.8826 97.264 10.8826C95.4617 10.8826 94.1582 11.14 93.3536 11.655C92.5812 12.1377 92.195 12.8941 92.195 13.9239C92.195 14.5354 92.3398 15.0504 92.6295 15.4688C92.9191 15.8872 93.3214 16.2734 93.8364 16.6274C94.3835 16.9492 94.995 17.255 95.6708 17.5446C96.3789 17.8021 97.1513 18.0757 97.9881 18.3653C99.726 19.009 101.239 19.6527 102.526 20.2963C103.813 20.9078 104.875 21.632 105.712 22.4688C106.581 23.3055 107.225 24.2872 107.643 25.4136C108.062 26.54 108.271 27.9078 108.271 29.517C108.271 32.6389 107.177 35.0688 104.988 36.8067C102.8 38.5124 99.5007 39.3653 95.0915 39.3653C93.6111 39.3653 92.2754 39.2688 91.0846 39.0757C89.8938 38.9147 88.8318 38.7055 87.8984 38.4481C86.9973 38.1906 86.2088 37.917 85.5329 37.6274C84.8892 37.3377 84.3421 37.0642 83.8915 36.8067L86.0157 30.8205C87.0134 31.3676 88.2364 31.8665 89.6846 32.317C91.1651 32.7354 92.9674 32.9446 95.0915 32.9446ZM122.948 5.23428C123.528 6.29635 124.187 7.61589 124.928 9.1929C125.7 10.7377 126.488 12.4274 127.293 14.2619C128.13 16.0642 128.951 17.9147 129.755 19.8136C130.56 21.7124 131.316 23.4986 132.024 25.1722C132.732 23.4986 133.488 21.7124 134.293 19.8136C135.098 17.9147 135.902 16.0642 136.707 14.2619C137.544 12.4274 138.332 10.7377 139.072 9.1929C139.845 7.61589 140.521 6.29635 141.1 5.23428H147.955C148.277 7.45497 148.567 9.94922 148.824 12.717C149.114 15.4527 149.355 18.317 149.548 21.3101C149.774 24.2711 149.967 27.2481 150.128 30.2412C150.321 33.2343 150.482 36.0504 150.61 38.6895H143.272C143.176 35.4389 143.047 31.8986 142.886 28.0688C142.725 24.2389 142.484 20.3768 142.162 16.4826C141.583 17.8343 140.939 19.3308 140.231 20.9722C139.523 22.6136 138.815 24.255 138.107 25.8963C137.431 27.5377 136.771 29.1147 136.128 30.6274C135.484 32.1078 134.937 33.3791 134.486 34.4412H129.224C128.774 33.3791 128.226 32.1078 127.583 30.6274C126.939 29.1147 126.263 27.5377 125.555 25.8963C124.879 24.255 124.187 22.6136 123.479 20.9722C122.771 19.3308 122.128 17.8343 121.548 16.4826C121.226 20.3768 120.985 24.2389 120.824 28.0688C120.663 31.8986 120.534 35.4389 120.438 38.6895H113.1C113.229 36.0504 113.374 33.2343 113.534 30.2412C113.728 27.2481 113.921 24.2711 114.114 21.3101C114.339 18.317 114.58 15.4527 114.838 12.717C115.128 9.94922 115.433 7.45497 115.755 5.23428H122.948ZM179.791 38.6895C179.437 37.5308 179.035 36.34 178.584 35.117C178.166 33.8941 177.747 32.6711 177.329 31.4481H164.295C163.876 32.6711 163.442 33.8941 162.991 35.117C162.573 36.34 162.187 37.5308 161.833 38.6895H154.012C155.267 35.0849 156.458 31.7538 157.584 28.6963C158.711 25.6389 159.805 22.7584 160.867 20.055C161.961 17.3515 163.023 14.7929 164.053 12.3791C165.115 9.93313 166.21 7.55152 167.336 5.23428H174.529C175.623 7.55152 176.702 9.93313 177.764 12.3791C178.826 14.7929 179.888 17.3515 180.95 20.055C182.044 22.7584 183.154 25.6389 184.281 28.6963C185.407 31.7538 186.598 35.0849 187.853 38.6895H179.791ZM170.764 12.8136C170.603 13.2963 170.361 13.9561 170.039 14.7929C169.718 15.6297 169.347 16.5952 168.929 17.6895C168.511 18.7837 168.044 19.9906 167.529 21.3101C167.046 22.6297 166.547 24.0136 166.033 25.4619H175.543C175.028 24.0136 174.529 22.6297 174.046 21.3101C173.564 19.9906 173.097 18.7837 172.646 17.6895C172.228 16.5952 171.858 15.6297 171.536 14.7929C171.214 13.9561 170.957 13.2963 170.764 12.8136ZM201.984 4.84807C207.004 4.84807 210.85 5.74922 213.522 7.55152C216.193 9.32164 217.529 12.0895 217.529 15.855C217.529 18.2044 216.981 20.1193 215.887 21.5998C214.825 23.0481 213.28 24.1906 211.253 25.0274C211.929 25.8642 212.637 26.8297 213.377 27.9239C214.117 28.986 214.841 30.1124 215.549 31.3032C216.289 32.4619 216.998 33.6849 217.673 34.9722C218.349 36.2274 218.977 37.4665 219.556 38.6895H211.108C210.496 37.5952 209.869 36.4849 209.225 35.3584C208.614 34.232 207.97 33.1377 207.294 32.0757C206.65 31.0136 206.007 30.0159 205.363 29.0826C204.719 28.117 204.076 27.2481 203.432 26.4757H199.715V38.6895H192.184V5.71704C193.825 5.3952 195.515 5.16991 197.253 5.04118C199.023 4.91244 200.6 4.84807 201.984 4.84807ZM202.418 11.2688C201.871 11.2688 201.372 11.2849 200.922 11.317C200.503 11.3492 200.101 11.3814 199.715 11.4136V20.4895H201.839C204.671 20.4895 206.699 20.1354 207.922 19.4274C209.145 18.7193 209.756 17.5124 209.756 15.8067C209.756 14.1653 209.129 13.0067 207.873 12.3308C206.65 11.6228 204.832 11.2688 202.418 11.2688ZM248.726 5.23428V11.655H238.636V38.6895H231.105V11.655H221.015V5.23428H248.726Z" fill="white"/>
<defs>
<linearGradient id="paint0_linear_0_11820" x1="-4.07959e-07" y1="3.18382" x2="26.8895" y2="-5.31166" gradientUnits="userSpaceOnUse">
<stop stop-color="#18A4FF"/>
<stop offset="1" stop-color="#05C37F"/>
</linearGradient>
</defs>
</svg>
