<svg xmlns="http://www.w3.org/2000/svg" width="200" height="66" viewBox="0 0 200 66" fill="none">
  <path d="M73.2067 45.8398C71.5109 45.8725 69.8256 45.5696 68.2473 44.9486C66.8668 44.3959 65.6387 43.5206 64.6661 42.3958C63.6816 41.2292 62.9421 39.8763 62.4915 38.4178C61.4853 35.0508 61.4944 31.4618 62.5173 28.0997C62.9862 26.6243 63.7415 25.256 64.7403 24.0732C65.7007 22.9541 66.901 22.0657 68.2518 21.4739C69.7173 20.8459 71.2992 20.5351 72.8934 20.5619C74.1264 20.5559 75.3571 20.6663 76.5694 20.8915C77.4897 21.0363 78.3826 21.3203 79.2174 21.7339L78.4214 24.3539C77.7499 24.0248 77.0429 23.7742 76.3142 23.6068C75.2829 23.396 74.2313 23.3017 73.1789 23.3259C72.0286 23.2497 70.8763 23.4454 69.8156 23.897C68.7549 24.3485 67.8152 25.0432 67.0727 25.9251C65.555 28.0722 64.8182 30.6741 64.9843 33.2982C64.9703 34.6316 65.1261 35.9613 65.4483 37.2552C65.7225 38.3835 66.2423 39.4375 66.9707 40.3419C67.7002 41.2212 68.632 41.9108 69.6862 42.3516C70.9714 42.8682 72.3487 43.1155 73.7333 43.0781C74.8501 43.1054 75.964 42.9549 77.0335 42.6325C77.7013 42.4282 78.3511 42.169 78.976 41.8574L79.6353 44.4774C78.7934 44.889 77.9041 45.1954 76.9873 45.3895C75.7498 45.691 74.4804 45.8422 73.2067 45.8398Z" fill="#6A6A6A"/>
  <path d="M89.6841 43.1709C91.1747 43.2246 92.6573 42.928 94.0126 42.3052C94.5572 42.0446 95.011 41.6267 95.3155 41.1054C95.62 40.5841 95.7612 39.9833 95.7206 39.381C95.7354 38.8039 95.6328 38.2299 95.4189 37.6938C95.1948 37.1949 94.8484 36.7606 94.4118 36.4313C93.841 35.9952 93.217 35.6334 92.555 35.3545C91.7907 35.0094 90.8463 34.6048 89.7215 34.1407C88.8141 33.7647 87.96 33.3819 87.1477 32.9943C86.3773 32.631 85.6539 32.175 84.9938 31.6366C84.373 31.1274 83.8643 30.4953 83.4994 29.78C83.1018 28.9653 82.9088 28.0659 82.9377 27.1598C82.9119 26.2461 83.0996 25.3389 83.4855 24.5103C83.8715 23.6816 84.445 22.9542 85.161 22.3859C86.9201 21.0821 89.0808 20.4367 91.2669 20.5619C92.6444 20.5313 94.0204 20.6723 95.3631 20.9819C96.1407 21.162 96.9004 21.4122 97.6329 21.7293L96.9365 24.4445C96.3188 24.1625 95.6868 23.913 95.043 23.6972C93.7723 23.3359 92.4522 23.1794 91.1323 23.2331C90.4788 23.2283 89.8272 23.2992 89.19 23.4443C88.6184 23.5681 88.0724 23.7903 87.5769 24.101C87.1215 24.3864 86.7368 24.7712 86.4514 25.2266C86.1571 25.7313 86.0114 26.309 86.0313 26.8929C86.0127 27.478 86.142 28.0583 86.4072 28.5801C86.6736 29.0723 87.0492 29.4971 87.505 29.8218C88.0579 30.2218 88.6543 30.5582 89.2827 30.8244C89.9789 31.1377 90.7891 31.4765 91.6918 31.8478C92.5946 32.2191 93.5228 32.6021 94.3815 32.9874C95.1974 33.3469 95.961 33.8153 96.6512 34.3798C97.3053 34.9255 97.8463 35.5942 98.2434 36.3478C98.6778 37.244 98.8872 38.2325 98.8536 39.2279C98.9071 40.1961 98.7091 41.1619 98.2788 42.0309C97.8485 42.9 97.2007 43.6429 96.3983 44.1874C94.3806 45.4137 92.0395 46.0018 89.6818 45.8746C88.0399 45.9318 86.3985 45.7512 84.8083 45.3384C84.0429 45.1116 83.292 44.8388 82.5594 44.5216L83.3555 41.7576C83.5517 41.8723 83.7555 41.9731 83.9657 42.0593C84.3784 42.2355 84.7999 42.3903 85.2284 42.5233C85.8489 42.7144 86.4814 42.8633 87.122 42.9689C87.9691 43.1059 88.826 43.1735 89.6841 43.1709Z" fill="#6A6A6A"/>
  <path d="M104.755 21.9681C105.662 21.719 106.839 21.4383 108.288 21.1258C110.147 20.7785 112.036 20.623 113.927 20.6616C115.167 20.5506 116.416 20.7346 117.571 21.1984C118.726 21.6623 119.755 22.3929 120.574 23.3305C120.727 23.2075 121.038 22.9963 121.486 22.6992C122.75 21.8984 124.143 21.3206 125.603 20.991C126.608 20.763 127.637 20.6524 128.669 20.6616C130.201 20.6037 131.728 20.8825 133.141 21.4785C134.223 21.9755 135.142 22.771 135.789 23.7715C136.449 24.8491 136.879 26.0517 137.051 27.3036C137.278 28.7904 137.388 30.2926 137.381 31.7966V45.3245H134.336V32.7922C134.348 31.4083 134.277 30.0251 134.123 28.6497C134.033 27.6372 133.747 26.6519 133.28 25.7487C132.874 24.9983 132.243 24.3938 131.477 24.0198C130.519 23.596 129.478 23.3966 128.432 23.4372C127.574 23.428 126.718 23.5152 125.879 23.6971C125.197 23.8417 124.531 24.0532 123.89 24.3284C123.408 24.5334 122.946 24.7836 122.511 25.0756C122.149 25.324 121.896 25.512 121.736 25.6373C122.036 26.5265 122.247 27.443 122.367 28.3735C122.51 29.4359 122.58 30.5066 122.579 31.5784V45.3406H119.534V32.7946C119.546 31.4108 119.475 30.0274 119.323 28.652C119.231 27.6369 118.937 26.6506 118.457 25.751C118.031 24.9972 117.383 24.3934 116.601 24.0221C115.604 23.5948 114.524 23.3959 113.44 23.4396C112.198 23.4254 110.957 23.5029 109.727 23.6716C109.067 23.7489 108.416 23.8896 107.784 24.0917V45.343H104.739V21.9681H104.755Z" fill="#6A6A6A"/>
  <path d="M152.496 20.5618C153.876 20.5263 155.25 20.7573 156.543 21.2419C157.577 21.6412 158.5 22.2835 159.233 23.1146C159.933 23.9386 160.444 24.9058 160.73 25.9483C161.05 27.1075 161.206 28.3058 161.194 29.5084V44.7652C160.747 44.8912 160.294 44.9919 159.836 45.0669C159.244 45.1783 158.558 45.2952 157.778 45.4174C156.998 45.5404 156.132 45.6495 155.178 45.7191C154.225 45.7887 153.252 45.8351 152.254 45.8351C151.064 45.8463 149.877 45.705 148.722 45.415C147.707 45.1623 146.754 44.7095 145.916 44.0829C145.113 43.4651 144.471 42.6626 144.044 41.7436C143.562 40.6478 143.33 39.4588 143.364 38.2624C143.331 37.0947 143.588 35.9369 144.111 34.8926C144.61 33.956 145.334 33.1583 146.218 32.5718C147.201 31.9278 148.297 31.4759 149.448 31.2398C150.786 30.9497 152.153 30.8087 153.522 30.8196C153.958 30.8196 154.418 30.8406 154.903 30.8893C155.388 30.938 155.852 31.0007 156.309 31.075C156.766 31.1493 157.151 31.2328 157.469 31.307C157.702 31.3546 157.93 31.4254 158.149 31.5182V30.0213C158.15 29.1993 158.088 28.3785 157.964 27.5659C157.848 26.7981 157.569 26.064 157.147 25.4123C156.7 24.7504 156.087 24.2179 155.369 23.8689C154.422 23.4437 153.39 23.2444 152.352 23.2865C151.016 23.2408 149.679 23.3672 148.374 23.6624C147.499 23.9107 146.864 24.1126 146.455 24.2728L146.035 21.6038C146.824 21.2792 147.648 21.0456 148.49 20.9076C149.81 20.6556 151.152 20.5398 152.496 20.5618ZM152.777 43.1244C153.96 43.1244 155 43.0873 155.891 43.0084C156.652 42.9464 157.41 42.8457 158.161 42.7066V34.1848C157.629 33.9729 157.08 33.8075 156.52 33.6904C155.503 33.4943 154.469 33.4072 153.433 33.4305C152.651 33.4321 151.869 33.4873 151.094 33.5954C150.31 33.6971 149.549 33.9326 148.845 34.2916C148.172 34.64 147.594 35.1455 147.158 35.7653C146.69 36.5062 146.46 37.3729 146.501 38.2484C146.477 39.0356 146.63 39.8182 146.947 40.539C147.224 41.1431 147.661 41.6606 148.209 42.0359C148.806 42.4332 149.475 42.7107 150.178 42.8528C151.031 43.0425 151.903 43.1336 152.777 43.1244Z" fill="#6A6A6A"/>
  <path d="M177.21 20.6569C178.16 20.6532 179.107 20.731 180.044 20.889C180.677 20.978 181.3 21.1335 181.9 21.3531L181.29 23.9733C180.8 23.7826 180.289 23.6494 179.768 23.5764C178.77 23.4195 177.76 23.3489 176.751 23.3652C175.69 23.3422 174.63 23.4364 173.59 23.6461C173.053 23.752 172.527 23.9074 172.018 24.1103V45.3151H168.971V22.2374C170.02 21.8042 171.1 21.4512 172.202 21.1814C173.844 20.802 175.525 20.6258 177.21 20.6569Z" fill="#6A6A6A"/>
  <path d="M189.334 21.1235H198.979V23.6971H189.334V36.5682C189.306 37.6942 189.424 38.8189 189.684 39.9147C189.852 40.65 190.198 41.3329 190.691 41.9036C191.118 42.3643 191.672 42.6876 192.284 42.832C192.957 42.992 193.647 43.0698 194.34 43.064C195.388 43.0997 196.434 42.9489 197.429 42.6185C198.056 42.3915 198.666 42.1185 199.253 41.8016L200 44.3265C199.275 44.7315 198.506 45.0538 197.709 45.2873C196.559 45.6554 195.357 45.8364 194.149 45.8235C192.869 45.8581 191.593 45.6608 190.383 45.2409C189.419 44.8897 188.575 44.2735 187.946 43.4632C187.3 42.5819 186.859 41.5667 186.658 40.4926C186.389 39.105 186.263 37.6937 186.282 36.2804V14.001L189.327 13.4394V21.1164L189.334 21.1235Z" fill="#6A6A6A"/>
  <path d="M0.92394 20.0745L10.0144 4.33962C10.6355 3.28911 11.5173 2.41669 12.5744 1.80683C13.6315 1.19698 14.8281 0.870334 16.0484 0.858459H42.3033C42.3033 7.69778 36.759 11.8775 29.9266 11.8775H18.3924L11.8455 23.5649L17.8076 35.2523H20.8246C27.6639 35.2523 33.5888 39.4297 33.5888 46.2714H16.0484C14.8258 46.2617 13.6264 45.936 12.5667 45.3261C11.507 44.7161 10.623 43.8426 10.0005 42.7902L0.92394 27.0762C0.318353 26.0088 0 24.8026 0 23.5754C0 22.3481 0.318353 21.1419 0.92394 20.0745Z" fill="url(#paint0_linear_1_11367)"/>
  <path d="M52.6586 45.9302L43.5774 61.6604C42.9563 62.7109 42.0745 63.5832 41.0175 64.1931C39.9604 64.8029 38.7637 65.1297 37.5434 65.1416H11.2792C11.2792 58.3022 16.8236 54.1226 23.6559 54.1226H35.1902L41.737 42.4351L35.7796 30.7477H33.1479C26.3085 30.7477 19.9914 26.5703 19.9914 19.7287H37.5341C38.7568 19.7384 39.9561 20.064 41.0158 20.674C42.0755 21.2839 42.9596 22.1575 43.5821 23.2098L52.654 38.9285C53.2575 39.9936 53.5747 41.197 53.5747 42.4212C53.5747 43.6455 53.2575 44.8489 52.654 45.914L52.6586 45.9302Z" fill="url(#paint1_linear_1_11367)"/>
  <path d="M44.9189 35.6167L41.7417 42.4398L35.7796 30.7524H33.1479C26.3085 30.7524 19.9915 26.5749 19.9915 19.7333H37.5365C38.7592 19.743 39.9585 20.0686 41.0182 20.6786C42.0779 21.2885 42.9619 22.1621 43.5844 23.2144C46.0398 27.4777 47.3928 31.3674 44.9189 35.6167Z" fill="url(#paint2_linear_1_11367)"/>
  <path d="M8.86097 29.3205L11.8432 23.5648L17.8052 35.2523H20.8223C27.6616 35.2523 33.5865 39.4297 33.5865 46.2713H16.0484C14.8258 46.2616 13.6264 45.936 12.5667 45.3261C11.507 44.7161 10.623 43.8425 10.0005 42.7901C7.54512 38.5246 6.38935 33.5698 8.86097 29.3205Z" fill="url(#paint3_linear_1_11367)"/>
  <defs>
    <linearGradient id="paint0_linear_1_11367" x1="46.2798" y1="23.5649" x2="1.90365" y2="23.5649" gradientUnits="userSpaceOnUse">
      <stop stop-color="#159FFF"/>
      <stop offset="0.06" stop-color="#159FFF"/>
      <stop offset="0.33" stop-color="#15B2FF"/>
      <stop offset="0.808" stop-color="#15CFFF"/>
      <stop offset="1" stop-color="#15EEFF"/>
    </linearGradient>
    <linearGradient id="paint1_linear_1_11367" x1="57.5505" y1="42.4351" x2="13.1825" y2="42.4351" gradientUnits="userSpaceOnUse">
      <stop stop-color="#79FF55"/>
      <stop offset="0.06" stop-color="#79FF55"/>
      <stop offset="0.635" stop-color="#0AD67F"/>
      <stop offset="1" stop-color="#00D383"/>
    </linearGradient>
    <linearGradient id="paint2_linear_1_11367" x1="45.6803" y1="31.0865" x2="16.9476" y2="31.0865" gradientUnits="userSpaceOnUse">
      <stop stop-color="#00BE86"/>
      <stop offset="1" stop-color="#2FF235"/>
    </linearGradient>
    <linearGradient id="paint3_linear_1_11367" x1="8.03437" y1="34.9181" x2="36.6402" y2="34.9181" gradientUnits="userSpaceOnUse">
      <stop offset="0.06" stop-color="#159FFF"/>
      <stop offset="1" stop-color="#3FECFF"/>
    </linearGradient>
  </defs>
</svg>