<svg xmlns="http://www.w3.org/2000/svg" width="60" height="60" viewBox="0 0 60 60" fill="none">
  <path d="M30.293 47.5781C30.293 47.4167 30.1615 47.2852 30 47.2852C29.8385 47.2852 29.707 47.4167 29.707 47.5781C29.707 47.7396 29.8385 47.8711 30 47.8711C30.1615 47.8711 30.293 47.7396 30.293 47.5781Z" stroke="url(#paint0_linear_0_11528)" stroke-width="1.75781"/>
  <path d="M54.9608 37.0313C54.9608 40.2668 52.337 42.8906 49.1014 42.8906C45.8659 42.8906 43.2421 40.2668 43.2421 37.0313C43.2421 33.7957 45.8659 31.1719 49.1014 31.1719C52.337 31.1719 54.9608 33.7957 54.9608 37.0313Z" stroke="#606564" stroke-width="1.75781" stroke-miterlimit="10" stroke-linecap="round" stroke-linejoin="round"/>
  <path d="M17.1093 56.9531H1.17188V54.6094C1.17188 49.4321 5.72108 45.2344 10.8984 45.2344C14.0636 45.2344 17.2136 46.8024 18.9105 49.2047" stroke="#606564" stroke-width="1.75781" stroke-miterlimit="10" stroke-linecap="round" stroke-linejoin="round"/>
  <path d="M41.0894 49.2047C42.7862 46.8024 45.9362 45.2344 49.1014 45.2344C54.2788 45.2344 58.828 49.4321 58.828 54.6094V56.9531H42.8905" stroke="#606564" stroke-width="1.75781" stroke-miterlimit="10" stroke-linecap="round" stroke-linejoin="round"/>
  <path d="M16.7578 37.0313C16.7578 40.2668 14.134 42.8906 10.8984 42.8906C7.66288 42.8906 5.03906 40.2668 5.03906 37.0313C5.03906 33.7957 7.66288 31.1719 10.8984 31.1719C14.134 31.1719 16.7578 33.7957 16.7578 37.0313Z" stroke="#606564" stroke-width="1.75781" stroke-miterlimit="10" stroke-linecap="round" stroke-linejoin="round"/>
  <path d="M38.2031 32.3438C38.2031 36.8742 34.5304 40.5469 30 40.5469C25.4695 40.5469 21.7969 36.8742 21.7969 32.3438C21.7969 27.8133 25.4695 24.1407 30 24.1407C34.5304 24.1407 38.2031 27.8133 38.2031 32.3438Z" stroke="#606564" stroke-width="1.75781" stroke-miterlimit="10" stroke-linecap="round" stroke-linejoin="round"/>
  <path d="M29.9577 3.04707L27.4229 8.23025L21.7557 9.05291L25.8573 13.0502L24.8893 18.6951L29.9577 16.0302C31.862 17.031 33.1769 17.7224 35.0273 18.6951L34.058 13.0502L38.1596 9.05291L32.4924 8.23025L29.9577 3.04707Z" stroke="url(#paint1_linear_0_11528)" stroke-width="1.75781" stroke-miterlimit="10" stroke-linecap="round" stroke-linejoin="round"/>
  <path d="M49.8374 22.8036L53.4456 24.6997L52.7565 20.6825L55.6755 17.8361L51.6409 17.2501L49.8374 13.5939L48.0327 17.2501L43.9979 17.8361L46.9171 20.6825L46.228 24.6997L49.8374 22.8036Z" stroke="url(#paint2_linear_0_11528)" stroke-width="1.75781" stroke-miterlimit="10" stroke-linecap="round" stroke-linejoin="round"/>
  <path d="M9.99373 22.8036L13.6019 24.6997L12.9129 20.6825L15.832 17.8361L11.7972 17.2501L9.99373 13.5939L8.18905 17.2501L4.1543 17.8361L7.07343 20.6825L6.38437 24.6997L9.99373 22.8036Z" stroke="url(#paint3_linear_0_11528)" stroke-width="1.75781" stroke-miterlimit="10" stroke-linecap="round" stroke-linejoin="round"/>
  <path d="M42.8906 56.9531H17.1094V55.7813C17.1094 53.3789 17.7668 51.1301 18.9105 49.2047C21.1582 45.4243 25.2832 42.8907 30 42.8907C33.5601 42.8907 36.7828 44.3332 39.1148 46.6664C39.873 47.4246 40.5374 48.2766 41.0894 49.2047C42.2331 51.1301 42.8906 53.3789 42.8906 55.7813V56.9531Z" stroke="#606564" stroke-width="1.75781" stroke-miterlimit="10" stroke-linecap="round" stroke-linejoin="round"/>
  <path d="M34.4917 48.9199C35.7456 49.7438 36.7616 50.9016 37.4108 52.2656" stroke="url(#paint4_linear_0_11528)" stroke-width="1.75781" stroke-miterlimit="10" stroke-linecap="round" stroke-linejoin="round"/>
  <defs>
    <linearGradient id="paint0_linear_0_11528" x1="28.8281" y1="48.5697" x2="30.3512" y2="49.0509" gradientUnits="userSpaceOnUse">
      <stop stop-color="#18A4FF"/>
      <stop offset="1" stop-color="#05C37F"/>
    </linearGradient>
    <linearGradient id="paint1_linear_0_11528" x1="21.7557" y1="17.4911" x2="32.3206" y2="20.9902" gradientUnits="userSpaceOnUse">
      <stop stop-color="#18A4FF"/>
      <stop offset="1" stop-color="#05C37F"/>
    </linearGradient>
    <linearGradient id="paint2_linear_0_11528" x1="43.9979" y1="23.8452" x2="51.5143" y2="26.3422" gradientUnits="userSpaceOnUse">
      <stop stop-color="#18A4FF"/>
      <stop offset="1" stop-color="#05C37F"/>
    </linearGradient>
    <linearGradient id="paint3_linear_0_11528" x1="4.1543" y1="23.8452" x2="11.6708" y2="26.3422" gradientUnits="userSpaceOnUse">
      <stop stop-color="#18A4FF"/>
      <stop offset="1" stop-color="#05C37F"/>
    </linearGradient>
    <linearGradient id="paint4_linear_0_11528" x1="34.4917" y1="52.0082" x2="36.4307" y2="52.5427" gradientUnits="userSpaceOnUse">
      <stop stop-color="#18A4FF"/>
      <stop offset="1" stop-color="#05C37F"/>
    </linearGradient>
  </defs>
</svg>