<svg width="44" height="58" viewBox="0 0 44 58" fill="none" xmlns="http://www.w3.org/2000/svg">
<g id="Group">
<path id="Vector" d="M22 0.253418C11.7867 0.253418 0.959991 2.46674 0.959991 6.60008V51.4001C0.959991 55.5334 11.8133 57.7467 22 57.7467C32.1867 57.7467 43.04 55.5334 43.04 51.4001V6.60008C43.04 2.46674 32.2133 0.253418 22 0.253418ZM22 1.74674C34.1067 1.74674 41.5467 4.57341 41.5467 6.60008C41.5467 8.62674 34.1067 11.4534 22 11.4534C9.89332 11.4534 2.45332 8.62674 2.45332 6.60008C2.45332 4.57341 9.89332 1.74674 22 1.74674ZM22 56.2534C9.89332 56.2534 2.45332 53.4268 2.45332 51.4001V49.1067C5.33332 51.2934 11.6 52.2267 13.8933 52.4934C16.4533 52.7867 19.2 52.9467 22 52.9467C22.4267 52.9467 22.7467 52.6001 22.7467 52.2001C22.7467 51.8001 22.4 51.4534 22 51.4534C19.2533 51.4534 16.56 51.2934 14.0533 51.0001C6.42665 50.0934 2.42667 48.0934 2.42667 46.6001V45.0801C5.73333 47.6134 14.0533 48.9467 21.9733 48.9467C29.8933 48.9467 38.2133 47.6134 41.52 45.0801V51.4001C41.5467 53.4268 34.1067 56.2534 22 56.2534ZM2.45332 42.6801C5.78665 45.2134 14.08 46.5467 22 46.5467C29.92 46.5467 38.2133 45.2134 41.5467 42.6801C41.36 44.7067 33.9467 47.4534 22 47.4534C10.0533 47.4534 2.66665 44.7067 2.45332 42.6801ZM22 45.0534C9.89332 45.0534 2.45332 42.2267 2.45332 40.2001V37.9067C5.33332 40.0934 11.6 41.0267 13.8933 41.2934C13.92 41.2934 13.9466 41.2934 13.9733 41.2934C14.3467 41.2934 14.6666 41.0001 14.72 40.6267C14.7733 40.2267 14.48 39.8534 14.0533 39.8001C6.42665 38.8934 2.42667 36.8934 2.42667 35.4001V33.8801C5.73333 36.4134 14.0533 37.7467 21.9733 37.7467C29.8933 37.7467 38.2133 36.4134 41.52 33.8801V40.2001C41.5467 42.2267 34.1067 45.0534 22 45.0534ZM2.45332 31.4801C5.78665 34.0134 14.08 35.3467 22 35.3467C29.92 35.3467 38.2133 34.0134 41.5467 31.4801C41.36 33.5067 33.9467 36.2534 22 36.2534C10.0533 36.2534 2.66665 33.5067 2.45332 31.4801ZM22 33.8534C9.89332 33.8534 2.45332 31.0267 2.45332 29.0001V26.3068C5.33332 28.4934 11.6 29.4267 13.8933 29.6934C16.4533 29.9867 19.2 30.1467 22 30.1467C22.4267 30.1467 22.7467 29.8001 22.7467 29.4001C22.7467 29.0001 22.4 28.6534 22 28.6534C19.2533 28.6534 16.56 28.4934 14.0533 28.2001C6.42665 27.2934 2.42667 25.2934 2.42667 23.8001V22.6801C5.73333 25.2134 14.0533 26.5468 21.9733 26.5468C29.8933 26.5468 38.2133 25.2134 41.52 22.6801V29.0001C41.5467 31.0267 34.1067 33.8534 22 33.8534ZM2.45332 20.2801C5.78665 22.8134 14.08 24.1467 22 24.1467C29.92 24.1467 38.2133 22.8134 41.5467 20.2801C41.36 22.3067 33.9467 25.0534 22 25.0534C10.0533 25.0534 2.66665 22.3067 2.45332 20.2801ZM22 22.6534C9.89332 22.6534 2.45332 19.8267 2.45332 17.8001V13.2934C5.33332 15.4801 11.6 16.4134 13.8933 16.6801C13.92 16.6801 13.9466 16.6801 13.9733 16.6801C14.3467 16.6801 14.6666 16.3867 14.72 16.0134C14.7733 15.6134 14.48 15.2401 14.0533 15.1867C6.42665 14.2801 2.42667 12.2801 2.42667 10.7867V9.05342C5.73333 11.5867 14.0533 12.9201 21.9733 12.9201C29.8933 12.9201 38.2133 11.5867 41.52 9.05342V17.7734C41.5467 19.8267 34.1067 22.6534 22 22.6534Z" fill="white"/>
<path id="Vector_2" d="M22 10.2267C26.5333 10.2267 30.5333 9.42667 32.1867 8.2C32.5067 7.96 32.5867 7.48 32.3467 7.16C32.1067 6.84 31.6267 6.76 31.3067 7C30.1867 7.82667 26.8 8.73334 22 8.73334C15.6267 8.73334 12.3467 7.24 12.3467 6.62667C12.3467 6.01333 15.6267 4.52 22 4.52C23.7867 4.52 25.5733 4.65333 27.0933 4.89333C27.68 4.97333 28.2133 5.10667 28.72 5.21334C29.12 5.32 29.52 5.05333 29.6267 4.65333C29.7333 4.25333 29.4667 3.85333 29.0667 3.74666C28.5333 3.61333 27.9467 3.50667 27.3333 3.4C25.7067 3.13334 23.8667 3 22 3C16.64 3 10.8533 4.12 10.8533 6.62667C10.8533 9.08 16.64 10.2267 22 10.2267Z" fill="white"/>
<path id="Vector_3" d="M37.1467 27.2935C36.3733 27.2935 35.7333 27.9335 35.7333 28.6801C35.7333 29.4535 36.3733 30.0935 37.1467 30.0935C37.92 30.0935 38.5333 29.4535 38.5333 28.6801C38.5333 27.9335 37.92 27.2935 37.1467 27.2935Z" fill="white"/>
<path id="Vector_4" d="M37.1467 38.2803C36.3733 38.2803 35.7333 38.9203 35.7333 39.6669C35.7333 40.4136 36.3733 41.0536 37.1467 41.0536C37.92 41.0536 38.5333 40.4136 38.5333 39.6669C38.5333 38.9203 37.92 38.2803 37.1467 38.2803Z" fill="white"/>
<path id="Vector_5" d="M37.1467 49.3735C36.3733 49.3735 35.7333 50.0135 35.7333 50.7602C35.7333 51.5069 36.3733 52.1469 37.1467 52.1469C37.92 52.1469 38.5333 51.5069 38.5333 50.7602C38.5333 50.0135 37.92 49.3735 37.1467 49.3735Z" fill="white"/>
<path id="Vector_6" d="M37.1467 14.3066C36.3733 14.3066 35.7333 14.9466 35.7333 15.6933C35.7333 16.4666 36.3733 17.1066 37.1467 17.1066C37.92 17.1066 38.5333 16.4666 38.5333 15.6933C38.5333 14.92 37.92 14.3066 37.1467 14.3066Z" fill="white"/>
</g>
</svg>
