<svg width="60" height="42" viewBox="0 0 60 42" fill="none" xmlns="http://www.w3.org/2000/svg">
<g id="Group">
<path id="Vector" d="M27.0666 25.2397C26.5067 25.2397 26.0533 25.6931 26.0533 26.2531C26.0533 26.8131 26.5067 27.2664 27.0666 27.2664C27.6266 27.2664 28.08 26.8131 28.08 26.2531C28.0533 25.6931 27.6 25.2397 27.0666 25.2397Z" fill="white"/>
<path id="Vector_2" d="M56.5333 11.9332H48.7733V2.89323C48.7733 1.42656 47.5733 0.226562 46.1067 0.226562H6.77333C5.30666 0.226562 4.10666 1.42656 4.10666 2.89323V19.3466H2.85332C1.73332 19.3466 0.82666 20.2533 0.82666 21.3733V39.7998C0.82666 40.9198 1.73332 41.8265 2.85332 41.8265H11.4133C12.5333 41.8265 13.44 40.9198 13.44 39.7998V30.0932H20.16V33.5066C20.16 35.1332 19.44 36.6532 18.16 37.6932C17.4933 38.2266 17.2533 39.0798 17.5467 39.8798C17.84 40.6798 18.56 41.1866 19.4133 41.1866H33.4933C34.3467 41.1866 35.0667 40.6798 35.36 39.8798C35.6533 39.0798 35.4133 38.2266 34.7467 37.6932C33.4933 36.6532 32.7467 35.1332 32.7467 33.5066V30.0932H39.1733V39.1599C39.1733 40.6265 40.3733 41.7998 41.8133 41.7998H56.5067C57.9733 41.7998 59.1467 40.5999 59.1467 39.1599V14.5999C59.1733 13.1066 57.9733 11.9332 56.5333 11.9332ZM5.59999 2.86654C5.59999 2.22654 6.13333 1.6932 6.77333 1.6932H46.1067C46.7467 1.6932 47.28 2.22654 47.28 2.86654V11.9065H41.84C40.7467 11.9065 39.7867 12.5732 39.3867 13.5332C39.2533 13.8532 39.1733 14.1999 39.1733 14.5732V22.4132H13.4133V21.3466C13.4133 20.2266 12.5067 19.3199 11.3867 19.3199H5.59999V2.86654ZM11.4133 40.2799H2.85332C2.55999 40.2799 2.34666 40.0399 2.34666 39.7732V38.0932H11.9467V39.7732C11.92 40.0666 11.68 40.2799 11.4133 40.2799ZM11.92 36.5999H2.31999V21.3466C2.31999 21.0532 2.55999 20.8399 2.82666 20.8399H4.07999H11.3867C11.68 20.8399 11.8933 21.0799 11.8933 21.3466V30.0932V36.5999H11.92ZM33.7867 38.8399C34.0267 39.0266 33.9733 39.2666 33.9467 39.3733C33.92 39.4799 33.8133 39.6932 33.4933 39.6932H19.4133C19.12 39.6932 18.9867 39.4799 18.96 39.3733C18.9333 39.2666 18.88 39.0266 19.12 38.8399C20.7467 37.5332 21.6533 35.5599 21.6533 33.4799V30.0665H31.2533V33.4799C31.2533 35.5599 32.16 37.5066 33.7867 38.8399ZM32.7467 28.5732H20.1333H13.4133V23.9065H39.1733V28.5732H32.7467ZM40.6667 14.5732C40.6667 13.9332 41.1733 13.4266 41.8133 13.4266H48.7733H56.5333C57.1733 13.4266 57.68 13.9332 57.68 14.5732V35.3466H40.6667V30.0665V14.5732ZM56.5333 40.2799H41.84C41.2 40.2799 40.6933 39.7732 40.6933 39.1332V36.8399H57.7067V39.1332C57.68 39.7732 57.1467 40.2799 56.5333 40.2799Z" fill="white"/>
<path id="Vector_3" d="M49.1733 37.5601C48.6133 37.5601 48.16 38.0134 48.16 38.5734C48.16 39.1334 48.6133 39.5868 49.1733 39.5868C49.7333 39.5868 50.1867 39.1334 50.1867 38.5734C50.1867 38.0134 49.7333 37.5601 49.1733 37.5601Z" fill="white"/>
<path id="Vector_4" d="M7.11998 38.5732C6.77332 38.5732 6.50665 38.8399 6.50665 39.1866C6.50665 39.5333 6.77332 39.7999 7.11998 39.7999C7.46665 39.7999 7.73333 39.5333 7.73333 39.1866C7.73333 38.8399 7.46665 38.5732 7.11998 38.5732Z" fill="white"/>
</g>
</svg>
