<svg width="58" height="56" viewBox="0 0 58 56" fill="none" xmlns="http://www.w3.org/2000/svg">
<g id="Group">
<path id="Vector" d="M33.24 15.8931H24.7333C23.7467 15.8931 22.9467 16.6931 22.9467 17.6797V38.2931C22.9467 39.2797 23.7467 40.0797 24.7333 40.0797H28.8933C28.92 40.0797 28.9733 40.0797 29 40.0797C29.0266 40.0797 29.08 40.0797 29.1066 40.0797H33.2666C34.2533 40.0797 35.0533 39.2797 35.0533 38.2931V17.6797C35.0533 16.6931 34.2533 15.8931 33.24 15.8931ZM24.76 17.3864H28.2533V34.0531H24.4667V17.6797C24.44 17.5197 24.6 17.3864 24.76 17.3864ZM24.44 38.2931V35.5464H28.2266V38.5864H24.7333C24.6 38.6131 24.44 38.4797 24.44 38.2931ZM33.56 38.2931C33.56 38.4531 33.4266 38.5864 33.2666 38.5864H29.7733V17.3864H33.2666C33.4266 17.3864 33.56 17.5197 33.56 17.6797V38.2931Z" fill="white"/>
<path id="Vector_2" d="M28.2533 6.72009C28.2533 6.74676 28.2533 6.8001 28.2533 6.82676V13.6268C28.2533 14.0534 28.6 14.3734 29 14.3734C29.4 14.3734 29.7466 14.0268 29.7466 13.6268V6.82676C29.7466 6.8001 29.7466 6.74676 29.7466 6.72009C31.0533 6.40009 32.04 5.2001 32.04 3.78676C32.04 2.13343 30.68 0.773438 29.0266 0.773438C27.3733 0.773438 26.0133 2.13343 26.0133 3.78676C25.9866 5.2001 26.9466 6.37343 28.2533 6.72009ZM29 2.26676C29.8266 2.26676 30.52 2.9601 30.52 3.78676C30.52 4.61343 29.8266 5.30676 29 5.30676C28.1733 5.30676 27.48 4.61343 27.48 3.78676C27.48 2.9601 28.1733 2.26676 29 2.26676Z" fill="white"/>
<path id="Vector_3" d="M37.56 27.2534C37.1333 27.2534 36.8133 27.6001 36.8133 28.0001C36.8133 28.4001 37.16 28.7467 37.56 28.7467H52.4667C52.8933 28.7467 53.2133 28.4001 53.2133 28.0001C53.2133 27.6001 52.8667 27.2534 52.4667 27.2534H37.56Z" fill="white"/>
<path id="Vector_4" d="M29.7467 49.2798C29.7467 49.2531 29.7467 49.1998 29.7467 49.1731V42.3731C29.7467 41.9465 29.4 41.6265 29 41.6265C28.6 41.6265 28.2533 41.9731 28.2533 42.3731V49.1731C28.2533 49.1998 28.2533 49.2531 28.2533 49.2798C26.9467 49.5998 25.96 50.7998 25.96 52.2131C25.96 53.8665 27.32 55.2265 28.9733 55.2265C30.6267 55.2265 31.9867 53.8665 31.9867 52.2131C32.0133 50.7998 31.0533 49.6265 29.7467 49.2798ZM29 53.7331C28.1733 53.7331 27.48 53.0398 27.48 52.2131C27.48 51.3865 28.1733 50.6931 29 50.6931C29.8267 50.6931 30.52 51.3865 30.52 52.2131C30.52 53.0398 29.8267 53.7331 29 53.7331Z" fill="white"/>
<path id="Vector_5" d="M37.32 17.3866H39.16C40.1733 17.3866 41.1333 16.9866 41.8533 16.2666L46.04 12.0799C46.76 11.3599 47.16 10.3999 47.16 9.38658V6.69326C48.4666 6.34659 49.4267 5.17326 49.4267 3.75993C49.4267 2.10659 48.0666 0.746582 46.4133 0.746582C44.76 0.746582 43.4 2.10659 43.4 3.75993C43.4 5.17326 44.36 6.34659 45.6666 6.69326V9.38658C45.6666 9.99991 45.4266 10.5866 45 11.0132L40.8133 15.1999C40.3866 15.6266 39.8 15.8666 39.1866 15.8666H37.3466C36.92 15.8666 36.6 16.2133 36.6 16.6133C36.6 17.0133 36.92 17.3866 37.32 17.3866ZM44.8933 3.78658C44.8933 2.95991 45.5866 2.26658 46.4133 2.26658C47.24 2.26658 47.9333 2.95991 47.9333 3.78658C47.9333 4.61325 47.24 5.30658 46.4133 5.30658C45.5866 5.30658 44.8933 4.61325 44.8933 3.78658Z" fill="white"/>
<path id="Vector_6" d="M20.68 15.8934H18.84C18.2267 15.8934 17.64 15.6534 17.2133 15.2268L13.0267 11.0401C12.6 10.6134 12.36 10.0268 12.36 9.41343V6.72009C13.6667 6.37343 14.6266 5.2001 14.6266 3.78676C14.6266 2.13343 13.2667 0.773438 11.6133 0.773438C9.95999 0.773438 8.59998 2.13343 8.59998 3.78676C8.59998 5.2001 9.55997 6.37343 10.8666 6.72009V9.41343C10.8666 10.4268 11.2667 11.3868 11.9867 12.1068L16.1733 16.2934C16.8933 17.0134 17.8533 17.4134 18.8666 17.4134H20.7066C21.1333 17.4134 21.4533 17.0668 21.4533 16.6668C21.4533 16.2668 21.08 15.8934 20.68 15.8934ZM10.0667 3.78676C10.0667 2.9601 10.76 2.26676 11.5866 2.26676C12.4133 2.26676 13.1066 2.9601 13.1066 3.78676C13.1066 4.61343 12.4133 5.30676 11.5866 5.30676C10.76 5.30676 10.0667 4.61343 10.0667 3.78676Z" fill="white"/>
<path id="Vector_7" d="M20.68 38.6133H18.84C17.8267 38.6133 16.8666 39.0133 16.1466 39.7333L11.96 43.9199C11.24 44.6399 10.84 45.5999 10.84 46.6133V49.3066C9.53332 49.6533 8.5733 50.8266 8.5733 52.2399C8.5733 53.8933 9.93332 55.2533 11.5866 55.2533C13.24 55.2533 14.6 53.8933 14.6 52.2399C14.6 50.8266 13.64 49.6533 12.3333 49.3066V46.6133C12.3333 45.9999 12.5733 45.4133 13 44.9866L17.1866 40.7999C17.6133 40.3733 18.2 40.1333 18.8133 40.1333H20.6533C21.08 40.1333 21.4 39.7866 21.4 39.3866C21.4 38.9866 21.08 38.6133 20.68 38.6133ZM13.1066 52.2133C13.1066 53.0399 12.4133 53.7333 11.5866 53.7333C10.76 53.7333 10.0667 53.0399 10.0667 52.2133C10.0667 51.3866 10.76 50.6933 11.5866 50.6933C12.4133 50.6933 13.1066 51.3866 13.1066 52.2133Z" fill="white"/>
<path id="Vector_8" d="M47.16 49.3066V46.6133C47.16 45.5999 46.76 44.6399 46.04 43.9199L41.8533 39.7333C41.1333 39.0133 40.1733 38.6133 39.16 38.6133H37.32C36.8933 38.6133 36.5733 38.9599 36.5733 39.3599C36.5733 39.7599 36.92 40.1066 37.32 40.1066H39.16C39.7733 40.1066 40.36 40.3466 40.7866 40.7733L44.9733 44.9599C45.4 45.3866 45.64 45.9733 45.64 46.5866V49.2799C44.3333 49.6266 43.3733 50.7999 43.3733 52.2133C43.3733 53.8666 44.7333 55.2266 46.3866 55.2266C48.04 55.2266 49.4 53.8666 49.4 52.2133C49.4267 50.8266 48.4666 49.6266 47.16 49.3066ZM46.4133 53.76C45.5866 53.76 44.8933 53.0666 44.8933 52.2399C44.8933 51.4133 45.5866 50.7199 46.4133 50.7199C47.24 50.7199 47.9333 51.4133 47.9333 52.2399C47.9333 53.0666 47.24 53.76 46.4133 53.76Z" fill="white"/>
<path id="Vector_9" d="M37.32 24.96H41.0267C41.7733 24.96 42.4666 24.6666 43 24.16L49.48 17.7866C49.72 17.5466 50.0666 17.4133 50.4133 17.4133H51.8266C52.1733 18.72 53.3467 19.68 54.76 19.68C56.4133 19.68 57.7733 18.32 57.7733 16.6666C57.7733 15.0133 56.4133 13.6533 54.76 13.6533C53.3467 13.6533 52.1733 14.6133 51.8266 15.92H50.4133C49.6666 15.92 48.9733 16.2133 48.44 16.72L41.96 23.0933C41.72 23.3333 41.3733 23.4667 41.0267 23.4667H37.32C36.8933 23.4667 36.5733 23.8133 36.5733 24.2133C36.5733 24.6133 36.92 24.96 37.32 24.96ZM54.7333 15.12C55.56 15.12 56.2533 15.8133 56.2533 16.64C56.2533 17.4666 55.56 18.16 54.7333 18.16C53.9067 18.16 53.2133 17.4666 53.2133 16.64C53.2133 15.8133 53.88 15.12 54.7333 15.12Z" fill="white"/>
<path id="Vector_10" d="M54.7333 36.32C53.32 36.32 52.1467 37.28 51.8 38.5867H50.3866C50.04 38.5867 49.72 38.4534 49.4533 38.2134L42.9733 31.84C42.44 31.3067 41.7467 31.04 41 31.04H37.2933C36.8667 31.04 36.5467 31.3867 36.5467 31.7867C36.5467 32.1867 36.8933 32.5334 37.2933 32.5334H41C41.3467 32.5334 41.6667 32.6667 41.9333 32.9067L48.4133 39.2801C48.9467 39.8134 49.64 40.08 50.3866 40.08H51.8C52.1467 41.3867 53.32 42.3467 54.7333 42.3467C56.3867 42.3467 57.7467 40.9867 57.7467 39.3334C57.7467 37.68 56.3867 36.32 54.7333 36.32ZM54.7333 40.88C53.9067 40.88 53.2133 40.1867 53.2133 39.36C53.2133 38.5334 53.9067 37.84 54.7333 37.84C55.56 37.84 56.2533 38.5334 56.2533 39.36C56.2533 40.1867 55.56 40.88 54.7333 40.88Z" fill="white"/>
<path id="Vector_11" d="M20.44 28.7467C20.8667 28.7467 21.1867 28.4001 21.1867 28.0001C21.1867 27.6001 20.84 27.2534 20.44 27.2534H5.53332C5.10665 27.2534 4.78665 27.6001 4.78665 28.0001C4.78665 28.4001 5.13332 28.7467 5.53332 28.7467H20.44Z" fill="white"/>
<path id="Vector_12" d="M20.68 31.04H16.9733C16.2267 31.04 15.5333 31.3334 15 31.84L8.51999 38.2134C8.27999 38.4534 7.93333 38.5867 7.58666 38.5867H6.17333C5.82666 37.28 4.65331 36.32 3.23998 36.32C1.58665 36.32 0.226654 37.68 0.226654 39.3334C0.226654 40.9867 1.58665 42.3467 3.23998 42.3467C4.65331 42.3467 5.82666 41.3867 6.17333 40.08H7.58666C8.33333 40.08 9.02665 39.7867 9.55999 39.2801L16.04 32.9067C16.28 32.6667 16.6267 32.5334 16.9733 32.5334H20.68C21.1066 32.5334 21.4267 32.1867 21.4267 31.7867C21.4267 31.3867 21.08 31.04 20.68 31.04ZM3.26665 40.88C2.43999 40.88 1.74665 40.1867 1.74665 39.36C1.74665 38.5334 2.43999 37.84 3.26665 37.84C4.09332 37.84 4.78665 38.5334 4.78665 39.36C4.78665 40.1867 4.11999 40.88 3.26665 40.88Z" fill="white"/>
<path id="Vector_13" d="M20.68 23.4667H16.9733C16.6267 23.4667 16.3067 23.3333 16.04 23.0933L9.55999 16.72C9.02665 16.1866 8.33333 15.92 7.58666 15.92H6.17333C5.82666 14.6133 4.65331 13.6533 3.23998 13.6533C1.58665 13.6533 0.226654 15.0133 0.226654 16.6666C0.226654 18.32 1.58665 19.68 3.23998 19.68C4.65331 19.68 5.82666 18.72 6.17333 17.4133H7.58666C7.93333 17.4133 8.25332 17.5466 8.51999 17.7866L15 24.16C15.5333 24.6933 16.2267 24.96 16.9733 24.96H20.68C21.1066 24.96 21.4267 24.6133 21.4267 24.2133C21.4267 23.8133 21.08 23.4667 20.68 23.4667ZM3.26665 18.16C2.43999 18.16 1.74665 17.4666 1.74665 16.64C1.74665 15.8133 2.43999 15.12 3.26665 15.12C4.09332 15.12 4.78665 15.8133 4.78665 16.64C4.78665 17.4666 4.11999 18.16 3.26665 18.16Z" fill="white"/>
</g>
</svg>
