<svg xmlns="http://www.w3.org/2000/svg" width="32" height="32" viewBox="0 0 32 32" fill="none">
  <g clip-path="url(#clip0_0_11598)">
    <path d="M3.56527 22.0272L0.149641 25.3825C0.0788253 25.4521 0.0303196 25.5411 0.0103027 25.6384C-0.00971415 25.7356 -0.000336185 25.8366 0.037242 25.9285C0.0748203 26.0204 0.138898 26.099 0.221312 26.1543C0.303727 26.2096 0.400747 26.2392 0.500016 26.2392H10.0214C10.7047 27.1859 11.603 27.9567 12.6424 28.4884C13.6818 29.0201 14.8326 29.2973 16 29.2973C17.1675 29.2973 18.3183 29.0201 19.3577 28.4884C20.3971 27.9567 21.2954 27.1859 21.9787 26.2392H31.5C31.5993 26.2392 31.6963 26.2096 31.7787 26.1543C31.8611 26.099 31.9252 26.0204 31.9628 25.9285C32.0004 25.8366 32.0097 25.7356 31.9897 25.6384C31.9697 25.5411 31.9212 25.4521 31.8504 25.3825L28.4348 22.0272L31.8616 18.4391C31.9292 18.3683 31.9746 18.2792 31.992 18.1828C32.0095 18.0865 31.9983 17.9871 31.9597 17.8971C31.9212 17.8071 31.8572 17.7303 31.7754 17.6764C31.6937 17.6224 31.5979 17.5937 31.5 17.5937H30.9926C31.1031 16.6235 30.8746 15.645 30.3458 14.8241C30.2833 14.7276 30.1894 14.6556 30.08 14.6202C29.1612 14.3122 28.2837 13.8927 27.4671 13.3712C27.4101 13.3356 27.3466 13.3119 27.2803 13.3013C27.214 13.2908 27.1463 13.2938 27.0811 13.31C27.016 13.3263 26.9548 13.3555 26.9011 13.3959C26.8475 13.4363 26.8026 13.4871 26.769 13.5452L25.8853 15.0758L25.0015 13.5452C24.9679 13.4871 24.923 13.4363 24.8693 13.3959C24.8157 13.3555 24.7545 13.3263 24.6894 13.31C24.6242 13.2938 24.5565 13.2908 24.4901 13.3013C24.4238 13.3119 24.3603 13.3356 24.3034 13.3712C23.6703 13.7713 23.0028 14.114 22.3088 14.3954C22.1706 13.632 21.9573 12.9383 21.6577 12.476C21.5952 12.3795 21.5013 12.3075 21.3919 12.2721C20.2847 11.9144 19.1341 11.3645 17.9719 10.6378C17.915 10.6022 17.8514 10.5784 17.7851 10.5679C17.7188 10.5574 17.6511 10.5603 17.5859 10.5766C17.5208 10.5928 17.4596 10.622 17.406 10.6624C17.3523 10.7028 17.3074 10.7536 17.2738 10.8117L16 13.018L14.7262 10.8117C14.6926 10.7536 14.6477 10.7028 14.5941 10.6624C14.5404 10.622 14.4792 10.5928 14.4141 10.5766C14.3489 10.5603 14.2812 10.5574 14.2149 10.5679C14.1486 10.5784 14.0851 10.6022 14.0281 10.6378C12.866 11.3645 11.7156 11.9144 10.6081 12.2721C10.4987 12.3075 10.4049 12.3795 10.3423 12.476C10.0451 12.9347 9.83258 13.6305 9.69445 14.3968C8.99928 14.1152 8.33069 13.7719 7.69664 13.3712C7.63971 13.3356 7.57619 13.3119 7.50988 13.3013C7.44357 13.2908 7.37582 13.2938 7.31067 13.31C7.24553 13.3263 7.18432 13.3555 7.1307 13.3959C7.07708 13.4363 7.03214 13.4871 6.99858 13.5452L6.11483 15.0758L5.23127 13.5452C5.1977 13.4871 5.15277 13.4363 5.09915 13.3959C5.04553 13.3555 4.98432 13.3263 4.91917 13.31C4.85402 13.2938 4.78627 13.2908 4.71996 13.3013C4.65365 13.3119 4.59013 13.3356 4.5332 13.3712C3.71655 13.8927 2.83905 14.3122 1.92033 14.6202C1.81088 14.6556 1.71698 14.7276 1.65445 14.8241C1.12104 15.6431 0.89192 16.6232 1.00702 17.5937H0.500016C0.402098 17.5937 0.306334 17.6224 0.224607 17.6764C0.14288 17.7303 0.0787871 17.8071 0.040282 17.8971C0.00177677 17.9871 -0.00944613 18.0865 0.00800584 18.1828C0.0254578 18.2792 0.0708164 18.3683 0.138453 18.4391L3.56527 22.0272ZM1.72252 25.2392L4.61777 22.3951C4.71151 22.303 4.76523 22.1777 4.76733 22.0463C4.76942 21.915 4.71971 21.788 4.62895 21.693L1.66877 18.5937H9.4107C8.89032 19.624 8.6192 20.7622 8.6192 21.9165C8.6192 23.0707 8.89032 24.2089 9.4107 25.2392H1.72252ZM16 28.2973C14.738 28.2973 13.5043 27.9231 12.455 27.222C11.4057 26.5208 10.5878 25.5243 10.1049 24.3583C9.6219 23.1924 9.49554 21.9094 9.74175 20.6716C9.98796 19.4338 10.5957 18.2969 11.4881 17.4045C12.3804 16.5121 13.5174 15.9044 14.7552 15.6582C15.9929 15.412 17.2759 15.5383 18.4419 16.0213C19.6078 16.5042 20.6044 17.3221 21.3055 18.3714C22.0067 19.4208 22.3809 20.6544 22.3809 21.9165C22.379 23.6082 21.7061 25.2301 20.5099 26.4263C19.3136 27.6225 17.6917 28.2954 16 28.2973ZM27.3711 21.693C27.2804 21.788 27.2307 21.9149 27.2327 22.0463C27.2348 22.1777 27.2885 22.303 27.3823 22.3951L30.2775 25.2392H22.5894C23.1098 24.2089 23.3809 23.0707 23.3809 21.9165C23.3809 20.7622 23.1098 19.624 22.5894 18.5937H30.3313L27.3711 21.693ZM24.3899 14.4863L25.452 16.3257C25.4959 16.4017 25.559 16.4648 25.635 16.5087C25.711 16.5526 25.7973 16.5757 25.885 16.5757C25.9728 16.5757 26.059 16.5526 26.135 16.5087C26.211 16.4648 26.2741 16.4017 26.318 16.3257L27.3801 14.4863C28.0834 14.8992 28.8252 15.2429 29.595 15.5125C29.955 16.1427 30.092 16.876 29.9838 17.5937H22.4741C22.5268 16.8681 22.5177 16.1392 22.447 15.4151C23.1195 15.1603 23.7695 14.8496 24.3901 14.4863H24.3899ZM11.0984 13.1632C12.1498 12.7981 13.1609 12.326 14.1159 11.7545L15.567 14.268C15.6109 14.344 15.674 14.4071 15.75 14.4509C15.826 14.4948 15.9123 14.5179 16 14.5179C16.0878 14.5179 16.174 14.4948 16.25 14.4509C16.326 14.4071 16.3891 14.344 16.433 14.268L17.8841 11.7545C18.8391 12.326 19.8501 12.798 20.9015 13.1631C21.3224 13.9711 21.5414 15.673 21.5058 17.0068C20.8144 16.2296 19.9662 15.6077 19.0171 15.1818C18.068 14.7559 17.0395 14.5358 15.9993 14.536C14.959 14.5361 13.9306 14.7564 12.9816 15.1826C12.0326 15.6087 11.1846 16.2308 10.4933 17.0082C10.455 15.6687 10.6739 13.975 11.0984 13.1632ZM2.40489 15.5125C3.17464 15.2428 3.91639 14.899 4.6197 14.486L5.68183 16.3255C5.72571 16.4015 5.78883 16.4646 5.86484 16.5084C5.94085 16.5523 6.02706 16.5754 6.11483 16.5754C6.20259 16.5754 6.28881 16.5523 6.36482 16.5084C6.44082 16.4646 6.50394 16.4015 6.54783 16.3255L7.60989 14.486C8.2315 14.8499 8.88258 15.161 9.55627 15.4159C9.48477 16.1397 9.47456 16.8682 9.52577 17.5937H2.01552C1.90362 16.8758 2.04104 16.1413 2.40489 15.5125ZM16.0256 10.5288C16.0434 10.5292 16.0612 10.5294 16.079 10.5294C16.8852 10.5294 17.631 10.1106 18.1842 9.34576C18.7786 8.52401 19.1298 7.36095 19.228 5.88895C19.229 5.8727 19.2293 5.85643 19.2288 5.84014C19.2058 4.99974 18.8556 4.20152 18.2528 3.61549C17.65 3.02945 16.8422 2.70192 16.0015 2.70264H15.9986C15.1579 2.70192 14.3502 3.02945 13.7474 3.61549C13.1446 4.20152 12.7944 4.99974 12.7714 5.84014V5.86614C12.799 7.18545 13.1417 8.33739 13.7623 9.19739C14.3587 10.0244 15.1837 10.5096 16.0256 10.5288ZM16 3.70258C16.5768 3.70247 17.1311 3.92588 17.5467 4.32588C17.9622 4.72589 18.2065 5.27135 18.2283 5.8477C18.0408 8.5682 16.9596 9.52939 16.0761 9.52939C16.0669 9.52939 16.0574 9.52939 16.0485 9.52939C14.9688 9.50445 13.8231 8.12495 13.7713 5.85864C13.7903 5.28029 14.0335 4.73202 14.4494 4.32968C14.8653 3.92735 15.4214 3.70247 16 3.70258ZM25.9024 13.0915C25.916 13.0915 25.9295 13.092 25.9431 13.092C27.0139 13.092 28.3078 12.1308 28.4894 9.40545C28.4905 9.3892 28.4908 9.37295 28.4903 9.3567C28.4718 8.6787 28.1893 8.03471 27.703 7.56191C27.2167 7.0891 26.565 6.82486 25.8868 6.82545H25.8838C25.2056 6.82484 24.5539 7.08908 24.0675 7.56188C23.5812 8.03468 23.2987 8.67868 23.2802 9.3567V9.3827C23.302 10.4237 23.574 11.3347 24.0663 12.0171C24.5475 12.6843 25.2168 13.0759 25.9024 13.0915ZM25.8853 7.82545C26.2996 7.82551 26.6979 7.98567 26.9969 8.27248C27.2959 8.55928 27.4726 8.95054 27.4899 9.36451C27.3567 11.2699 26.6118 12.1073 25.9252 12.0918C25.1463 12.074 24.3196 11.0534 24.2801 9.37526C24.2948 8.95931 24.4703 8.56527 24.7697 8.27617C25.0691 7.98707 25.4691 7.82548 25.8853 7.82545ZM6.13195 13.0915C6.14552 13.0915 6.15902 13.092 6.1727 13.092C7.24345 13.092 8.53739 12.1308 8.71895 9.40545C8.72008 9.3892 8.72027 9.37295 8.71983 9.3567C8.70134 8.67869 8.41885 8.03469 7.93254 7.56188C7.44623 7.08908 6.79453 6.82484 6.11627 6.82545H6.11333C5.43506 6.82484 4.78337 7.08908 4.29705 7.56188C3.81074 8.03469 3.52826 8.67869 3.50977 9.3567V9.3827C3.53158 10.4237 3.80352 11.3347 4.29577 12.0171C4.77708 12.6843 5.44639 13.0759 6.13195 13.0915ZM6.11483 7.82545C6.52916 7.82551 6.92745 7.98567 7.22647 8.27248C7.52549 8.55928 7.70212 8.95054 7.71945 9.36451C7.58752 11.2525 6.8527 12.092 6.17352 12.092C6.16727 12.092 6.16102 12.092 6.15477 12.092C5.37577 12.0743 4.54914 11.0536 4.50964 9.37551C4.5242 8.95951 4.69969 8.5654 4.99913 8.27624C5.29857 7.98709 5.69857 7.82547 6.11483 7.82545Z" fill="#040C1A"/>
    <path d="M20.6331 20.8287C20.6052 20.7428 20.5545 20.666 20.4865 20.6066C20.4185 20.5472 20.3356 20.5073 20.2468 20.4912L17.6774 20.0251L16.4403 17.7255C16.3975 17.646 16.334 17.5795 16.2565 17.5332C16.1789 17.4869 16.0903 17.4624 16 17.4624C15.9097 17.4624 15.8211 17.4869 15.7435 17.5332C15.666 17.5795 15.6025 17.646 15.5597 17.7255L14.3226 20.0251L11.7533 20.4911C11.6644 20.5072 11.5816 20.5471 11.5136 20.6065C11.4456 20.6659 11.3949 20.7426 11.367 20.8285C11.3391 20.9144 11.335 21.0062 11.3551 21.0943C11.3752 21.1823 11.4187 21.2633 11.4811 21.3286L13.2859 23.2157L12.935 25.8032C12.9229 25.8927 12.9352 25.9839 12.9707 26.0669C13.0062 26.15 13.0635 26.2219 13.1366 26.2749C13.2097 26.328 13.2958 26.3603 13.3857 26.3684C13.4757 26.3765 13.5661 26.3601 13.6475 26.3209L16 25.1876L18.3526 26.3209C18.4339 26.3601 18.5244 26.3766 18.6144 26.3685C18.7043 26.3604 18.7904 26.3281 18.8635 26.275C18.9366 26.2219 18.9939 26.15 19.0294 26.067C19.0649 25.9839 19.0772 25.8928 19.0651 25.8033L18.7142 23.2158L20.5188 21.3288C20.5812 21.2635 20.6248 21.1826 20.6449 21.0945C20.6651 21.0065 20.661 20.9146 20.6331 20.8287ZM17.825 22.6989C17.7731 22.7532 17.734 22.8185 17.7108 22.89C17.6876 22.9614 17.6808 23.0372 17.6909 23.1117L17.9493 25.0169L16.2171 24.1824C16.1494 24.1498 16.0752 24.1329 16.0001 24.1329C15.9249 24.1329 15.8508 24.1498 15.7831 24.1824L14.0509 25.0169L14.3093 23.1117C14.3194 23.0372 14.3125 22.9614 14.2893 22.89C14.2661 22.8185 14.2271 22.7532 14.1751 22.6989L12.8463 21.3094L14.7381 20.9663C14.8121 20.9529 14.882 20.923 14.9428 20.8788C15.0036 20.8346 15.0536 20.7774 15.0892 20.7112L16 19.018L16.9109 20.7112C16.9465 20.7774 16.9965 20.8346 17.0573 20.8788C17.1181 20.923 17.188 20.9529 17.2619 20.9663L19.1538 21.3094L17.825 22.6989Z" fill="#FF7A2D"/>
  </g>
  <defs>
    <clipPath id="clip0_0_11598">
      <rect width="32" height="32" fill="white"/>
    </clipPath>
  </defs>
</svg>