<svg xmlns="http://www.w3.org/2000/svg" width="60" height="60" viewBox="0 0 60 60" fill="none">
  <path d="M54.006 4.33606H5.99365C3.33057 4.33606 1.17175 6.49488 1.17175 9.15784V42.1704C1.17175 44.8334 3.33057 46.9922 5.99365 46.9922H54.006C56.6691 46.9922 58.8278 44.8334 58.8278 42.1704V9.15784C58.8278 6.49488 56.6691 4.33606 54.006 4.33606Z" stroke="#606564" stroke-width="1.75781" stroke-miterlimit="10" stroke-linecap="round" stroke-linejoin="round"/>
  <path d="M35.6249 55.6641H24.3749V46.9922H35.6249V55.6641Z" stroke="#606564" stroke-width="1.75781" stroke-miterlimit="10" stroke-linecap="round" stroke-linejoin="round"/>
  <path d="M21.0483 55.6641H38.9514" stroke="#606564" stroke-width="1.75781" stroke-miterlimit="10" stroke-linecap="round" stroke-linejoin="round"/>
  <path d="M35.2734 39.5774H58.828" stroke="#606564" stroke-width="1.75781" stroke-miterlimit="10" stroke-linecap="round" stroke-linejoin="round"/>
  <path d="M29.9992 39.6089H30" stroke="url(#paint0_linear_0_11476)" stroke-width="1.75781" stroke-miterlimit="2.6131" stroke-linecap="round" stroke-linejoin="round"/>
  <path d="M1.17188 39.5774H24.7265" stroke="#606564" stroke-width="1.75781" stroke-miterlimit="10" stroke-linecap="round" stroke-linejoin="round"/>
  <path fill-rule="evenodd" clip-rule="evenodd" d="M42.7221 17.3726C43.8499 17.1352 44.6993 16.1328 44.6993 14.9354C44.6993 13.5621 43.582 12.4448 42.2087 12.4448H39.0461C38.7186 12.4448 38.4531 12.7103 38.4531 13.0378V19.3631C38.4531 19.6906 38.7185 19.9561 39.0461 19.9561C39.3736 19.9561 39.6391 19.6906 39.6391 19.3631V17.426H41.2797L42.9994 19.7189C43.116 19.8742 43.294 19.9561 43.4743 19.9561C43.5981 19.9561 43.723 19.9174 43.8296 19.8375C44.0916 19.6411 44.1448 19.2693 43.9482 19.0074L42.7221 17.3726ZM39.639 16.2401V13.6309H42.2087C42.928 13.6309 43.5133 14.2162 43.5133 14.9355C43.5133 15.6549 42.928 16.2402 42.2087 16.2402L39.639 16.2401Z" fill="url(#paint1_linear_0_11476)"/>
  <path d="M36.8722 17.6241C36.6104 17.4274 36.2386 17.4803 36.042 17.7421C35.5511 18.3955 34.8017 18.7702 33.9858 18.7702C32.5689 18.7702 31.4161 17.6175 31.4161 16.2006C31.4161 14.7837 32.5689 13.6309 33.9858 13.6309C34.8023 13.6309 35.5522 14.0062 36.0429 14.6604C36.2394 14.9223 36.6111 14.9755 36.8731 14.7789C37.135 14.5823 37.188 14.2106 36.9916 13.9487C36.2746 12.993 35.1791 12.445 33.9857 12.445C31.9149 12.445 30.2301 14.1298 30.2301 16.2006C30.2301 18.2714 31.9149 19.9562 33.9857 19.9562C35.1781 19.9562 36.2732 19.4088 36.9901 18.4544C37.187 18.1925 37.1342 17.8208 36.8722 17.6241Z" fill="url(#paint2_linear_0_11476)"/>
  <path d="M52.2867 12.9789L52.9192 19.3041C52.9518 19.63 52.714 19.9206 52.3883 19.9531C52.3682 19.9551 52.3483 19.9561 52.3286 19.9561C52.0275 19.9561 51.7698 19.7279 51.7392 19.4221L51.3477 15.5071L49.7171 19.5834C49.6271 19.8085 49.4091 19.9561 49.1666 19.9561C48.924 19.9561 48.7061 19.8085 48.616 19.5834L46.9855 15.5071L46.594 19.4221C46.5613 19.748 46.2704 19.9858 45.9449 19.9532C45.619 19.9206 45.3812 19.63 45.4138 19.3041L46.0463 12.9789C46.0735 12.707 46.2829 12.489 46.5534 12.4507C46.8239 12.4128 47.0854 12.5641 47.1869 12.8177L49.1665 17.7665L51.1461 12.8177C51.2475 12.564 51.5094 12.4124 51.7796 12.4507C52.0501 12.489 52.2595 12.707 52.2867 12.9789Z" fill="url(#paint3_linear_0_11476)"/>
  <path d="M30.9375 24.7266H52.6172" stroke="#606564" stroke-width="1.75781" stroke-miterlimit="10" stroke-linecap="round" stroke-linejoin="round"/>
  <path d="M30.9375 30.3516H42.3047" stroke="#606564" stroke-width="1.75781" stroke-miterlimit="10" stroke-linecap="round" stroke-linejoin="round"/>
  <path d="M16.5234 31.5234V20.8594H8.32031V31.5234H16.5234ZM16.5234 31.5234H24.7266V23.5337H16.5234V31.5234Z" stroke="url(#paint4_linear_0_11476)" stroke-width="1.75781" stroke-miterlimit="10" stroke-linecap="round" stroke-linejoin="round"/>
  <path d="M20.4785 23.5011V11.8359H12.2919V20.8158M13.9619 27.6915H10.8984M13.9619 24.4174H10.8984M17.9169 17.819H14.8535M17.9169 14.8964H14.8535M22.1484 27.6538H19.085" stroke="url(#paint5_linear_0_11476)" stroke-width="1.75781" stroke-miterlimit="10" stroke-linecap="round" stroke-linejoin="round"/>
  <defs>
    <linearGradient id="paint0_linear_0_11476" x1="29.9992" y1="39.6858" x2="29.9998" y2="39.6858" gradientUnits="userSpaceOnUse">
      <stop stop-color="#18A4FF"/>
      <stop offset="1" stop-color="#05C37F"/>
    </linearGradient>
    <linearGradient id="paint1_linear_0_11476" x1="30.2301" y1="13.0228" x2="38.7167" y2="4.9226" gradientUnits="userSpaceOnUse">
      <stop stop-color="#18A4FF"/>
      <stop offset="1" stop-color="#05C37F"/>
    </linearGradient>
    <linearGradient id="paint2_linear_0_11476" x1="30.2301" y1="13.0228" x2="38.7167" y2="4.9226" gradientUnits="userSpaceOnUse">
      <stop stop-color="#18A4FF"/>
      <stop offset="1" stop-color="#05C37F"/>
    </linearGradient>
    <linearGradient id="paint3_linear_0_11476" x1="30.2301" y1="13.0228" x2="38.7167" y2="4.9226" gradientUnits="userSpaceOnUse">
      <stop stop-color="#18A4FF"/>
      <stop offset="1" stop-color="#05C37F"/>
    </linearGradient>
    <linearGradient id="paint4_linear_0_11476" x1="8.32031" y1="21.6799" x2="17.805" y2="17.0698" gradientUnits="userSpaceOnUse">
      <stop stop-color="#18A4FF"/>
      <stop offset="1" stop-color="#05C37F"/>
    </linearGradient>
    <linearGradient id="paint5_linear_0_11476" x1="10.8984" y1="13.0559" x2="18.5541" y2="11.3398" gradientUnits="userSpaceOnUse">
      <stop stop-color="#18A4FF"/>
      <stop offset="1" stop-color="#05C37F"/>
    </linearGradient>
  </defs>
</svg>