<svg xmlns="http://www.w3.org/2000/svg" width="60" height="60" viewBox="0 0 60 60" fill="none">
  <g clip-path="url(#clip0_0_11488)">
    <path d="M16.9658 9.62109H20.9368V14.9786H16.9658V9.62109Z" stroke="url(#paint0_linear_0_11488)" stroke-width="1.75781" stroke-miterlimit="10" stroke-linecap="round" stroke-linejoin="round"/>
    <path d="M43.1154 29.6H49.4203M43.1154 33.1087H49.4203M43.1154 19.7488H49.4203M43.1154 23.2542H49.4203M43.1154 10.4104H49.4203M43.1154 13.9157H49.4203" stroke="#606564" stroke-width="1.75781" stroke-miterlimit="10" stroke-linecap="round" stroke-linejoin="round"/>
    <path d="M37.4262 42.6259L38.5999 50.6823M21.3968 50.6823L22.5706 42.6259M11.334 9.6211H26.5719C26.9879 9.6211 27.3295 9.96188 27.3295 10.3768V24.101C27.3295 24.516 26.9879 24.8568 26.5719 24.8568H11.334C10.918 24.8568 10.5764 24.516 10.5764 24.101V10.3767C10.5764 9.96176 10.918 9.6211 11.334 9.6211ZM26.8357 28.8342H11.0702C10.7963 28.8342 10.5764 29.0772 10.5764 29.3706V33.0648C10.5764 33.3616 10.7963 33.6046 11.0702 33.6046H26.8358C27.1064 33.6046 27.3297 33.3616 27.3297 33.0648V29.3707C27.3295 29.0772 27.1063 28.8342 26.8357 28.8342ZM33.7765 18.9594H37.6561C37.9098 18.9594 38.1195 19.1652 38.1195 19.4216V23.2913C38.1195 23.5477 37.9097 23.7534 37.6561 23.7534H33.7765C33.7157 23.7537 33.6554 23.742 33.5991 23.7189C33.5428 23.6957 33.4917 23.6617 33.4486 23.6188C33.4056 23.5758 33.3714 23.5248 33.3482 23.4685C33.3249 23.4123 33.313 23.3521 33.3131 23.2913V19.4216C33.313 19.3608 33.3249 19.3005 33.3482 19.2443C33.3715 19.1881 33.4056 19.1371 33.4487 19.0941C33.4917 19.0512 33.5429 19.0172 33.5991 18.994C33.6554 18.9709 33.7157 18.9592 33.7765 18.9594ZM33.7765 28.8107H37.6561C37.9098 28.8107 38.1195 29.0198 38.1195 29.2729V33.1425C38.1195 33.3989 37.9097 33.6047 37.6561 33.6047H33.7765C33.7157 33.605 33.6554 33.5932 33.5991 33.5701C33.5428 33.547 33.4917 33.513 33.4486 33.47C33.4056 33.4271 33.3714 33.376 33.3482 33.3198C33.3249 33.2636 33.313 33.2033 33.3131 33.1425V29.2729C33.3135 29.1502 33.3624 29.0326 33.4493 28.946C33.5362 28.8594 33.6538 28.8107 33.7765 28.8107ZM33.7765 9.6211H37.6561C37.9098 9.6211 38.1195 9.82688 38.1195 10.0833V13.9529C38.1195 14.2059 37.9097 14.4151 37.6561 14.4151H33.7765C33.6538 14.4151 33.5362 14.3664 33.4493 14.2798C33.3624 14.1932 33.3135 14.0756 33.3131 13.9529V10.0833C33.313 10.0225 33.3249 9.9622 33.3482 9.906C33.3714 9.84979 33.4056 9.79874 33.4486 9.75578C33.4917 9.71282 33.5428 9.67881 33.5991 9.65569C33.6554 9.63258 33.7157 9.62082 33.7765 9.6211ZM29.5078 46.1818H30.4887C31.7301 46.1818 32.7448 47.194 32.7448 48.4321V50.6823H27.2517V48.4321C27.2517 47.1939 28.2665 46.1818 29.5078 46.1818Z" stroke="url(#paint1_linear_0_11488)" stroke-width="1.75781" stroke-miterlimit="10" stroke-linecap="round" stroke-linejoin="round"/>
    <path d="M32.021 4.70898H54.3654C54.7509 4.70898 55.069 5.02609 55.069 5.4107V38.0714C55.069 38.4595 54.7511 38.7732 54.3654 38.7732H32.3355M28.2022 38.7732H5.63461C5.24566 38.7732 4.92773 38.4595 4.92773 38.0714V5.4107C4.92773 5.02609 5.24566 4.70898 5.63461 4.70898H27.8911" stroke="#606564" stroke-width="1.75781" stroke-miterlimit="10" stroke-linecap="round" stroke-linejoin="round"/>
    <path d="M3.71672 0.859619H56.2798C57.8425 0.859619 59.121 2.13146 59.121 3.69017V39.7955C59.121 41.3508 57.8425 42.6261 56.2798 42.6261H3.71672C2.15402 42.6261 0.878906 41.3508 0.878906 39.7955V3.69017C0.878906 2.13146 2.15414 0.859619 3.71672 0.859619ZM15.305 55.6249H44.6917C45.0469 55.6249 45.3377 55.3347 45.3377 54.9772V53.152C45.3377 51.7924 44.2249 50.6825 42.8618 50.6825H17.1383C15.7752 50.6825 14.659 51.7925 14.659 53.152V54.9772C14.659 55.3347 14.9498 55.6249 15.305 55.6249Z" stroke="#606564" stroke-width="1.75781" stroke-miterlimit="10" stroke-linecap="round" stroke-linejoin="round"/>
  </g>
  <defs>
    <linearGradient id="paint0_linear_0_11488" x1="16.9658" y1="10.0333" x2="19.6563" y2="9.40325" gradientUnits="userSpaceOnUse">
      <stop stop-color="#18A4FF"/>
      <stop offset="1" stop-color="#05C37F"/>
    </linearGradient>
    <linearGradient id="paint1_linear_0_11488" x1="10.5764" y1="12.7804" x2="29.7149" y2="8.65375" gradientUnits="userSpaceOnUse">
      <stop stop-color="#18A4FF"/>
      <stop offset="1" stop-color="#05C37F"/>
    </linearGradient>
    <clipPath id="clip0_0_11488">
      <rect width="60" height="60" fill="white"/>
    </clipPath>
  </defs>
</svg>