<svg xmlns="http://www.w3.org/2000/svg" width="32" height="32" viewBox="0 0 32 32" fill="none">
  <g clip-path="url(#clip0_0_11604)">
    <path d="M22.5428 10.1863L27.9869 4.74223C28.5214 5.096 29.1682 5.23866 29.8019 5.14254C30.4356 5.04641 31.0111 4.71835 31.4166 4.22199C31.8221 3.72563 32.0289 3.09635 31.9967 2.45619C31.9646 1.81603 31.6958 1.21062 31.2426 0.757392C30.7894 0.30416 30.184 0.0354069 29.5438 0.00325726C28.9037 -0.0288924 28.2744 0.177853 27.778 0.583395C27.2816 0.988936 26.9536 1.56437 26.8575 2.19809C26.7613 2.8318 26.904 3.47864 27.2578 4.01313L21.8137 9.45716C20.3462 8.14812 18.4789 7.37397 16.5156 7.26057V5.12019C17.1416 4.99241 17.6979 4.63674 18.0765 4.12214C18.4552 3.60754 18.6293 2.97067 18.5651 2.335C18.5009 1.69933 18.2029 1.11014 17.729 0.681672C17.2551 0.253202 16.6389 0.0159707 16 0.0159707C15.3611 0.0159707 14.7449 0.253202 14.271 0.681672C13.7971 1.11014 13.4991 1.69933 13.4349 2.335C13.3707 2.97067 13.5448 3.60754 13.9235 4.12214C14.3021 4.63674 14.8584 4.99241 15.4844 5.12019V7.26109C13.5211 7.37448 11.6538 8.14863 10.1863 9.45768L4.74223 4.01313C5.096 3.47864 5.23866 2.8318 5.14254 2.19809C5.04641 1.56437 4.71835 0.988936 4.22199 0.583395C3.72563 0.177853 3.09635 -0.0288924 2.45619 0.00325726C1.81603 0.0354069 1.21062 0.30416 0.757392 0.757392C0.30416 1.21062 0.0354069 1.81603 0.00325726 2.45619C-0.0288924 3.09635 0.177853 3.72563 0.583395 4.22199C0.988936 4.71835 1.56437 5.04641 2.19809 5.14254C2.8318 5.23866 3.47864 5.096 4.01313 4.74223L9.45716 10.1863C8.14812 11.6538 7.37397 13.5211 7.26057 15.4844H5.12019C4.99241 14.8584 4.63674 14.3021 4.12214 13.9235C3.60754 13.5448 2.97067 13.3707 2.335 13.4349C1.69933 13.4991 1.11014 13.7971 0.681672 14.271C0.253202 14.7449 0.0159707 15.3611 0.0159707 16C0.0159707 16.6389 0.253202 17.2551 0.681672 17.729C1.11014 18.2029 1.69933 18.5009 2.335 18.5651C2.97067 18.6293 3.60754 18.4552 4.12214 18.0765C4.63674 17.6979 4.99241 17.1416 5.12019 16.5156H7.26109C7.37448 18.4789 8.14863 20.3462 9.45768 21.8137L4.01313 27.2578C3.47864 26.904 2.8318 26.7613 2.19809 26.8575C1.56437 26.9536 0.988936 27.2816 0.583395 27.778C0.177853 28.2744 -0.0288924 28.9037 0.00325726 29.5438C0.0354069 30.184 0.30416 30.7894 0.757392 31.2426C1.21062 31.6958 1.81603 31.9646 2.45619 31.9967C3.09635 32.0289 3.72563 31.8221 4.22199 31.4166C4.71835 31.0111 5.04641 30.4356 5.14254 29.8019C5.23866 29.1682 5.096 28.5214 4.74223 27.9869L10.1863 22.5428C11.6538 23.8519 13.5211 24.626 15.4844 24.7394V26.8798C14.8584 27.0076 14.3021 27.3633 13.9235 27.8779C13.5448 28.3925 13.3707 29.0293 13.4349 29.665C13.4991 30.3007 13.7971 30.8899 14.271 31.3183C14.7449 31.7468 15.3611 31.984 16 31.984C16.6389 31.984 17.2551 31.7468 17.729 31.3183C18.2029 30.8899 18.5009 30.3007 18.5651 29.665C18.6293 29.0293 18.4552 28.3925 18.0765 27.8779C17.6979 27.3633 17.1416 27.0076 16.5156 26.8798V24.7394C18.4789 24.626 20.3462 23.8519 21.8137 22.5428L27.2578 27.9869C26.904 28.5214 26.7613 29.1682 26.8575 29.8019C26.9536 30.4356 27.2816 31.0111 27.778 31.4166C28.2744 31.8221 28.9037 32.0289 29.5438 31.9967C30.184 31.9646 30.7894 31.6958 31.2426 31.2426C31.6958 30.7894 31.9646 30.184 31.9967 29.5438C32.0289 28.9037 31.8221 28.2744 31.4166 27.778C31.0111 27.2816 30.4356 26.9536 29.8019 26.8575C29.1682 26.7613 28.5214 26.904 27.9869 27.2578L22.5428 21.8137C23.8519 20.3462 24.626 18.4789 24.7394 16.5156H26.8798C27.0076 17.1416 27.3633 17.6979 27.8779 18.0765C28.3925 18.4552 29.0293 18.6293 29.665 18.5651C30.3007 18.5009 30.8899 18.2029 31.3183 17.729C31.7468 17.2551 31.984 16.6389 31.984 16C31.984 15.3611 31.7468 14.7449 31.3183 14.271C30.8899 13.7971 30.3007 13.4991 29.665 13.4349C29.0293 13.3707 28.3925 13.5448 27.8779 13.9235C27.3633 14.3021 27.0076 14.8584 26.8798 15.4844H24.7394C24.626 13.5211 23.8519 11.6538 22.5428 10.1863ZM2.5936 17.5469C2.28765 17.5469 1.98858 17.4562 1.73419 17.2862C1.47981 17.1162 1.28154 16.8746 1.16446 16.592C1.04738 16.3093 1.01674 15.9983 1.07643 15.6982C1.13612 15.3981 1.28344 15.1225 1.49978 14.9062C1.71612 14.6898 1.99175 14.5425 2.29182 14.4828C2.59188 14.4231 2.90291 14.4538 3.18557 14.5709C3.46823 14.6879 3.70982 14.8862 3.87979 15.1406C4.04977 15.395 4.14049 15.6941 4.14049 16C4.14049 16.4103 3.97752 16.8037 3.68742 17.0938C3.39732 17.3839 3.00386 17.5469 2.5936 17.5469ZM29.4064 14.4531C29.7123 14.4531 30.0114 14.5438 30.2658 14.7138C30.5202 14.8838 30.7185 15.1254 30.8355 15.408C30.9526 15.6907 30.9833 16.0017 30.9236 16.3018C30.8639 16.6019 30.7166 16.8775 30.5002 17.0938C30.2839 17.3102 30.0083 17.4575 29.7082 17.5172C29.4081 17.5769 29.0971 17.5462 28.8144 17.4291C28.5318 17.3121 28.2902 17.1138 28.1202 16.8594C27.9502 16.605 27.8595 16.3059 27.8595 16C27.8595 15.5897 28.0225 15.1963 28.3126 14.9062C28.6027 14.6161 28.9961 14.4531 29.4064 14.4531ZM29.4064 1.04671C29.7123 1.04671 30.0114 1.13743 30.2658 1.3074C30.5202 1.47738 30.7185 1.71897 30.8355 2.00163C30.9526 2.28429 30.9833 2.59531 30.9236 2.89538C30.8639 3.19545 30.7166 3.47108 30.5002 3.68742C30.2839 3.90375 30.0083 4.05108 29.7082 4.11077C29.4081 4.17046 29.0971 4.13982 28.8144 4.02274C28.5318 3.90566 28.2902 3.70739 28.1202 3.45301C27.9502 3.19862 27.8595 2.89955 27.8595 2.5936C27.8595 2.18334 28.0225 1.78988 28.3126 1.49978C28.6027 1.20968 28.9961 1.04671 29.4064 1.04671ZM14.4531 2.5936C14.4531 2.28765 14.5438 1.98858 14.7138 1.73419C14.8838 1.47981 15.1254 1.28154 15.408 1.16446C15.6907 1.04738 16.0017 1.01674 16.3018 1.07643C16.6019 1.13612 16.8775 1.28344 17.0938 1.49978C17.3102 1.71612 17.4575 1.99175 17.5172 2.29182C17.5769 2.59188 17.5462 2.90291 17.4291 3.18557C17.3121 3.46823 17.1138 3.70982 16.8594 3.87979C16.605 4.04977 16.3059 4.14049 16 4.14049C15.5897 4.14049 15.1963 3.97752 14.9062 3.68742C14.6161 3.39732 14.4531 3.00386 14.4531 2.5936ZM2.5936 4.14049C2.28765 4.14049 1.98858 4.04977 1.73419 3.87979C1.47981 3.70982 1.28154 3.46823 1.16446 3.18557C1.04738 2.90291 1.01674 2.59188 1.07643 2.29182C1.13612 1.99175 1.28344 1.71612 1.49978 1.49978C1.71612 1.28344 1.99175 1.13612 2.29182 1.07643C2.59188 1.01674 2.90291 1.04738 3.18557 1.16446C3.46823 1.28154 3.70982 1.47981 3.87979 1.73419C4.04977 1.98858 4.14049 2.28765 4.14049 2.5936C4.14049 3.00386 3.97752 3.39732 3.68742 3.68742C3.39732 3.97752 3.00386 4.14049 2.5936 4.14049ZM2.5936 30.9533C2.28765 30.9533 1.98858 30.8626 1.73419 30.6926C1.47981 30.5226 1.28154 30.281 1.16446 29.9984C1.04738 29.7157 1.01674 29.4047 1.07643 29.1046C1.13612 28.8046 1.28344 28.5289 1.49978 28.3126C1.71612 28.0962 1.99175 27.9489 2.29182 27.8892C2.59188 27.8295 2.90291 27.8602 3.18557 27.9773C3.46823 28.0943 3.70982 28.2926 3.87979 28.547C4.04977 28.8014 4.14049 29.1005 4.14049 29.4064C4.14049 29.8167 3.97752 30.2101 3.68742 30.5002C3.39732 30.7903 3.00386 30.9533 2.5936 30.9533ZM17.5469 29.4064C17.5469 29.7123 17.4562 30.0114 17.2862 30.2658C17.1162 30.5202 16.8746 30.7185 16.592 30.8355C16.3093 30.9526 15.9983 30.9833 15.6982 30.9236C15.3981 30.8639 15.1225 30.7166 14.9062 30.5002C14.6898 30.2839 14.5425 30.0083 14.4828 29.7082C14.4231 29.4081 14.4538 29.0971 14.5709 28.8144C14.6879 28.5318 14.8862 28.2902 15.1406 28.1202C15.395 27.9502 15.6941 27.8595 16 27.8595C16.4103 27.8595 16.8037 28.0225 17.0938 28.3126C17.3839 28.6027 17.5469 28.9961 17.5469 29.4064ZM29.4064 27.8595C29.7123 27.8595 30.0114 27.9502 30.2658 28.1202C30.5202 28.2902 30.7185 28.5318 30.8355 28.8144C30.9526 29.0971 30.9833 29.4081 30.9236 29.7082C30.8639 30.0083 30.7166 30.2839 30.5002 30.5002C30.2839 30.7166 30.0083 30.8639 29.7082 30.9236C29.4081 30.9833 29.0971 30.9526 28.8144 30.8355C28.5318 30.7185 28.2902 30.5202 28.1202 30.2658C27.9502 30.0114 27.8595 29.7123 27.8595 29.4064C27.8595 28.9961 28.0225 28.6027 28.3126 28.3126C28.6027 28.0225 28.9961 27.8595 29.4064 27.8595ZM16 23.7345C14.4703 23.7345 12.9749 23.2808 11.703 22.431C10.431 21.5811 9.43969 20.3731 8.85429 18.9599C8.26889 17.5466 8.11572 15.9914 8.41415 14.4911C8.71259 12.9907 9.44923 11.6126 10.5309 10.5309C11.6126 9.44923 12.9907 8.71259 14.4911 8.41415C15.9914 8.11572 17.5466 8.26889 18.9599 8.85429C20.3731 9.43969 21.5811 10.431 22.431 11.703C23.2808 12.9749 23.7345 14.4703 23.7345 16C23.7321 18.0506 22.9165 20.0165 21.4665 21.4665C20.0165 22.9165 18.0506 23.7321 16 23.7345Z" fill="#040C1A"/>
    <path d="M20.7745 12.943L16.162 11.4013C16.0568 11.3662 15.9432 11.3662 15.838 11.4013L11.2255 12.943C11.1235 12.9771 11.0347 13.0425 10.9717 13.13C10.9088 13.2176 10.875 13.3227 10.875 13.4306V18.5694C10.875 18.6773 10.9088 18.7824 10.9717 18.87C11.0347 18.9575 11.1235 19.0229 11.2255 19.057L15.838 20.5987C15.9432 20.6338 16.0568 20.6338 16.162 20.5987L20.7745 19.057C20.8765 19.0229 20.9653 18.9575 21.0283 18.87C21.0912 18.7824 21.125 18.6773 21.125 18.5694V13.4306C21.125 13.3227 21.0912 13.2176 21.0283 13.13C20.9653 13.0425 20.8765 12.9771 20.7745 12.943ZM16 12.4291L18.992 13.4306L16 14.4306L13.008 13.4306L16 12.4291ZM11.9 14.1423L15.4875 15.3412V19.3962L11.9 18.1973V14.1423ZM16.5125 19.3962V15.3428L20.1 14.1439V18.1989L16.5125 19.3962Z" fill="#00A0AE"/>
  </g>
  <defs>
    <clipPath id="clip0_0_11604">
      <rect width="32" height="32" fill="white"/>
    </clipPath>
  </defs>
</svg>