<svg xmlns="http://www.w3.org/2000/svg" width="73" height="72" viewBox="0 0 73 72" fill="none">
  <g clip-path="url(#clip0_0_11881)">
    <path d="M39.4304 49.4662V54.1406V60.1579" stroke="url(#paint0_linear_0_11881)" stroke-width="1.75781" stroke-miterlimit="10" stroke-linecap="round" stroke-linejoin="round"/>
    <path d="M56.6179 11.277C58.1712 11.277 59.4304 10.0178 59.4304 8.46448C59.4304 6.91118 58.1712 5.65198 56.6179 5.65198C55.0646 5.65198 53.8054 6.91118 53.8054 8.46448C53.8054 10.0178 55.0646 11.277 56.6179 11.277Z" stroke="#606564" stroke-width="1.75781" stroke-miterlimit="10" stroke-linecap="round" stroke-linejoin="round"/>
    <path d="M50.7109 14.3718L54.3431 10.7395" stroke="#606564" stroke-width="1.75781" stroke-miterlimit="10" stroke-linecap="round" stroke-linejoin="round"/>
    <path d="M51.6792 32.6643H66.4185" stroke="#606564" stroke-width="1.75781" stroke-miterlimit="10" stroke-linecap="round" stroke-linejoin="round"/>
    <path d="M68.9496 35.0599C70.2727 35.0599 71.3453 33.9873 71.3453 32.6642C71.3453 31.3411 70.2727 30.2686 68.9496 30.2686C67.6265 30.2686 66.554 31.3411 66.554 32.6642C66.554 33.9873 67.6265 35.0599 68.9496 35.0599Z" stroke="#606564" stroke-width="1.75781" stroke-miterlimit="10" stroke-linecap="round" stroke-linejoin="round"/>
    <path d="M51.6792 42.1486H66.4185" stroke="#606564" stroke-width="1.75781" stroke-miterlimit="10" stroke-linecap="round" stroke-linejoin="round"/>
    <path d="M68.9496 44.5442C70.2727 44.5442 71.3453 43.4716 71.3453 42.1485C71.3453 40.8254 70.2727 39.7528 68.9496 39.7528C67.6265 39.7528 66.554 40.8254 66.554 42.1485C66.554 43.4716 67.6265 44.5442 68.9496 44.5442Z" stroke="#606564" stroke-width="1.75781" stroke-miterlimit="10" stroke-linecap="round" stroke-linejoin="round"/>
    <path d="M64.0098 22.8809C65.5631 22.8809 66.8223 21.6217 66.8223 20.0684C66.8223 18.5151 65.5631 17.2559 64.0098 17.2559C62.4565 17.2559 61.1973 18.5151 61.1973 20.0684C61.1973 21.6217 62.4565 22.8809 64.0098 22.8809Z" stroke="#606564" stroke-width="1.75781" stroke-miterlimit="10" stroke-linecap="round" stroke-linejoin="round"/>
    <path d="M51.6792 25.5755H57.6054C58.18 25.5755 58.731 25.3473 59.1372 24.941L61.8069 22.2714" stroke="#606564" stroke-width="1.75781" stroke-miterlimit="10" stroke-linecap="round" stroke-linejoin="round"/>
    <path d="M64.0098 57.557C65.5631 57.557 66.8223 56.2978 66.8223 54.7445C66.8223 53.1912 65.5631 51.932 64.0098 51.932C62.4565 51.932 61.1973 53.1912 61.1973 54.7445C61.1973 56.2978 62.4565 57.557 64.0098 57.557Z" stroke="#606564" stroke-width="1.75781" stroke-miterlimit="10" stroke-linecap="round" stroke-linejoin="round"/>
    <path d="M51.6792 49.2373H57.6054C58.18 49.2373 58.731 49.4655 59.1372 49.8718L61.8069 52.5414" stroke="#606564" stroke-width="1.75781" stroke-miterlimit="10" stroke-linecap="round" stroke-linejoin="round"/>
    <path d="M18.9945 8.46448C18.9945 10.0178 17.7353 11.277 16.1821 11.277C14.6289 11.277 13.3698 10.0178 13.3698 8.46448C13.3698 6.91113 14.6289 5.65198 16.1821 5.65198C17.7353 5.65198 18.9945 6.91113 18.9945 8.46448Z" stroke="#606564" stroke-width="1.75781" stroke-miterlimit="10" stroke-linecap="round" stroke-linejoin="round"/>
    <path d="M22.1628 14.4455L18.4569 10.7395" stroke="#606564" stroke-width="1.75781" stroke-miterlimit="10" stroke-linecap="round" stroke-linejoin="round"/>
    <path d="M9.50267 32.6644H6.3822" stroke="url(#paint1_linear_0_11881)" stroke-width="1.75781" stroke-miterlimit="10" stroke-linecap="round" stroke-linejoin="round"/>
    <path d="M21.2617 32.6644H14.4246" stroke="#606564" stroke-width="1.75781" stroke-miterlimit="10" stroke-linecap="round" stroke-linejoin="round"/>
    <path d="M3.8504 35.0599C5.1735 35.0599 6.24609 33.9873 6.24609 32.6642C6.24609 31.3411 5.1735 30.2686 3.8504 30.2686C2.5273 30.2686 1.45471 31.3411 1.45471 32.6642C1.45471 33.9873 2.5273 35.0599 3.8504 35.0599Z" stroke="url(#paint2_linear_0_11881)" stroke-width="1.75781" stroke-miterlimit="10" stroke-linecap="round" stroke-linejoin="round"/>
    <path d="M21.2615 42.1486H6.38159" stroke="#606564" stroke-width="1.75781" stroke-miterlimit="10" stroke-linecap="round" stroke-linejoin="round"/>
    <path d="M3.8504 44.5442C5.1735 44.5442 6.24609 43.4716 6.24609 42.1485C6.24609 40.8254 5.1735 39.7528 3.8504 39.7528C2.5273 39.7528 1.45471 40.8254 1.45471 42.1485C1.45471 43.4716 2.5273 44.5442 3.8504 44.5442Z" stroke="#606564" stroke-width="1.75781" stroke-miterlimit="10" stroke-linecap="round" stroke-linejoin="round"/>
    <path d="M8.79028 22.8809C10.3436 22.8809 11.6028 21.6217 11.6028 20.0684C11.6028 18.5151 10.3436 17.2559 8.79028 17.2559C7.23698 17.2559 5.97778 18.5151 5.97778 20.0684C5.97778 21.6217 7.23698 22.8809 8.79028 22.8809Z" stroke="#606564" stroke-width="1.75781" stroke-miterlimit="10" stroke-linecap="round" stroke-linejoin="round"/>
    <path d="M21.2615 25.5755H15.1946C14.62 25.5755 14.0691 25.3473 13.6628 24.941L10.9932 22.2714" stroke="#606564" stroke-width="1.75781" stroke-miterlimit="10" stroke-linecap="round" stroke-linejoin="round"/>
    <path d="M8.79028 57.557C10.3436 57.557 11.6028 56.2978 11.6028 54.7445C11.6028 53.1912 10.3436 51.932 8.79028 51.932C7.23698 51.932 5.97778 53.1912 5.97778 54.7445C5.97778 56.2978 7.23698 57.557 8.79028 57.557Z" stroke="#606564" stroke-width="1.75781" stroke-miterlimit="10" stroke-linecap="round" stroke-linejoin="round"/>
    <path d="M21.2615 49.2373H15.1946C14.62 49.2373 14.0691 49.4655 13.6628 49.8718L10.9932 52.5414" stroke="#606564" stroke-width="1.75781" stroke-miterlimit="10" stroke-linecap="round" stroke-linejoin="round"/>
    <path d="M51.5537 55.6087V40.1357" stroke="#606564" stroke-width="1.75781" stroke-miterlimit="10" stroke-linecap="round" stroke-linejoin="round"/>
    <path d="M29.2661 13.7123H48.3194C50.1053 13.7123 51.5538 15.1607 51.5538 16.9467V35.2138" stroke="#606564" stroke-width="1.75781" stroke-miterlimit="10" stroke-linecap="round" stroke-linejoin="round"/>
    <path d="M24.3442 13.7208C22.6595 13.8319 21.3264 15.234 21.3264 16.9468V56.1952C21.3264 57.9811 22.7749 58.0233 24.5608 58.0233H33.2978" stroke="#606564" stroke-width="1.75781" stroke-miterlimit="10" stroke-linecap="round" stroke-linejoin="round"/>
    <path d="M31.8342 18.4092H37.1676" stroke="url(#paint3_linear_0_11881)" stroke-width="1.75781" stroke-miterlimit="10" stroke-linecap="round" stroke-linejoin="round"/>
    <path d="M51.554 57.9049C51.554 56.2307 52.9106 54.8729 54.586 54.8729C55.4218 54.8729 56.1798 55.2118 56.7277 55.7597C57.2767 56.3087 57.6156 57.0656 57.6167 57.9027V70.9454" stroke="url(#paint4_linear_0_11881)" stroke-width="1.75781" stroke-miterlimit="10" stroke-linecap="round" stroke-linejoin="round"/>
    <path d="M33.2976 61.2008L30.5827 63.1033C29.0064 64.2079 28.0679 66.0117 28.0679 67.9365V70.9453" stroke="url(#paint5_linear_0_11881)" stroke-width="1.75781" stroke-miterlimit="10" stroke-linecap="round" stroke-linejoin="round"/>
    <path d="M45.4922 55.6095C45.4922 53.9356 46.8491 52.5787 48.5228 52.5787H48.5231C50.1968 52.5787 51.5537 53.9356 51.5537 55.6095V60.9842" stroke="url(#paint6_linear_0_11881)" stroke-width="1.75781" stroke-miterlimit="10" stroke-linecap="round" stroke-linejoin="round"/>
    <path d="M39.4308 54.141C39.4308 52.4671 40.7877 51.1102 42.4615 51.1102C44.1354 51.1102 45.4923 52.4671 45.4923 54.141V60.1573" stroke="url(#paint7_linear_0_11881)" stroke-width="1.75781" stroke-miterlimit="10" stroke-linecap="round" stroke-linejoin="round"/>
    <path d="M33.3696 67.0893V43.3026C33.3696 41.6278 34.7253 40.2708 36.4001 40.2708C37.2368 40.2708 37.9948 40.6097 38.5432 41.1595C39.0917 41.7065 39.4306 42.4645 39.4306 43.3026V44.5443" stroke="url(#paint8_linear_0_11881)" stroke-width="1.75781" stroke-miterlimit="10" stroke-linecap="round" stroke-linejoin="round"/>
    <path d="M41.1405 13.3178V5.98157" stroke="#606564" stroke-width="1.75781" stroke-miterlimit="10" stroke-linecap="round" stroke-linejoin="round"/>
    <path d="M31.6619 13.3178V5.98157" stroke="#606564" stroke-width="1.75781" stroke-miterlimit="10" stroke-linecap="round" stroke-linejoin="round"/>
    <path d="M31.6618 5.84619C32.9849 5.84619 34.0575 4.7736 34.0575 3.4505C34.0575 2.1274 32.9849 1.05481 31.6618 1.05481C30.3387 1.05481 29.2661 2.1274 29.2661 3.4505C29.2661 4.7736 30.3387 5.84619 31.6618 5.84619Z" stroke="#606564" stroke-width="1.75781" stroke-miterlimit="10" stroke-linecap="round" stroke-linejoin="round"/>
    <path d="M41.1404 5.84619C42.4635 5.84619 43.5361 4.7736 43.5361 3.4505C43.5361 2.1274 42.4635 1.05481 41.1404 1.05481C39.8173 1.05481 38.7448 2.1274 38.7448 3.4505C38.7448 4.7736 39.8173 5.84619 41.1404 5.84619Z" stroke="#606564" stroke-width="1.75781" stroke-miterlimit="10" stroke-linecap="round" stroke-linejoin="round"/>
    <path d="M27.3009 34.2027C29.632 31.8714 32.8507 30.4276 36.4 30.4276C39.9494 30.4276 43.168 31.8716 45.4992 34.2027" stroke="url(#paint9_linear_0_11881)" stroke-width="1.75781" stroke-miterlimit="10" stroke-linecap="round" stroke-linejoin="round"/>
    <path d="M30.7794 37.6813C32.2194 36.2413 34.2076 35.3494 36.4001 35.3494C38.5925 35.3494 40.5807 36.2412 42.0207 37.6813" stroke="url(#paint10_linear_0_11881)" stroke-width="1.75781" stroke-miterlimit="10" stroke-linecap="round" stroke-linejoin="round"/>
  </g>
  <defs>
    <linearGradient id="paint0_linear_0_11881" x1="39.4304" y1="50.2888" x2="40.1445" y2="50.2677" gradientUnits="userSpaceOnUse">
      <stop stop-color="#18A4FF"/>
      <stop offset="1" stop-color="#05C37F"/>
    </linearGradient>
    <linearGradient id="paint1_linear_0_11881" x1="6.3822" y1="32.7414" x2="7.51315" y2="31.6264" gradientUnits="userSpaceOnUse">
      <stop stop-color="#18A4FF"/>
      <stop offset="1" stop-color="#05C37F"/>
    </linearGradient>
    <linearGradient id="paint2_linear_0_11881" x1="1.45471" y1="30.6372" x2="4.56829" y2="29.6535" gradientUnits="userSpaceOnUse">
      <stop stop-color="#18A4FF"/>
      <stop offset="1" stop-color="#05C37F"/>
    </linearGradient>
    <linearGradient id="paint3_linear_0_11881" x1="31.8342" y1="18.4861" x2="32.827" y2="16.8132" gradientUnits="userSpaceOnUse">
      <stop stop-color="#18A4FF"/>
      <stop offset="1" stop-color="#05C37F"/>
    </linearGradient>
    <linearGradient id="paint4_linear_0_11881" x1="51.554" y1="56.1096" x2="55.8263" y2="55.6004" gradientUnits="userSpaceOnUse">
      <stop stop-color="#18A4FF"/>
      <stop offset="1" stop-color="#05C37F"/>
    </linearGradient>
    <linearGradient id="paint5_linear_0_11881" x1="28.0679" y1="61.9506" x2="31.7011" y2="61.3345" gradientUnits="userSpaceOnUse">
      <stop stop-color="#18A4FF"/>
      <stop offset="1" stop-color="#05C37F"/>
    </linearGradient>
    <linearGradient id="paint6_linear_0_11881" x1="45.4922" y1="53.2255" x2="49.6105" y2="52.2872" gradientUnits="userSpaceOnUse">
      <stop stop-color="#18A4FF"/>
      <stop offset="1" stop-color="#05C37F"/>
    </linearGradient>
    <linearGradient id="paint7_linear_0_11881" x1="39.4308" y1="51.8063" x2="43.5771" y2="50.9286" gradientUnits="userSpaceOnUse">
      <stop stop-color="#18A4FF"/>
      <stop offset="1" stop-color="#05C37F"/>
    </linearGradient>
    <linearGradient id="paint8_linear_0_11881" x1="33.3696" y1="42.3342" x2="37.6794" y2="42.0265" gradientUnits="userSpaceOnUse">
      <stop stop-color="#18A4FF"/>
      <stop offset="1" stop-color="#05C37F"/>
    </linearGradient>
    <linearGradient id="paint9_linear_0_11881" x1="27.3009" y1="30.7181" x2="31.2189" y2="24.7509" gradientUnits="userSpaceOnUse">
      <stop stop-color="#18A4FF"/>
      <stop offset="1" stop-color="#05C37F"/>
    </linearGradient>
    <linearGradient id="paint10_linear_0_11881" x1="30.7794" y1="35.5288" x2="33.1997" y2="31.8427" gradientUnits="userSpaceOnUse">
      <stop stop-color="#18A4FF"/>
      <stop offset="1" stop-color="#05C37F"/>
    </linearGradient>
    <clipPath id="clip0_0_11881">
      <rect width="72" height="72" fill="white" transform="translate(0.400024)"/>
    </clipPath>
  </defs>
</svg>