<svg xmlns="http://www.w3.org/2000/svg" width="60" height="60" viewBox="0 0 60 60" fill="none">
  <g clip-path="url(#clip0_0_11540)">
    <path d="M37.2803 53.6608L36.3183 54.6228C36.0462 54.8948 35.7233 55.1106 35.3678 55.2579C35.0123 55.4051 34.6314 55.4809 34.2466 55.4808H25.7532C24.9762 55.4808 24.2311 55.1722 23.6816 54.6228L22.7196 53.6608H1.75781C1.52471 53.6608 1.30116 53.7534 1.13633 53.9182C0.971505 54.0831 0.878906 54.3066 0.878906 54.5397V56.1913C0.878906 57.8094 2.19059 59.121 3.80859 59.121H56.1914C57.8094 59.121 59.1211 57.8094 59.1211 56.1913V54.5397C59.1211 54.3066 59.0285 54.0831 58.8637 53.9182C58.6988 53.7534 58.4753 53.6608 58.2422 53.6608H37.2803ZM16.1498 53.6608H3.80859C2.19059 53.6608 0.878906 52.3491 0.878906 50.7311V29.2896C0.878906 27.6715 2.19059 26.3599 3.80859 26.3599H16.1498C17.7679 26.3599 19.0795 27.6715 19.0795 29.2896V50.7312C19.0795 52.3491 17.768 53.6608 16.1498 53.6608Z" stroke="#606564" stroke-width="1.75781" stroke-miterlimit="10" stroke-linecap="round" stroke-linejoin="round"/>
    <path d="M30.6759 15.4394L34.3161 11.7992C35.0269 11.0885 35.0269 9.93605 34.3161 9.2252C33.6054 8.51445 32.453 8.51445 31.7422 9.2252L29.1682 11.7992L27.8813 10.5123C27.1705 9.80152 26.0181 9.80152 25.3073 10.5123C24.5966 11.223 24.5966 12.3754 25.3073 13.0863L27.8773 15.6562L27.8813 15.6602C27.9123 15.6913 27.9443 15.7209 27.9769 15.7493" stroke="url(#paint0_linear_0_11540)" stroke-width="1.75781" stroke-miterlimit="10" stroke-linecap="round" stroke-linejoin="round"/>
    <path d="M15.4395 42.1273V30.5859C15.4395 30.4305 15.3777 30.2815 15.2678 30.1716C15.1579 30.0617 15.0089 30 14.8535 30H12.3123C12.0412 30 11.81 30.187 11.7432 30.4498C11.5431 31.2375 10.8292 31.82 9.97922 31.82C9.12926 31.82 8.41535 31.2374 8.21519 30.4498C8.1484 30.1872 7.91719 30 7.64613 30H5.10492C4.94952 30 4.80048 30.0617 4.6906 30.1716C4.58071 30.2815 4.51898 30.4305 4.51898 30.5859V49.4348C4.51898 49.5902 4.58071 49.7393 4.6906 49.8492C4.80048 49.9591 4.94952 50.0208 5.10492 50.0208H14.8535C15.0089 50.0208 15.1579 49.9591 15.2678 49.8492C15.3777 49.7393 15.4395 49.5902 15.4395 49.4348V46.2288M56.1914 40.9205H29.2896C27.6716 40.9205 26.3599 39.6088 26.3599 37.9908V18.3691C26.3599 16.7511 27.6716 15.4395 29.2896 15.4395H56.1914C57.8094 15.4395 59.1211 16.7511 59.1211 18.3691V37.9908C59.1211 39.6088 57.8094 40.9205 56.1914 40.9205Z" stroke="#606564" stroke-width="1.75781" stroke-miterlimit="10" stroke-linecap="round" stroke-linejoin="round"/>
    <path d="M44.3858 37.2803H30V19.0796H51.8408V37.2803H48.4874M55.481 53.6609V40.9205M26.3598 19.0796H7.44867C5.83066 19.0796 4.51898 20.3913 4.51898 22.0093V26.3599M19.0795 50.0208H51.8408V40.9205" stroke="#606564" stroke-width="1.75781" stroke-miterlimit="10" stroke-linecap="round" stroke-linejoin="round"/>
    <path d="M38.3074 28.18L40.0494 29.922L43.5334 26.438M8.15918 40.0104L9.37254 41.2238L11.7994 38.797" stroke="url(#paint1_linear_0_11540)" stroke-width="1.75781" stroke-miterlimit="10" stroke-linecap="round" stroke-linejoin="round"/>
    <path d="M15.7317 22.7197H8.15918V26.3599M26.3598 22.7197H19.8333M38.4956 15.4395C38.5894 15.2209 38.6747 14.9989 38.7512 14.7737C38.807 14.611 38.9247 14.4769 39.0787 14.4004L40.5561 13.6616C40.6656 13.6069 40.7577 13.5227 40.8221 13.4186C40.8864 13.3145 40.9205 13.1945 40.9205 13.072V10.5267C40.9205 10.4043 40.8864 10.2843 40.822 10.1802C40.7577 10.0761 40.6656 9.99191 40.5561 9.93716L39.0787 9.19853C38.9247 9.12199 38.807 8.98785 38.7512 8.82517C38.6223 8.44577 38.4687 8.07521 38.2914 7.71587C38.2156 7.56124 38.2038 7.38296 38.2586 7.2197L38.7811 5.65208C38.8198 5.53595 38.8254 5.41133 38.7973 5.29219C38.7692 5.17304 38.7084 5.06409 38.6218 4.97755L36.822 3.17767C36.7354 3.09108 36.6265 3.03032 36.5073 3.00219C36.3882 2.97406 36.2636 2.97968 36.1474 3.01841L34.5798 3.54095C34.4166 3.59584 34.2382 3.58405 34.0836 3.50813C33.7243 3.33078 33.3538 3.17717 32.9743 3.04829C32.8117 2.99251 32.6775 2.87487 32.601 2.72087L31.8623 1.24349C31.8076 1.134 31.7234 1.04193 31.6193 0.977582C31.5152 0.913233 31.3952 0.879149 31.2728 0.87915H28.7275C28.6051 0.879149 28.4851 0.913233 28.3809 0.977582C28.2768 1.04193 28.1926 1.134 28.1379 1.24349L27.3993 2.72087C27.3228 2.8749 27.1886 2.99255 27.0259 3.04829C26.6465 3.17722 26.2759 3.33083 25.9166 3.50813C25.762 3.58393 25.5837 3.59572 25.4204 3.54095L23.8528 3.01841C23.7367 2.97968 23.6121 2.97406 23.4929 3.00219C23.3738 3.03032 23.2648 3.09108 23.1783 3.17767L21.3784 4.97755C21.2918 5.06409 21.2311 5.17304 21.2029 5.29219C21.1748 5.41133 21.1804 5.53595 21.2191 5.65208L21.7417 7.2197C21.7966 7.38295 21.7848 7.56127 21.7089 7.71587C21.5315 8.07519 21.3779 8.44575 21.249 8.82517C21.1932 8.98788 21.0755 9.12203 20.9215 9.19853L19.4441 9.93716C19.3346 9.99191 19.2425 10.0761 19.1782 10.1802C19.1138 10.2843 19.0798 10.4043 19.0798 10.5267V13.072C19.0798 13.1945 19.1138 13.3144 19.1782 13.4186C19.2425 13.5227 19.3346 13.6069 19.4441 13.6616L20.9215 14.4004C21.0755 14.4769 21.1932 14.611 21.249 14.7737C21.3779 15.1531 21.5316 15.5237 21.7089 15.883C21.785 16.0375 21.7961 16.2158 21.7417 16.3792L21.2191 17.9468C21.1804 18.0629 21.1748 18.1876 21.2029 18.3067C21.2311 18.4258 21.2918 18.5348 21.3784 18.6213L21.8367 19.0797" stroke="#606564" stroke-width="1.75781" stroke-miterlimit="10" stroke-linecap="round" stroke-linejoin="round"/>
    <path d="M55.481 26.3599V29.9999" stroke="url(#paint2_linear_0_11540)" stroke-width="1.75781" stroke-miterlimit="10" stroke-linecap="round" stroke-linejoin="round"/>
  </g>
  <defs>
    <linearGradient id="paint0_linear_0_11540" x1="24.7743" y1="9.23513" x2="30.7575" y2="6.53643" gradientUnits="userSpaceOnUse">
      <stop stop-color="#18A4FF"/>
      <stop offset="1" stop-color="#05C37F"/>
    </linearGradient>
    <linearGradient id="paint1_linear_0_11540" x1="8.15918" y1="27.5756" x2="24.2485" y2="15.4142" gradientUnits="userSpaceOnUse">
      <stop stop-color="#18A4FF"/>
      <stop offset="1" stop-color="#05C37F"/>
    </linearGradient>
    <linearGradient id="paint2_linear_0_11540" x1="55.481" y1="26.6399" x2="56.1904" y2="26.5784" gradientUnits="userSpaceOnUse">
      <stop stop-color="#18A4FF"/>
      <stop offset="1" stop-color="#05C37F"/>
    </linearGradient>
    <clipPath id="clip0_0_11540">
      <rect width="60" height="60" fill="white"/>
    </clipPath>
  </defs>
</svg>