<svg width="332" height="227" viewBox="0 0 332 227" fill="none" xmlns="http://www.w3.org/2000/svg">
<path d="M331.534 16.7016C332.528 13.2942 330.573 9.71848 327.142 8.8085C292.9 -0.274304 257.152 -2.34606 222.048 2.74373C184.823 8.14111 149.191 21.466 117.558 41.8181C85.9258 62.1701 59.0304 89.075 38.6897 120.715C19.5081 150.551 6.57678 183.943 0.650085 218.87C0.0563059 222.369 2.5001 225.63 6.01282 226.138C9.52554 226.647 12.7766 224.209 13.3747 220.71C19.0353 187.604 31.3144 155.955 49.5012 127.665C68.8472 97.573 94.4272 71.9838 124.513 52.6271C154.598 33.2704 188.488 20.5972 223.893 15.4637C257.175 10.6379 291.068 12.5811 323.543 21.1515C326.975 22.0572 330.54 20.1089 331.534 16.7016Z" fill="url(#paint0_linear_0_11578)"/>
<defs>
<linearGradient id="paint0_linear_0_11578" x1="-3.05393" y1="40.467" x2="338.516" y2="-67.4484" gradientUnits="userSpaceOnUse">
<stop stop-color="#18A4FF"/>
<stop offset="1" stop-color="#05C37F"/>
</linearGradient>
</defs>
</svg>
