<svg xmlns="http://www.w3.org/2000/svg" width="73" height="72" viewBox="0 0 73 72" fill="none">
  <path d="M62.0212 57.4881V14.9251C62.0212 14.0282 61.6649 13.168 61.0308 12.5338L50.612 2.11535C50.298 1.80133 49.9252 1.55224 49.5149 1.3823C49.1046 1.21237 48.6648 1.12491 48.2207 1.12493H9.03975C8.74079 1.12493 8.45407 1.24369 8.24267 1.45509C8.03127 1.66649 7.91251 1.95321 7.91251 2.25217V65.379C7.91251 65.527 7.94166 65.6736 7.99831 65.8104C8.05496 65.9471 8.13799 66.0714 8.24267 66.1761C8.34734 66.2807 8.47161 66.3638 8.60837 66.4204C8.74514 66.4771 8.89172 66.5062 9.03975 66.5062H50.7486" stroke="#606564" stroke-width="1.75781" stroke-miterlimit="10" stroke-linecap="round" stroke-linejoin="round"/>
  <path d="M49.6211 1.82958V12.3977C49.6211 12.6966 49.7399 12.9833 49.9513 13.1947C50.1627 13.4061 50.4494 13.5249 50.7484 13.5249H61.3165" stroke="#606564" stroke-width="1.75781" stroke-miterlimit="10" stroke-linecap="round" stroke-linejoin="round"/>
  <path d="M14.6761 34.943V24.7976C14.6761 24.4987 14.7949 24.2119 15.0063 24.0005C15.2177 23.7891 15.5044 23.6704 15.8033 23.6704H20.3125C20.6114 23.6704 20.8982 23.7891 21.1096 24.0005C21.321 24.2119 21.4397 24.4987 21.4397 24.7976V34.943" stroke="url(#paint0_linear_0_11861)" stroke-width="1.75781" stroke-miterlimit="10" stroke-linecap="round" stroke-linejoin="round"/>
  <path d="M37.2213 34.943V29.3066C37.2213 29.0077 37.34 28.7209 37.5514 28.5095C37.7628 28.2981 38.0496 28.1794 38.3485 28.1794H42.8577C43.1566 28.1794 43.4433 28.2981 43.6547 28.5095C43.8661 28.7209 43.9849 29.0077 43.9849 29.3066V34.943" stroke="url(#paint1_linear_0_11861)" stroke-width="1.75781" stroke-miterlimit="10" stroke-linecap="round" stroke-linejoin="round"/>
  <path d="M32.7122 22.543V34.9429" stroke="#606564" stroke-width="1.75781" stroke-miterlimit="10" stroke-linecap="round" stroke-linejoin="round"/>
  <path d="M25.9488 34.943V15.7795C25.9488 15.4806 26.0675 15.1938 26.2789 14.9824C26.4903 14.771 26.777 14.6523 27.076 14.6523H31.5851C31.8841 14.6523 32.1708 14.771 32.3822 14.9824C32.5936 15.1938 32.7124 15.4806 32.7124 15.7795V18.0342" stroke="#606564" stroke-width="1.75781" stroke-miterlimit="10" stroke-linecap="round" stroke-linejoin="round"/>
  <path d="M48.4941 34.943V23.6704C48.4941 23.3714 48.6128 23.0847 48.8242 22.8733C49.0356 22.6619 49.3224 22.5431 49.6213 22.5431H54.1305C54.4294 22.5431 54.7161 22.6619 54.9275 22.8733C55.1389 23.0847 55.2577 23.3714 55.2577 23.6704V34.943" stroke="#606564" stroke-width="1.75781" stroke-miterlimit="10" stroke-linecap="round" stroke-linejoin="round"/>
  <path d="M53.0031 49.5975C53.0031 54.578 48.9656 58.6156 43.985 58.6156C39.0045 58.6156 34.9669 54.578 34.9669 49.5975C34.9669 44.617 39.0045 40.5794 43.985 40.5794C48.9656 40.5794 53.0031 44.617 53.0031 49.5975Z" stroke="url(#paint2_linear_0_11861)" stroke-width="1.75781" stroke-miterlimit="10" stroke-linecap="round" stroke-linejoin="round"/>
  <path d="M50.5373 56.1495L53.5433 59.1555" stroke="url(#paint3_linear_0_11861)" stroke-width="1.75781" stroke-miterlimit="10" stroke-linecap="round" stroke-linejoin="round"/>
  <path d="M63.1484 71.0154C62.8523 71.0158 62.559 70.9577 62.2855 70.8443C62.0119 70.731 61.7635 70.5646 61.5545 70.3549L53.6636 62.464C52.783 61.584 52.783 60.1561 53.6636 59.276C54.5432 58.3953 55.9721 58.3953 56.8517 59.276L64.7424 67.1668C65.6231 68.0469 65.6231 69.4747 64.7424 70.3549C64.5334 70.5646 64.2849 70.731 64.0114 70.8443C63.7378 70.9577 63.4445 71.0158 63.1484 71.0154Z" stroke="url(#paint4_linear_0_11861)" stroke-width="1.75781" stroke-miterlimit="10" stroke-linecap="round" stroke-linejoin="round"/>
  <path d="M55.8916 63.7587L58.1461 61.5042" stroke="url(#paint5_linear_0_11861)" stroke-width="1.75781" stroke-miterlimit="10" stroke-linecap="round" stroke-linejoin="round"/>
  <path d="M15.8034 40.5793H18.0579" stroke="#606564" stroke-width="1.75781" stroke-miterlimit="10" stroke-linecap="round" stroke-linejoin="round"/>
  <path d="M15.8034 45.0885H18.0579" stroke="#606564" stroke-width="1.75781" stroke-miterlimit="10" stroke-linecap="round" stroke-linejoin="round"/>
  <path d="M22.5669 40.5793H32.7123" stroke="#606564" stroke-width="1.75781" stroke-miterlimit="10" stroke-linecap="round" stroke-linejoin="round"/>
  <path d="M22.5669 45.0885H30.4578" stroke="#606564" stroke-width="1.75781" stroke-miterlimit="10" stroke-linecap="round" stroke-linejoin="round"/>
  <path d="M15.8034 54.1064H25.9488" stroke="#606564" stroke-width="1.75781" stroke-miterlimit="10" stroke-linecap="round" stroke-linejoin="round"/>
  <path d="M15.8034 49.5974H18.0579" stroke="#606564" stroke-width="1.75781" stroke-miterlimit="10" stroke-linecap="round" stroke-linejoin="round"/>
  <path d="M22.5669 49.5974H29.3305" stroke="#606564" stroke-width="1.75781" stroke-miterlimit="10" stroke-linecap="round" stroke-linejoin="round"/>
  <path d="M28.2033 10.1433H30.4578" stroke="#606564" stroke-width="1.75781" stroke-miterlimit="10" stroke-linecap="round" stroke-linejoin="round"/>
  <path d="M39.4758 23.6702H41.7303" stroke="url(#paint6_linear_0_11861)" stroke-width="1.75781" stroke-miterlimit="10" stroke-linecap="round" stroke-linejoin="round"/>
  <path d="M16.9306 19.1613H19.1851" stroke="url(#paint7_linear_0_11861)" stroke-width="1.75781" stroke-miterlimit="10" stroke-linecap="round" stroke-linejoin="round"/>
  <path d="M50.7486 18.0341H53.0031" stroke="#606564" stroke-width="1.75781" stroke-miterlimit="10" stroke-linecap="round" stroke-linejoin="round"/>
  <path d="M12.4216 34.9429H57.5121" stroke="#606564" stroke-width="1.75781" stroke-miterlimit="10" stroke-linecap="round" stroke-linejoin="round"/>
  <defs>
    <linearGradient id="paint0_linear_0_11861" x1="14.6761" y1="34.0757" x2="19.3423" y2="34.9602" gradientUnits="userSpaceOnUse">
      <stop stop-color="#18A4FF"/>
      <stop offset="1" stop-color="#05C37F"/>
    </linearGradient>
    <linearGradient id="paint1_linear_0_11861" x1="37.2213" y1="34.4226" x2="41.6165" y2="35.8112" gradientUnits="userSpaceOnUse">
      <stop stop-color="#18A4FF"/>
      <stop offset="1" stop-color="#05C37F"/>
    </linearGradient>
    <linearGradient id="paint2_linear_0_11861" x1="34.9669" y1="57.2279" x2="46.6874" y2="60.9308" gradientUnits="userSpaceOnUse">
      <stop stop-color="#18A4FF"/>
      <stop offset="1" stop-color="#05C37F"/>
    </linearGradient>
    <linearGradient id="paint3_linear_0_11861" x1="50.5373" y1="58.9242" x2="52.4906" y2="59.5414" gradientUnits="userSpaceOnUse">
      <stop stop-color="#18A4FF"/>
      <stop offset="1" stop-color="#05C37F"/>
    </linearGradient>
    <linearGradient id="paint4_linear_0_11861" x1="53.0031" y1="70.0613" x2="61.0609" y2="72.6071" gradientUnits="userSpaceOnUse">
      <stop stop-color="#18A4FF"/>
      <stop offset="1" stop-color="#05C37F"/>
    </linearGradient>
    <linearGradient id="paint5_linear_0_11861" x1="55.8916" y1="63.5852" x2="57.3566" y2="64.0481" gradientUnits="userSpaceOnUse">
      <stop stop-color="#18A4FF"/>
      <stop offset="1" stop-color="#05C37F"/>
    </linearGradient>
    <linearGradient id="paint6_linear_0_11861" x1="39.4758" y1="23.5932" x2="40.5448" y2="24.3546" gradientUnits="userSpaceOnUse">
      <stop stop-color="#18A4FF"/>
      <stop offset="1" stop-color="#05C37F"/>
    </linearGradient>
    <linearGradient id="paint7_linear_0_11861" x1="16.9306" y1="19.0843" x2="17.9996" y2="19.8457" gradientUnits="userSpaceOnUse">
      <stop stop-color="#18A4FF"/>
      <stop offset="1" stop-color="#05C37F"/>
    </linearGradient>
  </defs>
</svg>