<svg width="56" height="60" viewBox="0 0 56 60" fill="none" xmlns="http://www.w3.org/2000/svg">
<g id="Group">
<path id="Vector" d="M41.6267 15.2534H14.3733C12.2133 15.2534 10.4533 17.0134 10.4533 19.1734V25.6534C10.4533 27.8134 12.2133 29.5734 14.3733 29.5734H41.6533C43.8133 29.5734 45.5733 27.8134 45.5733 25.6534V19.1734C45.5467 17.0134 43.7867 15.2534 41.6267 15.2534ZM44.0533 25.6267C44.0533 26.96 42.96 28.0534 41.6267 28.0534H14.3733C13.04 28.0534 11.9467 26.96 11.9467 25.6267V19.1467C11.9467 17.8134 13.04 16.7201 14.3733 16.7201H41.6533C42.9867 16.7201 44.08 17.8134 44.08 19.1467V25.6267H44.0533Z" fill="white"/>
<path id="Vector_2" d="M52.9067 18.4533H50.3467V16.2132C50.3467 13.0399 47.76 10.4533 44.5867 10.4533H27.9467V6.2666C29.3333 5.91994 30.3467 4.69328 30.3467 3.19995C30.3467 1.46662 28.9333 0.0532227 27.2 0.0532227C25.4667 0.0532227 24.0533 1.46662 24.0533 3.19995C24.0533 4.66662 25.0667 5.91994 26.4533 6.2666V10.4533H11.4133C8.24 10.4533 5.65333 13.0399 5.65333 16.2132V18.4533H3.09333C1.86667 18.4533 0.853333 19.4666 0.853333 20.6933V27.3066C0.853333 28.5332 1.86667 29.5466 3.09333 29.5466H5.65333V31.7866C5.65333 34.96 8.24 37.5466 11.4133 37.5466H21.6533V50.4533H11.4133C8.24 50.4533 5.65333 53.0399 5.65333 56.2132V59.2266C5.65333 59.6532 6 59.9732 6.4 59.9732C6.8 59.9732 7.14667 59.6266 7.14667 59.2266V56.2132C7.14667 53.8666 9.04 51.9732 11.3867 51.9732H22.4H32H44.6133C46.96 51.9732 48.8533 53.8666 48.8533 56.2132V59.2266C48.8533 59.6532 49.2 59.9732 49.6 59.9732C50 59.9732 50.3467 59.6266 50.3467 59.2266V56.2132C50.3467 53.0399 47.76 50.4533 44.5867 50.4533H32.7467V37.5466H44.5867C47.76 37.5466 50.3467 34.96 50.3467 31.7866V29.5466H52.9067C54.1333 29.5466 55.1467 28.5332 55.1467 27.3066V20.6933C55.1467 19.4666 54.1333 18.4533 52.9067 18.4533ZM25.5467 3.19995C25.5467 2.29328 26.2933 1.54655 27.2 1.54655C28.1067 1.54655 28.8533 2.29328 28.8533 3.19995C28.8533 4.10662 28.1333 4.8266 27.2533 4.85327C27.2267 4.85327 27.2267 4.85327 27.2 4.85327C27.1733 4.85327 27.1733 4.85327 27.1467 4.85327C26.2667 4.8266 25.5467 4.10662 25.5467 3.19995ZM3.09333 28.0532C2.69333 28.0532 2.34667 27.7332 2.34667 27.3066V20.6933C2.34667 20.2933 2.66667 19.9466 3.09333 19.9466H5.65333V28.0532H3.09333ZM31.2533 45.6532H23.1467V42.3466H31.2533V45.6532ZM23.1467 50.4533V47.1466H31.2533V50.4533H23.1467ZM31.2533 40.8533H23.1467V37.5466H31.2533V40.8533ZM48.8533 31.8132C48.8533 34.1599 46.96 36.0532 44.6133 36.0532H32H22.4H11.3867C9.04 36.0532 7.14667 34.1599 7.14667 31.8132V16.2132C7.14667 13.8665 9.04 11.9732 11.3867 11.9732H44.5867C46.9333 11.9732 48.8267 13.8665 48.8267 16.2132V31.8132H48.8533ZM53.6533 27.3066C53.6533 27.7066 53.3333 28.0532 52.9067 28.0532H50.3467V19.9466H52.9067C53.3067 19.9466 53.6533 20.2666 53.6533 20.6933V27.3066Z" fill="white"/>
<path id="Vector_3" d="M20.0533 20.7466C19.1467 20.7466 18.4 21.4932 18.4 22.3999C18.4 23.3066 19.1467 24.0532 20.0533 24.0532C20.96 24.0532 21.7067 23.3066 21.7067 22.3999C21.7067 21.4932 20.96 20.7466 20.0533 20.7466Z" fill="white"/>
<path id="Vector_4" d="M36 20.7466C35.0933 20.7466 34.3467 21.4932 34.3467 22.3999C34.3467 23.3066 35.0933 24.0532 36 24.0532C36.9067 24.0532 37.6534 23.3066 37.6534 22.3999C37.6534 21.4932 36.9067 20.7466 36 20.7466Z" fill="white"/>
</g>
</svg>
