<svg xmlns="http://www.w3.org/2000/svg" width="60" height="60" viewBox="0 0 60 60" fill="none">
  <path d="M54.006 4.33606H5.99365C3.33057 4.33606 1.17175 6.49488 1.17175 9.15784V42.1704C1.17175 44.8334 3.33057 46.9922 5.99365 46.9922H54.006C56.6691 46.9922 58.8278 44.8334 58.8278 42.1704V9.15784C58.8278 6.49488 56.6691 4.33606 54.006 4.33606Z" stroke="#606564" stroke-width="1.75781" stroke-miterlimit="10" stroke-linecap="round" stroke-linejoin="round"/>
  <path d="M35.6249 55.6641H24.3749V46.9922H35.6249V55.6641Z" stroke="#606564" stroke-width="1.75781" stroke-miterlimit="10" stroke-linecap="round" stroke-linejoin="round"/>
  <path d="M21.0483 55.6641H38.9514" stroke="#606564" stroke-width="1.75781" stroke-miterlimit="10" stroke-linecap="round" stroke-linejoin="round"/>
  <path d="M35.2734 39.5774H58.828" stroke="#606564" stroke-width="1.75781" stroke-miterlimit="10" stroke-linecap="round" stroke-linejoin="round"/>
  <path d="M29.9992 39.6089H30" stroke="url(#paint0_linear_0_11472)" stroke-width="1.75781" stroke-miterlimit="2.6131" stroke-linecap="round" stroke-linejoin="round"/>
  <path d="M1.17188 39.5774H24.7265" stroke="#606564" stroke-width="1.75781" stroke-miterlimit="10" stroke-linecap="round" stroke-linejoin="round"/>
  <path fill-rule="evenodd" clip-rule="evenodd" d="M42.7221 17.3726C43.8499 17.1352 44.6993 16.1328 44.6993 14.9354C44.6993 13.5621 43.582 12.4448 42.2087 12.4448H39.0461C38.7186 12.4448 38.4531 12.7103 38.4531 13.0378V19.3631C38.4531 19.6906 38.7185 19.9561 39.0461 19.9561C39.3736 19.9561 39.6391 19.6906 39.6391 19.3631V17.426H41.2797L42.9994 19.7189C43.116 19.8742 43.294 19.9561 43.4743 19.9561C43.5981 19.9561 43.723 19.9174 43.8296 19.8375C44.0916 19.6411 44.1448 19.2693 43.9482 19.0074L42.7221 17.3726ZM39.639 16.2401V13.6309H42.2087C42.928 13.6309 43.5133 14.2162 43.5133 14.9355C43.5133 15.6549 42.928 16.2402 42.2087 16.2402L39.639 16.2401Z" fill="url(#paint1_linear_0_11472)"/>
  <path d="M36.8722 17.6241C36.6104 17.4274 36.2386 17.4803 36.042 17.7421C35.5511 18.3955 34.8017 18.7702 33.9858 18.7702C32.5689 18.7702 31.4161 17.6175 31.4161 16.2006C31.4161 14.7837 32.5689 13.6309 33.9858 13.6309C34.8023 13.6309 35.5522 14.0062 36.0429 14.6604C36.2394 14.9223 36.6111 14.9755 36.8731 14.7789C37.135 14.5823 37.188 14.2106 36.9916 13.9487C36.2746 12.993 35.1791 12.445 33.9857 12.445C31.9149 12.445 30.2301 14.1298 30.2301 16.2006C30.2301 18.2714 31.9149 19.9562 33.9857 19.9562C35.1781 19.9562 36.2732 19.4088 36.9901 18.4544C37.187 18.1925 37.1342 17.8208 36.8722 17.6241Z" fill="url(#paint2_linear_0_11472)"/>
  <path d="M52.2867 12.9789L52.9192 19.3041C52.9518 19.63 52.714 19.9206 52.3883 19.9531C52.3682 19.9551 52.3483 19.9561 52.3286 19.9561C52.0275 19.9561 51.7698 19.7279 51.7392 19.4221L51.3477 15.5071L49.7171 19.5834C49.6271 19.8085 49.4091 19.9561 49.1666 19.9561C48.924 19.9561 48.7061 19.8085 48.616 19.5834L46.9855 15.5071L46.594 19.4221C46.5613 19.748 46.2704 19.9858 45.9449 19.9532C45.619 19.9206 45.3812 19.63 45.4138 19.3041L46.0463 12.9789C46.0735 12.707 46.2829 12.489 46.5534 12.4507C46.8239 12.4128 47.0854 12.5641 47.1869 12.8177L49.1665 17.7665L51.1461 12.8177C51.2475 12.564 51.5094 12.4124 51.7796 12.4507C52.0501 12.489 52.2595 12.707 52.2867 12.9789Z" fill="url(#paint3_linear_0_11472)"/>
  <path d="M30.9375 24.7266H52.6172" stroke="#606564" stroke-width="1.75781" stroke-miterlimit="10" stroke-linecap="round" stroke-linejoin="round"/>
  <path d="M30.9375 30.3516H42.3047" stroke="#606564" stroke-width="1.75781" stroke-miterlimit="10" stroke-linecap="round" stroke-linejoin="round"/>
  <path d="M24.6094 15.3516L22.2656 25.0781" stroke="url(#paint4_linear_0_11472)" stroke-width="1.75781" stroke-miterlimit="10" stroke-linecap="round" stroke-linejoin="round"/>
  <path d="M13.125 16.0547L22.9687 13.7109" stroke="url(#paint5_linear_0_11472)" stroke-width="1.75781" stroke-miterlimit="10" stroke-linecap="round" stroke-linejoin="round"/>
  <path d="M26.4844 13.4766C26.4844 14.3827 25.7499 15.1172 24.8438 15.1172C23.9376 15.1172 23.2031 14.3827 23.2031 13.4766C23.2031 12.5704 23.9376 11.8359 24.8438 11.8359C25.7499 11.8359 26.4844 12.5704 26.4844 13.4766Z" stroke="url(#paint6_linear_0_11472)" stroke-width="1.75781" stroke-miterlimit="10" stroke-linecap="round" stroke-linejoin="round"/>
  <path d="M9.05013 27.7734L6.79688 28.7109L9.55595 31.5234L10.4297 29.2266" stroke="url(#paint7_linear_0_11472)" stroke-width="1.75781" stroke-miterlimit="10" stroke-linecap="round" stroke-linejoin="round"/>
  <path d="M23.1323 30.3176C24.1725 29.792 25.1478 29.0946 26.0156 28.2255C26.0156 28.2255 21.0098 24.9984 17.0662 21.0608C13.1226 17.1231 10.0948 12.3047 10.0948 12.3047C5.69754 16.6954 5.69758 23.8348 10.0948 28.2255C12.5823 30.7167 15.952 31.7966 19.2044 31.465" stroke="url(#paint8_linear_0_11472)" stroke-width="1.75781" stroke-miterlimit="10" stroke-linecap="round" stroke-linejoin="round"/>
  <defs>
    <linearGradient id="paint0_linear_0_11472" x1="29.9992" y1="39.6858" x2="29.9998" y2="39.6858" gradientUnits="userSpaceOnUse">
      <stop stop-color="#18A4FF"/>
      <stop offset="1" stop-color="#05C37F"/>
    </linearGradient>
    <linearGradient id="paint1_linear_0_11472" x1="30.2301" y1="13.0228" x2="38.7167" y2="4.9226" gradientUnits="userSpaceOnUse">
      <stop stop-color="#18A4FF"/>
      <stop offset="1" stop-color="#05C37F"/>
    </linearGradient>
    <linearGradient id="paint2_linear_0_11472" x1="30.2301" y1="13.0228" x2="38.7167" y2="4.9226" gradientUnits="userSpaceOnUse">
      <stop stop-color="#18A4FF"/>
      <stop offset="1" stop-color="#05C37F"/>
    </linearGradient>
    <linearGradient id="paint3_linear_0_11472" x1="30.2301" y1="13.0228" x2="38.7167" y2="4.9226" gradientUnits="userSpaceOnUse">
      <stop stop-color="#18A4FF"/>
      <stop offset="1" stop-color="#05C37F"/>
    </linearGradient>
    <linearGradient id="paint4_linear_0_11472" x1="22.2656" y1="24.3297" x2="23.931" y2="24.4565" gradientUnits="userSpaceOnUse">
      <stop stop-color="#18A4FF"/>
      <stop offset="1" stop-color="#05C37F"/>
    </linearGradient>
    <linearGradient id="paint5_linear_0_11472" x1="13.125" y1="15.8744" x2="15.6733" y2="19.2558" gradientUnits="userSpaceOnUse">
      <stop stop-color="#18A4FF"/>
      <stop offset="1" stop-color="#05C37F"/>
    </linearGradient>
    <linearGradient id="paint6_linear_0_11472" x1="23.2031" y1="14.8647" x2="25.3354" y2="15.5384" gradientUnits="userSpaceOnUse">
      <stop stop-color="#18A4FF"/>
      <stop offset="1" stop-color="#05C37F"/>
    </linearGradient>
    <linearGradient id="paint7_linear_0_11472" x1="6.79687" y1="31.2349" x2="9.17084" y2="31.9615" gradientUnits="userSpaceOnUse">
      <stop stop-color="#18A4FF"/>
      <stop offset="1" stop-color="#05C37F"/>
    </linearGradient>
    <linearGradient id="paint8_linear_0_11472" x1="6.79687" y1="30.0447" x2="19.2858" y2="33.9905" gradientUnits="userSpaceOnUse">
      <stop stop-color="#18A4FF"/>
      <stop offset="1" stop-color="#05C37F"/>
    </linearGradient>
  </defs>
</svg>