<svg xmlns="http://www.w3.org/2000/svg" width="1920" height="2118" viewBox="0 0 1920 2118" fill="none">
  <path opacity="0.1" fill-rule="evenodd" clip-rule="evenodd" d="M1892.48 2035.94C1865.42 2114.88 1818.3 2177.21 1767.25 2227.68L1765.71 2224.64C1816.58 2174.36 1863.29 2112.47 1890.08 2034.33C1916.87 1956.2 1921.06 1859.78 1890.01 1785.13C1866.89 1729.56 1829.17 1693.76 1788.44 1660.86C1780.37 1654.34 1772.17 1647.93 1763.95 1641.5C1730.8 1615.57 1697.26 1589.33 1669.66 1554.18C1568.94 1425.9 1568.54 1188.89 1647.12 1034C1699.52 930.697 1769.83 847.132 1840.92 768.845C1928.03 672.911 1953.78 556.008 1952.45 449.746C1951.12 343.393 1922.66 247.665 1901.32 194.402C1891.83 170.719 1877.23 144.004 1857.09 119.11C1815.6 104.988 1765.66 102.531 1707.15 120.122C1638.32 141.091 1595.5 210.058 1549.56 287.368C1548.01 289.98 1546.45 292.601 1544.89 295.23C1500.34 370.306 1452.05 451.676 1373.87 502.213C1344.87 520.963 1315.36 538.088 1285.72 551.083C1276.91 555.866 1268.09 560.351 1259.25 564.457C1250.45 569.541 1241.63 574.325 1232.79 578.71C1224.13 584.074 1215.44 589.139 1206.72 593.784C1198.3 599.427 1189.84 604.767 1181.32 609.661C1173.22 615.562 1165.06 621.152 1156.81 626.271C1149.04 632.449 1141.17 638.296 1133.17 643.635C1123.25 652.21 1113.1 660.15 1102.57 666.992C1023.82 718.167 923.451 738.963 846.203 669.835C796.693 625.527 766.419 553.797 736.662 481.839L734.809 477.356C705.619 406.739 676.554 336.426 630.007 290.802C605.923 267.195 579.116 252.123 550.832 243.417C517.007 255.37 482.524 272.391 448.173 289.842C358.475 335.407 257.082 372.232 162.943 338.215C152.249 334.351 141.776 329.484 131.569 323.705C127.71 321.837 123.884 319.836 120.094 317.706C116.216 315.851 112.37 313.859 108.56 311.734C104.676 309.897 100.823 307.921 97.0048 305.808C93.149 304.007 89.3211 302.065 85.5264 299.987C81.6497 298.204 77.8002 296.275 73.9838 294.207C70.0885 292.442 66.2191 290.529 62.3827 288.471C28.4308 273.34 -3.66171 246.707 -28.3759 212.297C-60.8814 167.039 -80.7136 108.181 -75.0328 44.2495L-72.3832 44.7061C-77.9371 107.21 -58.5784 164.988 -26.4883 209.667C-13.2918 228.041 2.0425 244.175 18.6477 257.484C4.10481 244.413 -9.35278 229.199 -21.1937 212.255C-54.3388 164.825 -74.8976 103.71 -70.98 38.0137L-68.3193 38.3215C-72.1577 102.69 -52.0304 162.797 -19.2804 209.661C-5.15717 229.871 11.2985 247.595 29.1578 262.109C13.3561 247.774 -1.22813 230.961 -14.0122 212.194C-47.7973 162.597 -69.0831 99.2341 -66.9248 31.7712L-64.2576 31.9368C-66.3764 98.1682 -45.4835 160.591 -12.0753 209.635C2.97447 231.728 20.5494 251.082 39.6721 266.824C-20.209 212.028 -63.4304 122.315 -62.8678 25.5288L-60.198 25.5588C-60.7799 125.655 -13.6766 218.462 50.232 271.669C-11.9907 214.286 -56.8949 119.942 -58.8093 19.283L-56.1403 19.1843C-54.1615 123.236 -5.5019 220.755 60.7097 276.515C-3.82052 216.524 -50.2963 117.539 -54.7465 13.0334L-52.0813 12.8132C-47.4804 120.858 2.68122 223.151 71.2326 281.47C4.36127 218.86 -43.6383 115.172 -50.6852 6.78125L-48.0262 6.4458C-40.7432 118.467 10.8253 225.545 81.7057 286.447C12.507 221.195 -36.9265 112.787 -46.6228 0.524902L-43.972 0.0810547C-33.7079 118.917 21.5588 233.44 97.5723 296.047C141.794 305.159 186.122 299.961 230.439 289.239C258.308 282.495 286.087 273.594 313.826 264.705L313.83 264.704L313.838 264.701C331.031 259.192 348.209 253.687 365.384 248.704C410.831 235.52 459.281 226.769 505.821 230.98C510.834 231.012 515.83 231.184 520.802 231.509C525.835 231.399 530.848 231.434 535.836 231.626C540.823 231.368 545.789 231.256 550.73 231.301C555.397 230.909 560.046 230.646 564.672 230.524C569.86 229.885 575.024 229.41 580.16 229.115C585.089 228.336 589.997 227.709 594.881 227.25C626.581 220.962 657.442 221.148 686.714 231.916C733.549 249.144 770.593 290.027 808.048 336.269C813.979 343.592 819.921 351.049 825.914 358.571C857.822 398.617 891.193 440.5 932.261 473.734C1019.63 544.447 1109.92 579.421 1199.75 571.198C1201.44 571.044 1203.13 570.867 1204.83 570.67C1211.78 564.286 1218.82 558.153 1226 552.439C1318.29 478.91 1369.21 368.484 1415.49 268.1L1417.26 264.267C1418.5 261.58 1419.73 258.901 1420.97 256.23C1468.69 152.942 1513.1 62.1421 1595.53 38.5886C1693.85 10.4929 1767.36 34.8726 1819.13 76.4985C1823.91 79.7734 1828.53 83.1992 1832.99 86.7529C1837.86 90.054 1842.56 93.5117 1847.09 97.1028C1851.98 100.382 1856.69 103.82 1861.24 107.392C1866.09 110.611 1870.77 113.987 1875.28 117.497C1880.22 120.727 1884.98 124.121 1889.57 127.654C1894.53 130.858 1899.32 134.23 1903.94 137.743C1939.78 160.563 1966.79 192.169 1985.05 223.617C2035.94 311.249 2085.96 522.906 1977.22 696.733C1926.23 778.24 1874.97 871.697 1828.19 969.885C1766.85 1098.62 1758.15 1276.2 1818.75 1393.34C1839.74 1433.9 1867.49 1467.76 1895.9 1502.42C1898.52 1505.61 1901.14 1508.81 1903.76 1512.02C1934.82 1550.05 1965.95 1589.82 1988.84 1640.89C2023.79 1718.89 2036.71 1807.67 2032.9 1889.44C2028.74 1978.88 2006.39 2064.72 1969.25 2141.25L1967.04 2139.17C2003.94 2063.14 2026.1 1977.92 2030.24 1889.2C2034.02 1808.13 2021.2 1720.13 1986.58 1642.86C1963.92 1592.3 1933.06 1552.85 1902 1514.81C1899.37 1511.59 1896.74 1508.38 1894.11 1505.18C1865.74 1470.57 1837.76 1436.44 1816.59 1395.51C1755.19 1276.83 1764.16 1097.53 1825.96 967.829C1872.81 869.509 1924.13 775.923 1975.21 694.29C2082.8 522.299 2033.37 312.737 1982.98 225.955C1970.85 205.074 1954.78 184.074 1934.74 165.686C1950.57 182.667 1963.45 201.093 1973.43 219.18C1998.38 264.44 2024.02 342.14 2028.7 430.688C2033.37 519.298 2017.04 618.803 1957.98 707.455C1904.16 788.24 1850.2 880.513 1802.63 979.345C1738.94 1111.67 1731.62 1297.1 1797.71 1415.9C1819.46 1455 1847.67 1487.23 1876.44 1520.11C1880.11 1524.3 1883.79 1528.51 1887.47 1532.74C1919.92 1570.07 1952.07 1609.38 1975.05 1661.22C2009.51 1738.94 2019.86 1828.86 2012.85 1910.37C2005.31 1998.16 1979.54 2080.79 1940.4 2153.6L1938.26 2151.37C1977.15 2079.02 2002.72 1996.99 2010.2 1909.92C2017.15 1829.14 2006.88 1740.08 1972.78 1663.18C1950.05 1611.91 1918.21 1572.93 1885.77 1535.61C1883.58 1533.09 1881.38 1530.57 1879.19 1528.06C1877.71 1526.37 1876.23 1524.68 1874.75 1522.99C1846.01 1490.15 1817.55 1457.63 1795.6 1418.18C1728.65 1297.83 1736.24 1110.6 1800.41 977.274C1848.07 878.258 1902.12 785.832 1956.02 704.926C2014.51 617.13 2030.66 518.683 2026.03 430.96C2021.4 343.174 1995.96 266.16 1971.31 221.445C1959 199.118 1942.16 176.211 1920.7 156.221C1937.88 174.873 1951.55 195.165 1961.8 214.748C1986.2 261.388 2012.32 342.051 2016.42 433.635C2020.51 525.287 2002.55 627.895 1938.74 718.182C1882.09 798.346 1825.42 889.329 1777.07 988.815C1711.02 1124.73 1705.06 1318.13 1776.67 1438.49C1799.23 1476.41 1828.03 1507.25 1857.3 1538.59C1861.92 1543.54 1866.55 1548.5 1871.18 1553.5C1905.01 1590.13 1938.18 1628.96 1961.26 1681.57C1995.23 1759 2003.05 1850.08 1992.8 1931.3C1981.92 2017.48 1952.67 2096.87 1911.55 2165.95L1909.49 2163.58C1950.38 2094.9 1979.39 2016.09 1990.17 1930.66C2000.33 1850.18 1992.56 1760.04 1958.98 1683.5C1936.18 1631.53 1903.35 1593.05 1869.54 1556.44C1864.94 1551.46 1860.32 1546.51 1855.7 1541.57C1826.45 1510.25 1797.38 1479.13 1774.61 1440.86C1702.08 1318.95 1708.31 1123.68 1774.86 986.731C1823.32 887.008 1880.11 795.85 1936.84 715.573C2000.04 626.139 2017.81 524.611 2013.75 433.867C2009.69 343.055 1983.78 263.061 1959.64 216.938C1947.21 193.177 1929.63 168.29 1906.72 146.653C1925.27 167.02 1939.71 189.25 1950.17 210.32C1974.02 258.344 2000.62 342.031 2004.15 436.681C2007.68 531.403 1988.09 637.109 1919.51 728.904C1860.01 808.54 1800.63 898.14 1751.52 998.281C1683.1 1137.78 1678.47 1339.26 1755.62 1461.07C1779.05 1498.05 1808.56 1527.68 1838.42 1557.67C1843.91 1563.18 1849.41 1568.71 1854.89 1574.29C1890.11 1610.19 1924.3 1648.53 1947.47 1701.9C1980.96 1779.04 1986.29 1871.35 1972.75 1952.23C1958.57 2036.84 1925.81 2112.95 1882.7 2178.3L1880.73 2175.79C1923.61 2110.79 1956.1 2035.24 1970.15 1951.39C1983.56 1871.27 1978.26 1779.99 1945.19 1703.83C1922.31 1651.14 1888.51 1613.17 1853.31 1577.29C1847.87 1571.74 1842.39 1566.24 1836.92 1560.75C1807.05 1530.76 1777.26 1500.85 1753.62 1463.53C1675.48 1340.16 1680.37 1136.74 1749.31 996.184C1798.57 895.755 1858.09 805.958 1917.66 726.224C1985.6 635.275 2004.98 530.669 2001.49 436.874C1997.99 343.007 1971.58 259.974 1947.97 212.435C1935.5 187.309 1917.25 160.432 1892.96 137.147C1912.83 159.224 1927.95 183.393 1938.54 205.881C1961.82 255.293 1988.93 342.066 1991.9 439.809C1994.87 537.629 1973.65 646.431 1900.28 739.617C1837.92 818.803 1775.85 906.935 1725.97 1007.74C1655.17 1150.81 1651.86 1360.48 1734.59 1483.65C1758.92 1519.89 1789.23 1548.45 1819.8 1577.26C1826.07 1583.17 1832.36 1589.09 1838.61 1595.09C1875.21 1630.27 1910.43 1668.09 1933.69 1722.24C1966.7 1799.09 1969.57 1892.66 1952.69 1973.16C1935.26 2056.26 1898.95 2129.01 1853.85 2190.64L1851.98 2187.99C1896.85 2126.67 1932.86 2054.44 1950.13 1972.11C1966.84 1892.4 1963.96 1799.94 1931.4 1724.15C1908.46 1670.74 1873.67 1633.3 1837.09 1598.15C1830.9 1592.21 1824.66 1586.32 1818.41 1580.44L1818.38 1580.41C1787.81 1551.6 1757.2 1522.76 1732.64 1486.19C1648.86 1361.46 1652.43 1149.79 1723.77 1005.63C1773.82 904.489 1836.06 816.139 1898.48 736.87C1971.19 644.523 1992.17 536.841 1989.23 439.966C1986.28 343.015 1959.37 256.882 1936.31 207.92C1924.02 181.821 1905.5 153.338 1880.35 128.62C1880.26 128.574 1880.16 128.528 1880.06 128.481C1900.87 152.055 1916.38 177.86 1926.91 201.446C1949.6 252.25 1977.22 342.161 1979.64 443.022C1982.06 543.965 1959.23 655.86 1881.04 750.331C1815.81 829.145 1750.92 915.595 1700.41 1017.2L1700.41 1017.21C1627.02 1163.64 1625.23 1381.8 1713.55 1506.24C1738.83 1541.86 1770.02 1569.44 1801.36 1597.15L1801.37 1597.16L1801.38 1597.17C1808.39 1603.37 1815.41 1609.57 1822.38 1615.88C1860.39 1650.3 1896.62 1687.6 1919.9 1742.58C1952.53 1819.06 1952.87 1914.04 1932.62 1994.08C1911.97 2075.73 1872.07 2145.08 1824.98 2202.98L1823.22 2200.19C1870.09 2142.55 1909.65 2073.7 1930.11 1992.84C1950.16 1913.59 1949.74 1819.8 1917.6 1744.47L1917.6 1744.46C1894.66 1690.29 1858.9 1653.38 1820.92 1619C1814.01 1612.74 1807.03 1606.57 1800.04 1600.39L1800.03 1600.38C1768.67 1572.66 1737.16 1544.8 1711.65 1508.85C1622.23 1382.86 1624.27 1162.64 1698.22 1015.09C1748.91 913.09 1814.01 826.397 1879.29 747.522C1956.79 653.883 1979.37 543.127 1976.97 443.147C1974.57 343.085 1947.15 253.801 1924.64 203.409C1913.33 178.082 1896.16 150.074 1872.7 125.13C1872.21 124.919 1871.72 124.71 1871.23 124.502C1890.92 148.292 1905.49 173.89 1915.28 197.021C1937.37 249.218 1965.51 342.319 1967.38 446.322C1969.26 550.411 1944.83 665.396 1861.81 761.049C1793.67 839.56 1726.19 924.458 1674.85 1026.68C1599.17 1176.75 1598.6 1403.21 1692.5 1528.84C1718.8 1564.01 1750.96 1590.75 1783.16 1617.52C1790.82 1623.89 1798.49 1630.27 1806.08 1636.75C1845.47 1670.44 1882.72 1707.19 1906.11 1762.92C1938.23 1839.15 1936.2 1935.49 1912.56 2015.01C1888.69 2095.27 1845.19 2161.15 1796.12 2215.33L1794.46 2212.42C1843.33 2158.46 1886.46 2093.05 1910.09 2013.59C1933.5 1934.86 1935.4 1839.79 1903.81 1764.8C1880.78 1709.93 1844.03 1673.57 1804.68 1639.92C1797.16 1633.49 1789.54 1627.16 1781.91 1620.82L1781.91 1620.81C1749.68 1594.03 1717.19 1567.02 1690.65 1531.52C1595.59 1404.34 1596.4 1175.77 1672.67 1024.54C1724.22 921.895 1791.93 836.737 1860.1 758.184C1942.41 663.355 1966.57 549.525 1964.71 446.415C1962.85 343.218 1934.91 250.734 1912.98 198.909C1902.6 174.384 1886.73 146.962 1864.94 121.958C1864.17 121.661 1863.4 121.368 1862.62 121.08C1881.06 144.877 1894.62 170.051 1903.65 192.59C1925.13 246.182 1953.78 342.516 1955.12 449.682C1956.46 556.939 1930.43 675.012 1842.57 771.761C1771.51 850.026 1701.47 933.312 1649.3 1036.15C1571.31 1189.87 1571.96 1424.7 1671.46 1551.44C1698.81 1586.27 1732.01 1612.24 1765.13 1638.15C1773.38 1644.61 1781.63 1651.06 1789.78 1657.65C1830.55 1690.58 1868.82 1726.79 1892.32 1783.26C1923.92 1859.23 1919.55 1956.99 1892.48 2035.94ZM1852.75 113.872C1811.88 101.081 1763.18 99.4714 1706.59 116.489L1706.58 116.49C1636.73 137.77 1593.37 207.811 1547.5 284.997C1545.98 287.562 1544.45 290.135 1542.92 292.715C1498.31 367.876 1450.37 448.665 1372.75 498.84C1358.49 508.057 1344.13 516.868 1329.71 524.981C1337.47 520.044 1345.21 514.98 1352.93 509.846C1433.49 456.26 1482.22 370.483 1527.02 291.629C1528.57 288.908 1530.11 286.197 1531.65 283.495C1577.81 202.344 1620.69 130.278 1691.28 108.991C1754.49 90.1465 1807.58 94.5393 1850.82 111.632C1851.47 112.377 1852.11 113.123 1852.75 113.872ZM1271.26 553.217C1271.36 553.178 1271.46 553.139 1271.56 553.101C1291.35 541.022 1311.09 527.659 1330.82 514.152C1413.11 457.82 1461.94 368.301 1507.03 285.622L1507.09 285.505C1508.59 282.761 1510.08 280.025 1511.57 277.297C1557.89 192.485 1601.4 116.164 1674.86 94.23C1739.74 75.0415 1793.99 79.9639 1838.03 97.9033L1837.96 97.8323C1791.63 74.3162 1732.44 65.3481 1659.54 86.7417C1585.43 108.664 1542.35 186.762 1495.7 275.507C1494.7 277.417 1493.69 279.333 1492.69 281.253L1491.02 284.425C1445.74 370.692 1396.15 465.165 1311.06 525.128C1306.28 528.498 1301.5 531.889 1296.72 535.279L1296.58 535.376C1288.14 541.363 1279.71 547.348 1271.26 553.217ZM1247.13 565.449C1246.4 565.925 1245.68 566.4 1244.95 566.873C1244.53 567.05 1244.11 567.226 1243.68 567.402C1244.37 566.889 1245.06 566.375 1245.75 565.86C1246.21 565.724 1246.67 565.587 1247.13 565.449ZM1254.5 559.301C1255.73 558.892 1256.97 558.474 1258.2 558.047C1270.59 549.637 1282.98 540.851 1295.4 532.04C1300.21 528.627 1305.03 525.21 1309.85 521.81C1394.36 462.257 1443.61 368.432 1488.95 282.072L1491.01 278.151C1491.86 276.534 1492.7 274.921 1493.55 273.31C1540.11 184.73 1583.74 105.361 1658.99 83.1038C1724.83 63.7803 1779.65 69.0557 1824 87.4841C1777.36 63.4358 1717.6 54.0703 1643.68 75.6094C1567.8 97.8491 1524.58 178.867 1477.67 271.36C1476.81 273.053 1475.95 274.75 1475.09 276.451L1472.87 280.828C1427.35 370.712 1377.34 469.455 1290.13 532.759C1280 540.108 1269.93 547.692 1259.86 555.265C1258.07 556.611 1256.29 557.957 1254.5 559.301ZM1236.68 568.376C1234.98 569.633 1233.28 570.884 1231.58 572.128C1230.09 572.675 1228.6 573.209 1227.11 573.73L1227.92 573.065L1227.93 573.055L1227.95 573.043C1229.42 571.848 1230.89 570.652 1232.36 569.458C1233.8 569.11 1235.24 568.75 1236.68 568.376ZM1239.16 563.934C1241.05 563.423 1242.93 562.89 1244.81 562.336C1249.35 558.945 1253.89 555.526 1258.44 552.102C1268.54 544.502 1278.68 536.875 1288.89 529.462C1375.52 466.582 1425.2 368.5 1470.77 278.52C1472.35 275.408 1473.92 272.305 1475.49 269.214C1522.31 176.9 1566.08 94.5527 1643.13 71.9705C1709.68 52.5769 1764.91 58.0652 1809.53 76.8015C1762.63 52.4458 1702.45 42.8752 1627.81 64.4771C1550.17 87.0347 1506.77 170.902 1459.58 267.105C1457.93 270.473 1456.27 273.856 1454.61 277.251C1408.85 370.686 1358.43 473.638 1269.19 540.39C1259.08 547.957 1249.1 555.897 1239.16 563.934ZM1225.04 571.104C1222.75 572.967 1220.47 574.827 1218.18 576.68C1216.08 577.334 1213.98 577.96 1211.88 578.557C1214.25 576.456 1216.63 574.363 1219.01 572.285C1221.02 571.918 1223.03 571.525 1225.04 571.104ZM1224.6 567.436C1226.87 566.961 1229.15 566.451 1231.43 565.908C1243.5 556.089 1255.65 546.302 1267.93 537.114C1356.58 470.8 1406.67 368.524 1452.48 274.993L1453.01 273.921C1454.47 270.94 1455.92 267.969 1457.38 265.008C1504.48 168.995 1548.42 83.7441 1627.26 60.8372C1694.51 41.3765 1750.16 47.0425 1795.04 66.0601C1747.87 41.4297 1687.28 31.6973 1611.94 53.3596C1532.53 76.2344 1488.92 162.871 1441.43 262.743C1439.7 266.391 1437.96 270.056 1436.21 273.736C1390.21 370.641 1339.38 477.721 1248.26 548.034C1240.27 554.193 1232.41 560.72 1224.6 567.436ZM1212.82 573.325C1210.13 575.694 1207.45 578.075 1204.77 580.46C1202.28 581.088 1199.78 581.673 1197.28 582.212C1200.09 579.538 1202.9 576.896 1205.73 574.295C1208.09 574.012 1210.45 573.688 1212.82 573.325ZM1210.54 569.925C1213.05 569.562 1215.57 569.154 1218.09 568.702C1227.6 560.402 1237.2 552.314 1246.96 544.782C1337.51 474.919 1388.01 368.525 1434.06 271.523L1434.14 271.343C1435.84 267.778 1437.52 264.227 1439.2 260.69C1486.6 161.018 1530.76 72.9478 1611.4 49.7183C1679.47 30.1462 1735.65 36.03 1780.88 55.4087C1733.36 30.4094 1672.25 20.46 1596.07 42.2312C1514.9 65.4253 1471.03 154.745 1423.21 258.242L1417.66 270.269C1371.43 370.557 1320.2 481.676 1227.32 555.667C1221.65 560.183 1216.07 564.963 1210.54 569.925ZM1200.29 574.875C1197.29 577.685 1194.31 580.535 1191.33 583.411C1189.46 583.761 1187.58 584.084 1185.71 584.381C1097.37 598.362 1005.92 571.677 920.173 501.297C876.825 465.717 842.961 418.797 810.426 373.72C806.332 368.047 802.258 362.403 798.189 356.814C761.846 306.896 725.874 261.387 678.846 239.883C662.505 232.41 645.559 228.321 628.178 226.909C648.031 226.137 667.376 228.649 686.032 235.511C732.204 252.496 768.84 292.831 806.277 339.051C812.178 346.337 818.099 353.769 824.081 361.277C855.986 401.324 889.59 443.503 930.919 476.949C1018.65 547.953 1109.46 583.189 1199.93 574.909C1200.05 574.898 1200.17 574.887 1200.29 574.875ZM565.587 238.524C594.064 243.659 621.233 255.03 645.99 275.004C693.12 313.177 724.504 376.382 756.507 441.102L756.93 441.958C788.736 506.281 821.211 571.955 870.41 614.716C950.625 684.433 1047.94 679.1 1130.38 640.703C1130.74 640.535 1131.1 640.365 1131.46 640.194C1131.92 639.977 1132.38 639.758 1132.84 639.537C1132.52 639.815 1132.2 640.092 1131.88 640.369C1126.48 643.969 1121.02 647.331 1115.48 650.402C1035.25 694.919 937.507 707.538 859.735 639.14C810.897 595.955 779.78 527.814 748.866 459.435L747.871 457.234C717.354 389.725 686.841 322.225 639.437 279.779C616.426 259.211 591.189 246.173 564.703 238.799C564.997 238.707 565.292 238.615 565.587 238.524ZM558.217 240.885C586.596 247.834 613.582 261.087 637.993 282.906C684.895 324.903 715.133 391.793 745.766 459.556L746.607 461.416C777.466 529.675 808.876 598.573 858.304 642.28L858.307 642.282C935.673 710.326 1032.28 699.042 1112.1 656.242C1108.58 658.82 1105.03 661.286 1101.44 663.622C1023.05 714.561 923.773 734.831 847.647 666.706C798.77 622.966 768.787 552.072 738.976 479.983L736.994 475.189C707.905 404.813 678.58 333.865 631.543 287.761C608.601 265.273 583.248 250.449 556.55 241.443C557.106 241.256 557.662 241.07 558.217 240.885ZM544.941 241.7C512.643 253.576 479.835 269.799 447.258 286.349C363.501 328.896 270.071 363.506 182.064 340.362C267.146 357.014 355.922 322.789 436.424 284.485C472.023 267.545 508.032 251.484 543.307 241.258C543.852 241.403 544.397 241.551 544.941 241.7ZM550.79 239.596C551.018 239.516 551.245 239.436 551.472 239.357C551.216 239.303 550.96 239.25 550.704 239.198L550.052 239.373C550.298 239.447 550.544 239.521 550.79 239.596ZM1858.36 115.717C1858.84 115.88 1859.31 116.045 1859.78 116.211C1859.37 115.758 1858.94 115.305 1858.52 114.853C1858.07 114.655 1857.62 114.458 1857.17 114.262C1857.57 114.747 1857.97 115.231 1858.36 115.717ZM1866.19 118.584C1866.11 118.493 1866.03 118.401 1865.95 118.309L1866.14 118.402C1866.23 118.491 1866.32 118.58 1866.41 118.669C1866.34 118.641 1866.27 118.613 1866.19 118.584ZM1698.22 1015.09L1699.31 1016.14L1698.22 1015.08L1698.22 1015.09ZM1690.72 105.355C1751.52 87.2307 1803.07 90.4504 1845.62 105.812C1845.23 105.388 1844.84 104.965 1844.44 104.543C1799.58 84.3167 1743.42 77.7549 1675.42 97.8657C1603.06 119.47 1560.1 194.584 1513.7 279.548C1512.16 282.365 1510.62 285.192 1509.07 288.029C1464.03 370.616 1414.87 460.763 1332 517.489C1321.52 524.662 1311.02 531.807 1300.5 538.748C1317.66 528.763 1334.77 517.81 1351.78 506.49C1431.77 453.283 1480.16 368.112 1525.02 289.169C1526.53 286.5 1528.04 283.839 1529.55 281.186C1575.64 200.172 1619.06 126.962 1690.72 105.356L1690.72 105.355ZM1218.54 581.503C1219.5 580.827 1220.46 580.148 1221.42 579.466C1220.67 579.708 1219.92 579.946 1219.17 580.181C1218.64 580.614 1218.1 581.047 1217.57 581.48C1217.16 581.813 1216.74 582.146 1216.33 582.479C1217.07 582.157 1217.81 581.831 1218.54 581.503ZM1205.28 587.065C1207.11 585.603 1208.95 584.133 1210.78 582.656C1209.11 583.119 1207.44 583.562 1205.77 583.987C1203.89 585.663 1202.01 587.341 1200.13 589.02C1201.85 588.388 1203.56 587.736 1205.28 587.065ZM1198.45 586.1L1199.02 585.596C1196.79 586.092 1194.56 586.552 1192.32 586.976C1189.91 589.314 1187.5 591.671 1185.09 594.04C1187.39 593.355 1189.69 592.631 1191.99 591.87C1193.19 590.796 1194.4 589.721 1195.6 588.645C1196.51 587.833 1197.42 587.02 1198.33 586.207L1198.41 586.135L1198.42 586.129L1198.45 586.103L1198.45 586.1ZM1178.62 595.86C1181.29 593.223 1183.96 590.592 1186.63 587.976L1186.01 588.075C1097.07 602.152 1005.04 575.271 918.817 504.501C875.161 468.667 841.052 421.404 808.541 376.354C804.445 370.679 800.375 365.039 796.314 359.461C759.964 309.533 724.384 264.62 678.014 243.415C657.758 234.153 636.52 230.151 614.612 230.057C634.086 232.399 652.967 238.023 670.977 247.856C718.193 273.638 753.095 323.77 788.329 377.361C790.969 381.376 793.61 385.41 796.259 389.456C829.025 439.5 862.915 491.26 908.088 528.868C992.211 598.905 1084.85 617.433 1171.67 597.575C1173.99 597.046 1176.3 596.473 1178.62 595.86ZM435.561 280.967C469.025 265.042 502.961 249.839 536.359 239.535L535.779 239.402C499.092 247.764 461.546 262.757 424.677 279.128C343.402 315.217 254.86 350.087 169.588 333.761C257.812 356.638 350.957 321.222 435.561 280.967ZM1852.08 108.267L1852.17 108.301L1852 108.131L1851.94 108.101L1852.08 108.267ZM1196.06 594.314C1194.92 595.203 1193.78 596.087 1192.63 596.966C1191.63 597.446 1190.63 597.919 1189.62 598.386C1190.76 597.372 1191.91 596.356 1193.05 595.339C1194.05 595.004 1195.06 594.662 1196.06 594.314ZM1185.35 597.763C1184.14 598.828 1182.94 599.889 1181.73 600.947L1179.6 602.817C1177.69 603.618 1175.77 604.393 1173.85 605.141L1175.02 603.984L1175.05 603.956L1179.69 599.36C1181.58 598.854 1183.46 598.321 1185.35 597.763ZM1173.51 600.919L1173.48 600.946C1171.14 603.259 1168.81 605.572 1166.47 607.876C1163.53 608.911 1160.58 609.879 1157.62 610.775C1072.35 636.623 978.508 626.113 895.996 556.434C849.329 517.025 815.733 460.611 783.006 405.657C781.48 403.094 779.956 400.535 778.433 397.981C744.295 340.746 710.463 286.002 663.099 255.835L663.095 255.833C643.244 243.299 622.189 235.973 600.365 232.637C624.591 233.637 647.971 239.289 670.002 251.318C716.571 276.746 751.097 326.236 786.36 379.872C789.009 383.902 791.663 387.955 794.326 392.022C827.048 442.004 861.192 494.158 906.718 532.059C991.427 602.584 1084.71 621.233 1172.11 601.244C1172.57 601.137 1173.04 601.029 1173.51 600.919ZM522.707 238.855C489.827 247.598 456.506 261.092 423.866 275.585C338.366 313.551 245.502 349.807 156.999 327.187C242.52 343.187 330.835 307.641 412.924 273.773C449.187 258.812 486.341 245.58 522.707 238.855ZM1167.5 613.21C1168.38 612.463 1169.27 611.714 1170.16 610.961C1170.55 610.625 1170.95 610.29 1171.34 609.954C1170.1 610.418 1168.85 610.87 1167.61 611.31C1167.02 611.893 1166.43 612.476 1165.84 613.058C1165.15 613.737 1164.46 614.415 1163.77 615.093C1165.01 614.476 1166.25 613.848 1167.5 613.21ZM1154.73 619.351C1156.68 617.468 1158.63 615.573 1160.58 613.669C1159.78 613.92 1158.99 614.167 1158.19 614.408C1072.39 640.417 977.818 629.88 894.611 559.614C847.549 519.871 813.693 463.014 781.029 408.162C779.477 405.555 777.927 402.953 776.379 400.357C742.196 343.045 708.72 288.98 661.989 259.217C638.697 244.512 613.694 237.061 587.681 234.868C611.332 239.421 634.045 248.579 655.217 263.81L655.22 263.812C702.77 298.227 735.536 357.58 768.571 418.491L770.683 422.385C803.093 482.167 836.092 543.033 883.911 583.998C964.816 653.307 1059.91 655.935 1143.58 623.973C1147.31 622.547 1151.03 621.003 1154.73 619.351ZM412.166 270.208C443.388 257.327 475.401 245.662 507.088 238.347C471.865 243.743 436.003 255.13 401.177 268.415C397.165 269.946 393.141 271.487 389.105 273.033L388.937 273.097C309.579 303.495 225.9 335.547 144.267 320.634C233.128 343.015 325.718 305.874 412.166 270.208ZM1147.38 626.349C1146 627.639 1144.63 628.92 1143.25 630.192C1138.71 632.695 1134.14 635.031 1129.53 637.177C1047.54 675.365 951.129 680.488 871.824 611.561C823.096 569.211 790.891 504.081 758.983 439.554L758.706 438.993C726.769 374.407 695.068 310.453 647.332 271.789C624.62 253.464 599.932 242.298 574.118 236.494C602.268 239.88 629.217 249.291 653.989 267.111C700.919 301.078 733.348 359.714 766.441 420.733L768.665 424.835C800.993 484.467 834.258 545.828 882.512 587.165C964.219 657.161 1060.13 659.709 1144.29 627.559C1145.32 627.165 1146.35 626.761 1147.38 626.349ZM490.697 237.508C460.47 243.585 430.041 253.549 400.472 264.828C396.467 266.356 392.452 267.894 388.427 269.435C304.626 301.529 216.737 335.187 131.586 314.153C208.619 327.8 286.975 299.712 362.616 272.597C371.593 269.379 380.534 266.174 389.427 263.055C422.59 251.425 456.879 241.768 490.697 237.508ZM388.775 259.449C416.659 249.67 445.436 241.244 474.127 236.258C441.792 239.528 409.147 247.623 377.677 257.702C364.5 261.922 351.256 266.397 337.958 270.89C265.726 295.296 191.914 320.236 118.805 307.722C199.472 327.216 281.908 297.676 361.985 268.981L362.042 268.961C370.985 265.757 379.898 262.563 388.775 259.449ZM457.604 234.591C430.453 238.617 403.317 245.675 377.078 254.078C363.843 258.317 350.562 262.802 337.247 267.299L337.243 267.301L337.226 267.306C260.551 293.202 182.736 319.483 105.849 301.332C147.58 308.214 189.32 302.961 230.896 292.902C258.815 286.147 286.746 277.198 314.556 268.288C331.737 262.783 348.872 257.293 365.929 252.345C395.747 243.694 426.758 236.991 457.604 234.591Z" fill="#9DA4AD"/>
</svg>