<svg xmlns="http://www.w3.org/2000/svg" width="60" height="60" viewBox="0 0 60 60" fill="none">
  <g clip-path="url(#clip0_0_11544)">
    <path d="M35.6547 11.5008C35.3078 11.8404 35.3019 12.3968 35.6415 12.7437C35.981 13.0906 36.5375 13.0965 36.8843 12.757L35.6547 11.5008ZM42.2563 6.26855V5.38965H41.8977L41.6415 5.64048L42.2563 6.26855ZM36.8843 12.757L42.8711 6.89663L41.6415 5.64048L35.6547 11.5008L36.8843 12.757ZM42.2563 7.14746H54.6094V5.38965H42.2563V7.14746Z" fill="#606564"/>
    <path d="M28.6377 12.0703C28.6377 12.5557 29.0312 12.9492 29.5166 12.9492C30.002 12.9492 30.3955 12.5557 30.3955 12.0703H28.6377ZM30.3955 12.0703V4.86328H28.6377V12.0703H30.3955Z" fill="#606564"/>
    <path d="M51.1278 20.373V19.4941H50.7726L50.5171 19.7409L51.1278 20.373ZM48.3151 21.8678C47.966 22.2051 47.9563 22.7615 48.2936 23.1106C48.6308 23.4597 49.1872 23.4694 49.5363 23.1322L48.3151 21.8678ZM51.1278 21.252H54.9023V19.4941H51.1278V21.252ZM49.5363 23.1322L51.7384 21.0052L50.5171 19.7409L48.3151 21.8678L49.5363 23.1322Z" fill="#606564"/>
    <path d="M48.9844 29.1211C48.499 29.1211 48.1055 29.5146 48.1055 30C48.1055 30.4854 48.499 30.8789 48.9844 30.8789V29.1211ZM48.9844 30.8789H54.668V29.1211H48.9844V30.8789Z" fill="#606564"/>
    <path d="M23.5623 12.0892C24.122 8.17109 21.3483 4.54826 17.367 3.99741C13.3857 3.44655 9.70445 6.17627 9.14472 10.0944" stroke="#606564" stroke-width="1.75781" stroke-linecap="round"/>
    <path d="M11.4235 40.0748C9.37605 43.8808 9.9804 50.679 13.2515 52.9794C16.5227 55.2798 23.8753 55.8513 24.7852 47.3438" stroke="#606564" stroke-width="1.75781" stroke-linecap="round"/>
    <path d="M11.6016 25.1367C11.8291 26.4054 11.9656 29.2113 10.6916 30.286C9.0992 31.6293 1.13704 36.3307 1.13704 39.2412C1.13704 42.1516 0.454567 44.3904 4.09441 46.1815C5.00437 46.7188 7.20345 47.1516 8.18924 47.3009" stroke="#606564" stroke-width="1.75781" stroke-linecap="round"/>
    <path d="M13.678 15.1669C11.362 13.4179 8.04386 13.8478 6.26669 16.127C4.48951 18.4062 4.9263 21.6717 7.24228 23.4207" stroke="#606564" stroke-width="1.75781" stroke-linecap="round"/>
    <path d="M4.00004 24.5008C2.62138 24.8058 1.5735 25.8293 1.11334 27.6564C0.653177 29.4834 2.1401 31.0598 2.91507 31.5174" stroke="#606564" stroke-width="1.75781" stroke-linecap="round"/>
    <ellipse cx="56.7876" cy="20.1495" rx="2.2749" ry="2.23881" stroke="#606564" stroke-width="1.75781"/>
    <ellipse cx="56.7876" cy="30" rx="2.2749" ry="2.23881" stroke="#606564" stroke-width="1.75781"/>
    <path d="M59.042 6.22318C59.042 7.45964 58.0235 8.46199 56.7671 8.46199C55.5107 8.46199 54.4922 7.45964 54.4922 6.22318C54.4922 4.98672 55.5107 3.98438 56.7671 3.98438C58.0235 3.98438 59.042 4.98672 59.042 6.22318Z" stroke="#606564" stroke-width="1.75781"/>
    <path d="M31.8647 3.17631C31.8647 4.41276 30.8462 5.41511 29.5898 5.41511C28.3335 5.41511 27.3149 4.41276 27.3149 3.17631C27.3149 1.93985 28.3335 0.9375 29.5898 0.9375C30.8462 0.9375 31.8647 1.93985 31.8647 3.17631Z" stroke="#606564" stroke-width="1.75781"/>
    <path d="M35.1826 47.9685C34.8375 47.6271 34.8346 47.0706 35.176 46.7256C35.5174 46.3805 36.0739 46.3776 36.419 46.719L35.1826 47.9685ZM42.2563 53.7314V54.6104H41.8949L41.6381 54.3562L42.2563 53.7314ZM36.419 46.719L42.8745 53.1067L41.6381 54.3562L35.1826 47.9685L36.419 46.719ZM42.2563 52.8525H54.7407V54.6104H42.2563V52.8525Z" fill="#606564"/>
    <path d="M28.6377 47.3438C28.6377 46.8583 29.0312 46.4648 29.5166 46.4648C30.002 46.4648 30.3955 46.8583 30.3955 47.3438H28.6377ZM30.3955 47.3438V54.625H28.6377V47.3438H30.3955Z" fill="#606564"/>
    <path d="M48.3433 38.2185C48.0112 37.8644 48.029 37.3082 48.383 36.9761C48.7371 36.6441 49.2933 36.6619 49.6254 37.0159L48.3433 38.2185ZM51.1278 39.9023V40.7812H50.7471L50.4867 40.5036L51.1278 39.9023ZM49.6254 37.0159L51.7688 39.3011L50.4867 40.5036L48.3433 38.2185L49.6254 37.0159ZM51.1278 39.0234H54.8437V40.7812H51.1278V39.0234Z" fill="#606564"/>
    <ellipse cx="2.2749" cy="2.23881" rx="2.2749" ry="2.23881" transform="matrix(1 0 0 -1 54.5127 42.0898)" stroke="#606564" stroke-width="1.75781"/>
    <ellipse cx="2.2749" cy="2.23881" rx="2.2749" ry="2.23881" transform="matrix(1 0 0 -1 54.4922 55.9702)" stroke="#606564" stroke-width="1.75781"/>
    <ellipse cx="2.2749" cy="2.23881" rx="2.2749" ry="2.23881" transform="matrix(1 0 0 -1 27.2422 59.0625)" stroke="#606564" stroke-width="1.75781"/>
    <path d="M26.1328 34.2773L29.3555 25.5469L32.6367 34.2773" stroke="url(#paint0_linear_0_11544)" stroke-width="1.75781" stroke-linecap="round" stroke-linejoin="round"/>
    <path d="M35.6836 25.5469V34.2773" stroke="url(#paint1_linear_0_11544)" stroke-width="1.75781" stroke-linecap="round" stroke-linejoin="round"/>
    <path d="M27.1289 31.6992H31.2891" stroke="url(#paint2_linear_0_11544)" stroke-width="1.75781" stroke-linecap="round" stroke-linejoin="round"/>
    <rect x="16.2891" y="16.0547" width="29.4676" height="28" rx="2.92969" stroke="url(#paint3_linear_0_11544)" stroke-width="1.75781"/>
  </g>
  <defs>
    <linearGradient id="paint0_linear_0_11544" x1="26.1328" y1="26.2186" x2="30.5371" y2="25.182" gradientUnits="userSpaceOnUse">
      <stop stop-color="#18A4FF"/>
      <stop offset="1" stop-color="#05C37F"/>
    </linearGradient>
    <linearGradient id="paint1_linear_0_11544" x1="35.6836" y1="26.2186" x2="36.3974" y2="26.1928" gradientUnits="userSpaceOnUse">
      <stop stop-color="#18A4FF"/>
      <stop offset="1" stop-color="#05C37F"/>
    </linearGradient>
    <linearGradient id="paint2_linear_0_11544" x1="27.1289" y1="31.7762" x2="28.219" y2="30.3434" gradientUnits="userSpaceOnUse">
      <stop stop-color="#18A4FF"/>
      <stop offset="1" stop-color="#05C37F"/>
    </linearGradient>
    <linearGradient id="paint3_linear_0_11544" x1="16.2891" y1="18.2091" x2="35.2529" y2="11.9036" gradientUnits="userSpaceOnUse">
      <stop stop-color="#18A4FF"/>
      <stop offset="1" stop-color="#05C37F"/>
    </linearGradient>
    <clipPath id="clip0_0_11544">
      <rect width="60" height="60" fill="white"/>
    </clipPath>
  </defs>
</svg>