<svg xmlns="http://www.w3.org/2000/svg" width="60" height="60" viewBox="0 0 60 60" fill="none">
  <path d="M54.006 4.33606H5.99365C3.33057 4.33606 1.17175 6.49488 1.17175 9.15784V42.1704C1.17175 44.8334 3.33057 46.9922 5.99365 46.9922H54.006C56.6691 46.9922 58.8278 44.8334 58.8278 42.1704V9.15784C58.8278 6.49488 56.6691 4.33606 54.006 4.33606Z" stroke="#606564" stroke-width="1.75781" stroke-miterlimit="10" stroke-linecap="round" stroke-linejoin="round"/>
  <path d="M35.625 55.6641H24.375V46.9922H35.625V55.6641Z" stroke="#606564" stroke-width="1.75781" stroke-miterlimit="10" stroke-linecap="round" stroke-linejoin="round"/>
  <path d="M21.0483 55.6641H38.9514" stroke="#606564" stroke-width="1.75781" stroke-miterlimit="10" stroke-linecap="round" stroke-linejoin="round"/>
  <path d="M35.2733 39.5774H58.8279" stroke="#606564" stroke-width="1.75781" stroke-miterlimit="10" stroke-linecap="round" stroke-linejoin="round"/>
  <path d="M1.17188 39.5774H24.7265" stroke="#606564" stroke-width="1.75781" stroke-miterlimit="10" stroke-linecap="round" stroke-linejoin="round"/>
  <path fill-rule="evenodd" clip-rule="evenodd" d="M42.7221 17.3726C43.8499 17.1352 44.6993 16.1328 44.6993 14.9354C44.6993 13.5621 43.582 12.4448 42.2087 12.4448H39.0461C38.7186 12.4448 38.4531 12.7103 38.4531 13.0378V19.3631C38.4531 19.6906 38.7185 19.9561 39.0461 19.9561C39.3736 19.9561 39.6391 19.6906 39.6391 19.3631V17.426H41.2797L42.9994 19.7189C43.116 19.8742 43.294 19.9561 43.4743 19.9561C43.5981 19.9561 43.723 19.9174 43.8296 19.8375C44.0916 19.6411 44.1448 19.2693 43.9482 19.0074L42.7221 17.3726ZM39.639 16.2401V13.6309H42.2087C42.928 13.6309 43.5133 14.2162 43.5133 14.9355C43.5133 15.6549 42.928 16.2402 42.2087 16.2402L39.639 16.2401Z" fill="url(#paint0_linear_0_11504)"/>
  <path d="M36.8722 17.6241C36.6104 17.4274 36.2386 17.4803 36.042 17.7421C35.5511 18.3955 34.8017 18.7702 33.9858 18.7702C32.5689 18.7702 31.4161 17.6175 31.4161 16.2006C31.4161 14.7837 32.5689 13.6309 33.9858 13.6309C34.8023 13.6309 35.5522 14.0062 36.0429 14.6604C36.2394 14.9223 36.6111 14.9755 36.8731 14.7789C37.135 14.5823 37.188 14.2106 36.9916 13.9487C36.2746 12.993 35.1791 12.445 33.9857 12.445C31.9149 12.445 30.2301 14.1298 30.2301 16.2006C30.2301 18.2714 31.9149 19.9562 33.9857 19.9562C35.1781 19.9562 36.2732 19.4088 36.9901 18.4544C37.187 18.1925 37.1342 17.8208 36.8722 17.6241Z" fill="url(#paint1_linear_0_11504)"/>
  <path d="M52.2867 12.9789L52.9192 19.3041C52.9518 19.63 52.714 19.9206 52.3883 19.9531C52.3682 19.9551 52.3483 19.9561 52.3286 19.9561C52.0275 19.9561 51.7698 19.7279 51.7392 19.4221L51.3477 15.5071L49.7171 19.5834C49.6271 19.8085 49.4091 19.9561 49.1666 19.9561C48.924 19.9561 48.7061 19.8085 48.616 19.5834L46.9855 15.5071L46.594 19.4221C46.5613 19.748 46.2704 19.9858 45.9449 19.9532C45.619 19.9206 45.3812 19.63 45.4138 19.3041L46.0463 12.9789C46.0735 12.707 46.2829 12.489 46.5534 12.4507C46.8239 12.4128 47.0854 12.5641 47.1869 12.8177L49.1665 17.7665L51.1461 12.8177C51.2475 12.564 51.5094 12.4124 51.7796 12.4507C52.0501 12.489 52.2595 12.707 52.2867 12.9789Z" fill="url(#paint2_linear_0_11504)"/>
  <path d="M30.9375 24.7266H52.6172" stroke="#606564" stroke-width="1.75781" stroke-miterlimit="10" stroke-linecap="round" stroke-linejoin="round"/>
  <path d="M30.9375 30.3516H42.3047" stroke="#606564" stroke-width="1.75781" stroke-miterlimit="10" stroke-linecap="round" stroke-linejoin="round"/>
  <path d="M8.32031 31.5234H24.7266" stroke="url(#paint3_linear_0_11504)" stroke-width="1.75781" stroke-miterlimit="22.926" stroke-linecap="round" stroke-linejoin="round"/>
  <path d="M16.4649 17.1541L16.671 17.2147L20.0391 31.5234H12.8906L16.271 17.1622L16.4649 17.1541ZM16.4649 17.1541C17.1895 17.1541 17.7806 16.565 17.7806 15.8426C17.7806 15.1204 17.1895 14.5312 16.4649 14.5312C15.7402 14.5312 15.1491 15.1204 15.1491 15.8426C15.1491 16.565 15.7402 17.1541 16.4649 17.1541Z" stroke="url(#paint4_linear_0_11504)" stroke-width="1.75781" stroke-miterlimit="22.926" stroke-linecap="round" stroke-linejoin="round"/>
  <path d="M12.3288 18.0469C11.8413 17.3844 11.5855 16.574 11.6023 15.7453C11.6192 14.9166 11.9078 14.1177 12.4219 13.4766" stroke="url(#paint5_linear_0_11504)" stroke-width="1.75781" stroke-miterlimit="22.926" stroke-linecap="round" stroke-linejoin="round"/>
  <path d="M9.37513 19.6875C8.44564 18.5736 7.94801 17.1765 7.96941 15.741C7.99081 14.3055 8.52988 12.9231 9.49219 11.8359" stroke="url(#paint6_linear_0_11504)" stroke-width="1.75781" stroke-miterlimit="22.926" stroke-linecap="round" stroke-linejoin="round"/>
  <path d="M20.6009 18.0469C21.0884 17.3845 21.3442 16.574 21.3273 15.7453C21.3105 14.9166 21.0219 14.1177 20.5078 13.4766" stroke="url(#paint7_linear_0_11504)" stroke-width="1.75781" stroke-miterlimit="22.926" stroke-linecap="round" stroke-linejoin="round"/>
  <path d="M23.5545 19.6875C24.484 18.5736 24.9817 17.1765 24.9603 15.741C24.9389 14.3055 24.3998 12.9231 23.4375 11.8359" stroke="url(#paint8_linear_0_11504)" stroke-width="1.75781" stroke-miterlimit="22.926" stroke-linecap="round" stroke-linejoin="round"/>
  <path d="M13.125 30.7031L18.9844 27.3047" stroke="url(#paint9_linear_0_11504)" stroke-width="1.75781" stroke-miterlimit="22.926" stroke-linecap="round" stroke-linejoin="round"/>
  <path d="M18.9844 27.3047L14.5312 24.6203L17.9122 22.6172" stroke="url(#paint10_linear_0_11504)" stroke-width="1.75781" stroke-miterlimit="22.926" stroke-linecap="round" stroke-linejoin="round"/>
  <defs>
    <linearGradient id="paint0_linear_0_11504" x1="30.2301" y1="13.0228" x2="38.7167" y2="4.9226" gradientUnits="userSpaceOnUse">
      <stop stop-color="#18A4FF"/>
      <stop offset="1" stop-color="#05C37F"/>
    </linearGradient>
    <linearGradient id="paint1_linear_0_11504" x1="30.2301" y1="13.0228" x2="38.7167" y2="4.9226" gradientUnits="userSpaceOnUse">
      <stop stop-color="#18A4FF"/>
      <stop offset="1" stop-color="#05C37F"/>
    </linearGradient>
    <linearGradient id="paint2_linear_0_11504" x1="30.2301" y1="13.0228" x2="38.7167" y2="4.9226" gradientUnits="userSpaceOnUse">
      <stop stop-color="#18A4FF"/>
      <stop offset="1" stop-color="#05C37F"/>
    </linearGradient>
    <linearGradient id="paint3_linear_0_11504" x1="8.32031" y1="31.4465" x2="8.74107" y2="33.6274" gradientUnits="userSpaceOnUse">
      <stop stop-color="#18A4FF"/>
      <stop offset="1" stop-color="#05C37F"/>
    </linearGradient>
    <linearGradient id="paint4_linear_0_11504" x1="12.8906" y1="30.216" x2="17.9109" y2="30.8833" gradientUnits="userSpaceOnUse">
      <stop stop-color="#18A4FF"/>
      <stop offset="1" stop-color="#05C37F"/>
    </linearGradient>
    <linearGradient id="paint5_linear_0_11504" x1="11.6016" y1="17.6952" x2="12.186" y2="17.7284" gradientUnits="userSpaceOnUse">
      <stop stop-color="#18A4FF"/>
      <stop offset="1" stop-color="#05C37F"/>
    </linearGradient>
    <linearGradient id="paint6_linear_0_11504" x1="7.96875" y1="19.0834" x2="9.05347" y2="19.1499" gradientUnits="userSpaceOnUse">
      <stop stop-color="#18A4FF"/>
      <stop offset="1" stop-color="#05C37F"/>
    </linearGradient>
    <linearGradient id="paint7_linear_0_11504" x1="20.5078" y1="17.6952" x2="21.0922" y2="17.7284" gradientUnits="userSpaceOnUse">
      <stop stop-color="#18A4FF"/>
      <stop offset="1" stop-color="#05C37F"/>
    </linearGradient>
    <linearGradient id="paint8_linear_0_11504" x1="23.4375" y1="19.0834" x2="24.5222" y2="19.1499" gradientUnits="userSpaceOnUse">
      <stop stop-color="#18A4FF"/>
      <stop offset="1" stop-color="#05C37F"/>
    </linearGradient>
    <linearGradient id="paint9_linear_0_11504" x1="13.125" y1="30.4416" x2="16.3544" y2="32.2008" gradientUnits="userSpaceOnUse">
      <stop stop-color="#18A4FF"/>
      <stop offset="1" stop-color="#05C37F"/>
    </linearGradient>
    <linearGradient id="paint10_linear_0_11504" x1="14.5312" y1="26.944" x2="17.4509" y2="27.8203" gradientUnits="userSpaceOnUse">
      <stop stop-color="#18A4FF"/>
      <stop offset="1" stop-color="#05C37F"/>
    </linearGradient>
  </defs>
</svg>